<svg width="60" height="60" viewBox="0 0 60 60" fill="none" xmlns="http://www.w3.org/2000/svg">
<rect width="60" height="60" rx="16" fill="url(#paint0_linear)"/>
<path d="M17.408 33.176C17.408 34.52 16.528 35.256 15.36 35.256C14.336 35.256 13.472 34.776 13.248 33.432H10.704C11.072 35.912 13.008 37.208 15.392 37.208C17.952 37.208 20.128 35.816 20.128 33.16C20.128 30.456 18.128 29.112 16.048 29.112C15.232 29.112 14.288 29.336 13.744 29.72L14.016 27.544H19.584V25.4H11.824L11.008 31.976L13.424 32.216C13.824 31.48 14.496 31.064 15.408 31.064C16.432 31.064 17.408 31.752 17.408 33.176ZM21.1318 37H24.1078V34.152H21.1318V37ZM24.8474 31.176C24.8474 34.888 26.5594 37.208 29.8234 37.208C33.0714 37.208 34.7834 34.888 34.7834 31.176C34.7834 27.48 33.0714 25.208 29.8234 25.208C26.5594 25.208 24.8474 27.48 24.8474 31.176ZM32.0794 31.176C32.0794 33.992 31.1674 35.256 29.8234 35.256C28.4634 35.256 27.5514 33.992 27.5514 31.176C27.5514 28.392 28.4634 27.16 29.8234 27.16C31.1674 27.16 32.0794 28.392 32.0794 31.176ZM35.2111 31.176C35.2111 34.888 36.9231 37.208 40.1871 37.208C43.4351 37.208 45.1471 34.888 45.1471 31.176C45.1471 27.48 43.4351 25.208 40.1871 25.208C36.9231 25.208 35.2111 27.48 35.2111 31.176ZM42.4431 31.176C42.4431 33.992 41.5311 35.256 40.1871 35.256C38.8271 35.256 37.9151 33.992 37.9151 31.176C37.9151 28.392 38.8271 27.16 40.1871 27.16C41.5311 27.16 42.4431 28.392 42.4431 31.176Z" fill="white"/>
<rect x="10" y="43" width="4" height="7" rx="1.5" fill="url(#paint1_linear)"/>
<rect x="22" y="43" width="4" height="7" rx="1.5" fill="url(#paint2_linear)"/>
<rect x="16" y="43" width="4" height="7" rx="1.5" fill="url(#paint3_linear)"/>
<rect x="28" y="43" width="4" height="7" rx="1.5" fill="url(#paint4_linear)"/>
<rect x="34" y="43" width="4" height="7" rx="1.5" fill="url(#paint5_linear)"/>
<defs>
<linearGradient id="paint0_linear" x1="20.8333" y1="-1.90238e-06" x2="52.7128" y2="50.5021" gradientUnits="userSpaceOnUse">
<stop stop-color="#40B2C9"/>
<stop offset="1" stop-color="#55DF94"/>
</linearGradient>
<linearGradient id="paint1_linear" x1="12" y1="43" x2="12" y2="50" gradientUnits="userSpaceOnUse">
<stop stop-color="white"/>
<stop offset="1" stop-color="white" stop-opacity="0.85"/>
</linearGradient>
<linearGradient id="paint2_linear" x1="24" y1="43" x2="24" y2="50" gradientUnits="userSpaceOnUse">
<stop stop-color="white"/>
<stop offset="1" stop-color="white" stop-opacity="0.85"/>
</linearGradient>
<linearGradient id="paint3_linear" x1="18" y1="43" x2="18" y2="50" gradientUnits="userSpaceOnUse">
<stop stop-color="white"/>
<stop offset="1" stop-color="white" stop-opacity="0.85"/>
</linearGradient>
<linearGradient id="paint4_linear" x1="30" y1="43" x2="30" y2="50" gradientUnits="userSpaceOnUse">
<stop stop-color="white"/>
<stop offset="1" stop-color="white" stop-opacity="0.85"/>
</linearGradient>
<linearGradient id="paint5_linear" x1="36" y1="43" x2="36" y2="50" gradientUnits="userSpaceOnUse">
<stop stop-color="white"/>
<stop offset="1" stop-color="white" stop-opacity="0.85"/>
</linearGradient>
</defs>
</svg>
