<svg width="160" height="30" viewBox="0 0 160 30" fill="none" xmlns="http://www.w3.org/2000/svg">
    <path d="M0.5 8C0.5 3.85786 3.85786 0.5 8 0.5H21.8542C25.9964 0.5 29.3542 3.85786 29.3542 8V22C29.3542 26.1421 25.9964 29.5 21.8542 29.5H7.99999C3.85786 29.5 0.5 26.1421 0.5 22V8Z" stroke="#D9D9D9"/>
    <rect x="65.8057" y="0.5" width="28.3878" height="29" rx="7.5" stroke="#D9D9D9"/>
    <rect x="33.1533" y="0.5" width="28.8542" height="29" rx="7.5" stroke="#D9D9D9"/>
    <rect x="97.9932" y="0.5" width="28.8542" height="29" rx="7.5" stroke="#D9D9D9"/>
    <path fill-rule="evenodd" clip-rule="evenodd" d="M29.8542 4C29.8542 1.79086 28.0634 0 25.8542 0H4C1.79086 0 0 1.79086 0 4V26C0 28.2091 1.79086 30 4 30H25.8542C28.0634 30 29.8542 28.2091 29.8542 26V4ZM32.6531 4C32.6531 1.79086 34.444 0 36.6531 0H58.5073C60.7165 0 62.5073 1.79086 62.5073 4V26C62.5073 28.2091 60.7165 30 58.5073 30H36.6531C34.444 30 32.6531 28.2091 32.6531 26V4ZM94.6939 4C94.6939 1.79086 92.903 0 90.6939 0H69.3061C67.097 0 65.3061 1.79086 65.3061 4V26C65.3061 28.2091 67.097 30 69.3061 30H90.6939C92.903 30 94.6939 28.2091 94.6939 26V4ZM97.4927 4C97.4927 1.79086 99.2836 0 101.493 0H123.347C125.556 0 127.347 1.79086 127.347 4V26C127.347 28.2091 125.556 30 123.347 30H101.493C99.2836 30 97.4927 28.2091 97.4927 26V4ZM130.146 4C130.146 1.79086 131.937 0 134.146 0H156C158.209 0 160 1.79086 160 4V26C160 28.2091 158.209 30 156 30H134.146C131.937 30 130.146 28.2091 130.146 26V4Z" fill="url(#paint0_linear)"/>
    <path d="M147.512 16.9187C147.512 18.7398 146.349 19.7642 145 19.7642C143.434 19.7642 142.674 18.8537 142.457 17.374H141C141.217 19.2764 142.395 21 145 21C147.093 21 149 19.6016 149 16.9024C149 14.3008 147.279 12.8374 145.31 12.8374C144.38 12.8374 143.481 13.1301 142.891 13.7317L143.279 10.3821H148.581V9H142.132L141.403 15.3415L142.814 15.4228C143.062 14.8374 143.822 14.122 144.984 14.122C146.209 14.122 147.512 14.9675 147.512 16.9187Z" fill="white"/>
    <defs>
        <linearGradient id="paint0_linear" x1="0" y1="0" x2="160.586" y2="0" gradientUnits="userSpaceOnUse">
            <stop stop-color="#01ADC4"/>
            <stop offset="0.655107" stop-color="#01D587"/>
        </linearGradient>
    </defs>
</svg>
