<svg width="60" height="60" viewBox="0 0 60 60" fill="none" xmlns="http://www.w3.org/2000/svg">
<path d="M30 0C46.575 0 60 13.425 60 30C60 46.575 46.575 60 30 60C13.425 60 0 46.575 0 30C0 13.425 13.425 0 30 0Z" fill="#F2F2F2"/>
<rect width="60" height="60" rx="16" fill="#F2F2F2"/>
<path d="M28.36 36.232V33.964H30.808C37.576 33.964 42.472 31.696 42.472 25.396C42.472 18.556 37.576 16.9 30.808 16.9H22.204V28.78H19.54V33.964H22.204V36.232H19.54V39.076H22.204V43H28.36V39.076H35.668V36.232H28.36ZM30.988 28.78H28.36V22.084H30.988C33.868 22.084 36.136 22.66 36.136 25.396C36.136 28.168 33.868 28.78 30.988 28.78Z" fill="url(#paint0_linear)"/>
<path d="M49.5 43.5V14.7C49.5 12.825 47.925 11.25 46.05 11.25H14.7C12.825 11.25 11.25 12.825 11.25 14.7V46.05C11.25 47.925 12.825 49.5 14.7 49.5H30.225C33.45 49.5 36.6 48.375 39.075 46.2L39.15 46.125C39.9 45.45 39.975 44.325 39.375 43.575C38.7 42.75 37.35 42.675 36.6 43.5L36.525 43.575C35.85 44.325 35.925 45.525 36.675 46.2C39.15 48.3 40.275 49.5 43.5 49.5C46.5 49.5 49.5 47.25 49.5 43.5Z" stroke="#1D1B1C" stroke-width="2" stroke-miterlimit="10" stroke-linecap="round" stroke-linejoin="round"/>
<defs>
<linearGradient id="paint0_linear" x1="19" y1="31" x2="42.9864" y2="31" gradientUnits="userSpaceOnUse">
<stop stop-color="#00A99D"/>
<stop offset="1" stop-color="#28C387"/>
</linearGradient>
</defs>
</svg>
