<svg width="50" height="64" viewBox="0 0 50 64" fill="none" xmlns="http://www.w3.org/2000/svg">
<rect width="50" height="64" rx="4" fill="#E6E6E6"/>
<path d="M15.629 28.0251H13V36.0001H15.629C18.236 36.0001 20.293 35.0541 20.293 32.0071C20.293 28.9711 18.236 28.0251 15.629 28.0251ZM15.662 29.6091C17.048 29.6091 18.302 29.9061 18.302 32.0071C18.302 34.1191 17.048 34.4161 15.662 34.4161H14.881V29.6091H15.662Z" fill="#808080"/>
<path d="M25.1168 36.1431C27.5588 36.1431 29.2528 34.5041 29.2528 32.0181C29.2528 29.5321 27.5588 27.8931 25.1168 27.8931C22.6638 27.8931 20.9808 29.5321 20.9808 32.0181C20.9808 34.5041 22.6638 36.1431 25.1168 36.1431ZM25.1168 34.5921C23.9508 34.5921 22.9718 33.7121 22.9718 32.0181C22.9718 30.3241 23.9508 29.4441 25.1168 29.4441C26.2828 29.4441 27.2618 30.3241 27.2618 32.0181C27.2618 33.7121 26.2828 34.5921 25.1168 34.5921Z" fill="#808080"/>
<path d="M37.7386 33.0301H35.8906C35.6706 34.2401 34.7686 34.5921 33.9546 34.5921C32.8106 34.5921 31.9416 33.6901 31.9416 32.0071C31.9416 30.3791 32.8106 29.4441 33.9326 29.4441C34.8236 29.4441 35.6266 29.9171 35.8356 31.0061H37.6836C37.4086 29.1911 36.0006 27.8931 33.9986 27.8931C31.5126 27.8931 29.9506 29.4881 29.9506 32.0071C29.9506 34.5591 31.4576 36.1431 33.9436 36.1431C35.9566 36.1431 37.4526 34.8781 37.7386 33.0301Z" fill="#808080"/>
</svg>
