<svg width="50" height="64" viewBox="0 0 50 64" fill="none" xmlns="http://www.w3.org/2000/svg">
<rect width="50" height="64" rx="4" fill="#E6E6E6"/>
<path d="M17.069 28.0249H14V35.9999H15.881V33.2389H17.069C19.137 33.2389 20.688 32.7219 20.688 30.6209C20.688 28.5309 19.137 28.0249 17.069 28.0249ZM15.881 29.6089H17.124C18.004 29.6089 18.697 29.7849 18.697 30.6209C18.697 31.4679 18.004 31.6549 17.124 31.6549H15.881V29.6089Z" fill="#808080"/>
<path d="M24.0733 28.0249H21.4443V35.9999H24.0733C26.6803 35.9999 28.7373 35.0539 28.7373 32.0069C28.7373 28.9709 26.6803 28.0249 24.0733 28.0249ZM24.1063 29.6089C25.4923 29.6089 26.7463 29.9059 26.7463 32.0069C26.7463 34.1189 25.4923 34.4159 24.1063 34.4159H23.3253V29.6089H24.1063Z" fill="#808080"/>
<path d="M29.6943 28.0249V35.9999H31.5753V32.7329H35.3263V31.0719H31.5753V29.6749H35.5683V28.0249H29.6943Z" fill="#808080"/>
</svg>
