<svg width="80" height="80" viewBox="0 0 80 80" fill="none" xmlns="http://www.w3.org/2000/svg">
<rect width="80" height="80" rx="16" fill="none"/>
<rect x="62" y="58" width="26" height="37" rx="1" transform="rotate(-180 62 58)" fill="url(#paint0_linear)"/>
<path d="M27.3205 32.5867C28.3445 25.3054 25.1164 24.1137 23.3207 26.1202C21.5251 28.1266 21.0997 33.2608 22.6067 36.6315C19.8513 31.3631 16.6864 32.2188 15.3225 33.3886C12.6562 35.6756 13.8598 42.3415 17.1647 42.5968C18.5351 42.7027 19.4122 41.0577 18.7502 39.8532C16.903 36.4924 10.5553 37.9379 10.563 43.2132C10.5682 46.762 14.3146 49.9001 16.7141 51.1142C11.0257 48.8713 9.97841 52.1877 13.0047 55.0376C16.031 57.8874 20.3968 57.6191 20.3968 57.6191" stroke="black" stroke-width="2" stroke-miterlimit="10" stroke-linecap="round" stroke-linejoin="round"/>
<path d="M40.5 28H46" stroke="black" stroke-width="2" stroke-miterlimit="10" stroke-linecap="round" stroke-linejoin="round"/>
<path d="M40.5 36H46" stroke="black" stroke-width="2" stroke-miterlimit="10" stroke-linecap="round" stroke-linejoin="round"/>
<path d="M40.5 44H46" stroke="black" stroke-width="2" stroke-miterlimit="10" stroke-linecap="round" stroke-linejoin="round"/>
<path d="M52 28H57.5" stroke="black" stroke-width="2" stroke-miterlimit="10" stroke-linecap="round" stroke-linejoin="round"/>
<path d="M52 36H57.5" stroke="black" stroke-width="2" stroke-miterlimit="10" stroke-linecap="round" stroke-linejoin="round"/>
<path d="M52 44H57.5" stroke="black" stroke-width="2" stroke-miterlimit="10" stroke-linecap="round" stroke-linejoin="round"/>
<path d="M46 57V51H52V57" stroke="black" stroke-width="2" stroke-miterlimit="10" stroke-linecap="round" stroke-linejoin="round"/>
<g clip-path="url(#clip0)">
<path d="M40.2 0.000419291C62.3 0.100419 80.1 18.1004 80 40.2004C79.9 62.3004 61.9 80.1004 39.8 80.0004C17.7 79.9004 -0.100008 61.9004 -7.95475e-06 39.8004C0.099992 17.7004 18.1 -0.0995807 40.2 0.000419291Z" fill="#F2F2F2"/>
<path d="M41.8019 45.6882C30.3019 41.0882 33.3019 31.7882 39.4019 32.5882C33.2019 26.4882 39.4019 16.0881 47.1019 20.2882C46.6019 11.0882 55.6019 10.3882 55.7019 19.3882C61.9019 12.5881 71.9019 21.9882 65.6019 28.2882C74.2019 27.6882 75.9019 40.5881 65.6019 42.9882C75.5019 50.2882 59.1019 57.3882 54.2019 47.8882C49.1019 58.5882 36.2019 50.1882 41.8019 45.6882Z" fill="url(#paint1_linear)"/>
<path d="M28 57V23H60V57" stroke="#1D1B1C" stroke-width="2" stroke-miterlimit="10" stroke-linecap="round" stroke-linejoin="round"/>
<path d="M41 57V46H47V57" stroke="#1D1B1C" stroke-width="2" stroke-miterlimit="10" stroke-linecap="round" stroke-linejoin="round"/>
<path d="M32 28H42" stroke="#1D1B1C" stroke-width="2" stroke-miterlimit="10" stroke-linecap="round" stroke-linejoin="round"/>
<path d="M32 34H42" stroke="#1D1B1C" stroke-width="2" stroke-miterlimit="10" stroke-linecap="round" stroke-linejoin="round"/>
<path d="M32 40H42" stroke="#1D1B1C" stroke-width="2" stroke-miterlimit="10" stroke-linecap="round" stroke-linejoin="round"/>
<path d="M32 46H37" stroke="#1D1B1C" stroke-width="2" stroke-miterlimit="10" stroke-linecap="round" stroke-linejoin="round"/>
<path d="M46 28H56" stroke="#1D1B1C" stroke-width="2" stroke-miterlimit="10" stroke-linecap="round" stroke-linejoin="round"/>
<path d="M46 34H56" stroke="#1D1B1C" stroke-width="2" stroke-miterlimit="10" stroke-linecap="round" stroke-linejoin="round"/>
<path d="M46 40H56" stroke="#1D1B1C" stroke-width="2" stroke-miterlimit="10" stroke-linecap="round" stroke-linejoin="round"/>
<path d="M51 46H56" stroke="#1D1B1C" stroke-width="2" stroke-miterlimit="10" stroke-linecap="round" stroke-linejoin="round"/>
<path d="M17 57C17 57 15.5 49.9 17 46C18 43.4 22 41 24 44C25.8 46.6 23 49 20.8 48.9C17.7 48.7 14.8 45.7 15.5 41.1C16.3 35.9 17 30.6 17 25.4V23H28V57" stroke="#1D1B1C" stroke-width="2" stroke-miterlimit="10" stroke-linecap="round" stroke-linejoin="round"/>
</g>
<defs>
<linearGradient id="paint0_linear" x1="40.5" y1="76.5016" x2="109" y2="76.5016" gradientUnits="userSpaceOnUse">
<stop stop-color="#12ABBF"/>
<stop offset="0.48" stop-color="#27C39B"/>
<stop offset="0.95" stop-color="#40D094"/>
</linearGradient>
<linearGradient id="paint1_linear" x1="33.9459" y1="33.0544" x2="71.8579" y2="33.0544" gradientUnits="userSpaceOnUse">
<stop stop-color="#00A99D"/>
<stop offset="1" stop-color="#28C387"/>
</linearGradient>
<clipPath id="clip0">
<rect width="80" height="80" fill="white"/>
</clipPath>
</defs>
</svg>
