<svg width="80" height="80" viewBox="0 0 80 80" fill="none" xmlns="http://www.w3.org/2000/svg">
<rect width="80" height="80" rx="16" fill="none"/>
<path d="M34 32H46V55C46 58.3137 43.3137 61 40 61C36.6863 61 34 58.3137 34 55V32Z" fill="url(#paint0_linear)"/>
<path d="M18 21H30V55C30 58.3137 27.3137 61 24 61V61C20.6863 61 18 58.3137 18 55V21Z" stroke="black" stroke-width="2" stroke-linecap="round" stroke-linejoin="round"/>
<path d="M50 21H62V55C62 58.3137 59.3137 61 56 61V61C52.6863 61 50 58.3137 50 55V21Z" stroke="black" stroke-width="2" stroke-linecap="round" stroke-linejoin="round"/>
<path d="M34 21H46V55C46 58.3137 43.3137 61 40 61V61C36.6863 61 34 58.3137 34 55V21Z" stroke="black" stroke-width="2" stroke-linecap="round" stroke-linejoin="round"/>
<path d="M14.5 46.5C13.9477 46.5 13.5 46.9477 13.5 47.5C13.5 48.0523 13.9477 48.5 14.5 48.5V46.5ZM65.5 48.5C66.0523 48.5 66.5 48.0523 66.5 47.5C66.5 46.9477 66.0523 46.5 65.5 46.5V48.5ZM14.5 48.5C14.5088 48.5 14.5176 48.5 14.5264 48.5C14.5353 48.5 14.5441 48.5 14.553 48.5C14.5619 48.5 14.5708 48.5 14.5797 48.5C14.5886 48.5 14.5975 48.5 14.6065 48.5C14.6155 48.5 14.6245 48.5 14.6335 48.5C14.6425 48.5 14.6515 48.5 14.6605 48.5C14.6696 48.5 14.6786 48.5 14.6877 48.5C14.6968 48.5 14.7059 48.5 14.7151 48.5C14.7242 48.5 14.7334 48.5 14.7425 48.5C14.7517 48.5 14.7609 48.5 14.7701 48.5C14.7793 48.5 14.7886 48.5 14.7978 48.5C14.8071 48.5 14.8164 48.5 14.8257 48.5C14.835 48.5 14.8443 48.5 14.8536 48.5C14.863 48.5 14.8723 48.5 14.8817 48.5C14.8911 48.5 14.9005 48.5 14.9099 48.5C14.9193 48.5 14.9288 48.5 14.9382 48.5C14.9477 48.5 14.9572 48.5 14.9667 48.5C14.9762 48.5 14.9857 48.5 14.9953 48.5C15.0048 48.5 15.0144 48.5 15.024 48.5C15.0335 48.5 15.0431 48.5 15.0528 48.5C15.0624 48.5 15.072 48.5 15.0817 48.5C15.0914 48.5 15.1011 48.5 15.1108 48.5C15.1205 48.5 15.1302 48.5 15.1399 48.5C15.1497 48.5 15.1595 48.5 15.1692 48.5C15.179 48.5 15.1888 48.5 15.1987 48.5C15.2085 48.5 15.2183 48.5 15.2282 48.5C15.2381 48.5 15.2479 48.5 15.2578 48.5C15.2677 48.5 15.2777 48.5 15.2876 48.5C15.2975 48.5 15.3075 48.5 15.3175 48.5C15.3275 48.5 15.3375 48.5 15.3475 48.5C15.3575 48.5 15.3675 48.5 15.3776 48.5C15.3877 48.5 15.3977 48.5 15.4078 48.5C15.4179 48.5 15.428 48.5 15.4382 48.5C15.4483 48.5 15.4585 48.5 15.4686 48.5C15.4788 48.5 15.489 48.5 15.4992 48.5C15.5094 48.5 15.5197 48.5 15.5299 48.5C15.5401 48.5 15.5504 48.5 15.5607 48.5C15.571 48.5 15.5813 48.5 15.5916 48.5C15.6019 48.5 15.6123 48.5 15.6226 48.5C15.633 48.5 15.6434 48.5 15.6538 48.5C15.6642 48.5 15.6746 48.5 15.685 48.5C15.6954 48.5 15.7059 48.5 15.7164 48.5C15.7268 48.5 15.7373 48.5 15.7478 48.5C15.7583 48.5 15.7689 48.5 15.7794 48.5C15.7899 48.5 15.8005 48.5 15.8111 48.5C15.8217 48.5 15.8323 48.5 15.8429 48.5C15.8535 48.5 15.8641 48.5 15.8748 48.5C15.8854 48.5 15.8961 48.5 15.9068 48.5C15.9175 48.5 15.9282 48.5 15.9389 48.5C15.9496 48.5 15.9603 48.5 15.9711 48.5C15.9819 48.5 15.9926 48.5 16.0034 48.5C16.0142 48.5 16.025 48.5 16.0359 48.5C16.0467 48.5 16.0575 48.5 16.0684 48.5C16.0792 48.5 16.0901 48.5 16.101 48.5C16.1119 48.5 16.1228 48.5 16.1338 48.5C16.1447 48.5 16.1556 48.5 16.1666 48.5C16.1776 48.5 16.1886 48.5 16.1996 48.5C16.2105 48.5 16.2216 48.5 16.2326 48.5C16.2436 48.5 16.2547 48.5 16.2657 48.5C16.2768 48.5 16.2879 48.5 16.299 48.5C16.3101 48.5 16.3212 48.5 16.3324 48.5C16.3435 48.5 16.3546 48.5 16.3658 48.5C16.377 48.5 16.3882 48.5 16.3994 48.5C16.4106 48.5 16.4218 48.5 16.433 48.5C16.4442 48.5 16.4555 48.5 16.4668 48.5C16.478 48.5 16.4893 48.5 16.5006 48.5C16.5119 48.5 16.5232 48.5 16.5346 48.5C16.5459 48.5 16.5572 48.5 16.5686 48.5C16.58 48.5 16.5913 48.5 16.6027 48.5C16.6141 48.5 16.6255 48.5 16.637 48.5C16.6484 48.5 16.6598 48.5 16.6713 48.5C16.6828 48.5 16.6942 48.5 16.7057 48.5C16.7172 48.5 16.7287 48.5 16.7403 48.5C16.7518 48.5 16.7633 48.5 16.7749 48.5C16.7864 48.5 16.798 48.5 16.8096 48.5C16.8212 48.5 16.8328 48.5 16.8444 48.5C16.856 48.5 16.8676 48.5 16.8793 48.5C16.8909 48.5 16.9026 48.5 16.9143 48.5C16.9259 48.5 16.9376 48.5 16.9493 48.5C16.961 48.5 16.9728 48.5 16.9845 48.5C16.9963 48.5 17.008 48.5 17.0198 48.5C17.0315 48.5 17.0433 48.5 17.0551 48.5C17.0669 48.5 17.0787 48.5 17.0906 48.5C17.1024 48.5 17.1142 48.5 17.1261 48.5C17.138 48.5 17.1498 48.5 17.1617 48.5C17.1736 48.5 17.1855 48.5 17.1974 48.5C17.2093 48.5 17.2213 48.5 17.2332 48.5C17.2452 48.5 17.2571 48.5 17.2691 48.5C17.2811 48.5 17.2931 48.5 17.3051 48.5C17.3171 48.5 17.3291 48.5 17.3411 48.5C17.3532 48.5 17.3652 48.5 17.3773 48.5C17.3893 48.5 17.4014 48.5 17.4135 48.5C17.4256 48.5 17.4377 48.5 17.4498 48.5C17.4619 48.5 17.4741 48.5 17.4862 48.5C17.4984 48.5 17.5105 48.5 17.5227 48.5C17.5349 48.5 17.5471 48.5 17.5593 48.5C17.5715 48.5 17.5837 48.5 17.5959 48.5C17.6081 48.5 17.6204 48.5 17.6326 48.5C17.6449 48.5 17.6572 48.5 17.6694 48.5C17.6817 48.5 17.694 48.5 17.7063 48.5C17.7186 48.5 17.731 48.5 17.7433 48.5C17.7556 48.5 17.768 48.5 17.7804 48.5C17.7927 48.5 17.8051 48.5 17.8175 48.5C17.8299 48.5 17.8423 48.5 17.8547 48.5C17.8671 48.5 17.8795 48.5 17.892 48.5C17.9044 48.5 17.9169 48.5 17.9294 48.5C17.9418 48.5 17.9543 48.5 17.9668 48.5C17.9793 48.5 17.9918 48.5 18.0043 48.5C18.0169 48.5 18.0294 48.5 18.0419 48.5C18.0545 48.5 18.067 48.5 18.0796 48.5C18.0922 48.5 18.1048 48.5 18.1174 48.5C18.13 48.5 18.1426 48.5 18.1552 48.5C18.1678 48.5 18.1805 48.5 18.1931 48.5C18.2057 48.5 18.2184 48.5 18.2311 48.5C18.2438 48.5 18.2564 48.5 18.2691 48.5C18.2818 48.5 18.2945 48.5 18.3073 48.5C18.32 48.5 18.3327 48.5 18.3455 48.5C18.3582 48.5 18.371 48.5 18.3837 48.5C18.3965 48.5 18.4093 48.5 18.4221 48.5C18.4349 48.5 18.4477 48.5 18.4605 48.5C18.4733 48.5 18.4861 48.5 18.499 48.5C18.5118 48.5 18.5247 48.5 18.5375 48.5C18.5504 48.5 18.5633 48.5 18.5762 48.5C18.589 48.5 18.6019 48.5 18.6148 48.5C18.6278 48.5 18.6407 48.5 18.6536 48.5C18.6665 48.5 18.6795 48.5 18.6924 48.5C18.7054 48.5 18.7184 48.5 18.7313 48.5C18.7443 48.5 18.7573 48.5 18.7703 48.5C18.7833 48.5 18.7963 48.5 18.8093 48.5C18.8224 48.5 18.8354 48.5 18.8484 48.5C18.8615 48.5 18.8745 48.5 18.8876 48.5C18.9007 48.5 18.9138 48.5 18.9268 48.5C18.9399 48.5 18.953 48.5 18.9661 48.5C18.9793 48.5 18.9924 48.5 19.0055 48.5C19.0186 48.5 19.0318 48.5 19.0449 48.5C19.0581 48.5 19.0713 48.5 19.0844 48.5C19.0976 48.5 19.1108 48.5 19.124 48.5C19.1372 48.5 19.1504 48.5 19.1636 48.5C19.1768 48.5 19.19 48.5 19.2033 48.5C19.2165 48.5 19.2298 48.5 19.243 48.5C19.2563 48.5 19.2695 48.5 19.2828 48.5C19.2961 48.5 19.3094 48.5 19.3227 48.5C19.336 48.5 19.3493 48.5 19.3626 48.5C19.3759 48.5 19.3892 48.5 19.4026 48.5C19.4159 48.5 19.4292 48.5 19.4426 48.5C19.456 48.5 19.4693 48.5 19.4827 48.5C19.4961 48.5 19.5095 48.5 19.5229 48.5C19.5363 48.5 19.5497 48.5 19.5631 48.5C19.5765 48.5 19.5899 48.5 19.6033 48.5C19.6168 48.5 19.6302 48.5 19.6437 48.5C19.6571 48.5 19.6706 48.5 19.684 48.5C19.6975 48.5 19.711 48.5 19.7245 48.5C19.738 48.5 19.7515 48.5 19.765 48.5C19.7785 48.5 19.792 48.5 19.8055 48.5C19.8191 48.5 19.8326 48.5 19.8461 48.5C19.8597 48.5 19.8732 48.5 19.8868 48.5C19.9003 48.5 19.9139 48.5 19.9275 48.5C19.9411 48.5 19.9547 48.5 19.9683 48.5C19.9818 48.5 19.9955 48.5 20.0091 48.5C20.0227 48.5 20.0363 48.5 20.0499 48.5C20.0636 48.5 20.0772 48.5 20.0908 48.5C20.1045 48.5 20.1181 48.5 20.1318 48.5C20.1455 48.5 20.1591 48.5 20.1728 48.5C20.1865 48.5 20.2002 48.5 20.2139 48.5C20.2276 48.5 20.2413 48.5 20.255 48.5C20.2687 48.5 20.2824 48.5 20.2962 48.5C20.3099 48.5 20.3236 48.5 20.3374 48.5C20.3511 48.5 20.3649 48.5 20.3786 48.5C20.3924 48.5 20.4062 48.5 20.4199 48.5C20.4337 48.5 20.4475 48.5 20.4613 48.5C20.4751 48.5 20.4889 48.5 20.5027 48.5C20.5165 48.5 20.5303 48.5 20.5441 48.5C20.558 48.5 20.5718 48.5 20.5856 48.5C20.5995 48.5 20.6133 48.5 20.6272 48.5C20.641 48.5 20.6549 48.5 20.6687 48.5C20.6826 48.5 20.6965 48.5 20.7104 48.5C20.7242 48.5 20.7381 48.5 20.752 48.5C20.7659 48.5 20.7798 48.5 20.7937 48.5C20.8076 48.5 20.8216 48.5 20.8355 48.5C20.8494 48.5 20.8633 48.5 20.8773 48.5C20.8912 48.5 20.9052 48.5 20.9191 48.5C20.9331 48.5 20.947 48.5 20.961 48.5C20.9749 48.5 20.9889 48.5 21.0029 48.5C21.0169 48.5 21.0309 48.5 21.0448 48.5C21.0588 48.5 21.0728 48.5 21.0868 48.5C21.1008 48.5 21.1149 48.5 21.1289 48.5C21.1429 48.5 21.1569 48.5 21.1709 48.5C21.185 48.5 21.199 48.5 21.213 48.5C21.2271 48.5 21.2411 48.5 21.2552 48.5C21.2692 48.5 21.2833 48.5 21.2974 48.5C21.3114 48.5 21.3255 48.5 21.3396 48.5C21.3537 48.5 21.3677 48.5 21.3818 48.5C21.3959 48.5 21.41 48.5 21.4241 48.5C21.4382 48.5 21.4523 48.5 21.4664 48.5C21.4806 48.5 21.4947 48.5 21.5088 48.5C21.5229 48.5 21.5371 48.5 21.5512 48.5C21.5653 48.5 21.5795 48.5 21.5936 48.5C21.6078 48.5 21.6219 48.5 21.6361 48.5C21.6502 48.5 21.6644 48.5 21.6786 48.5C21.6927 48.5 21.7069 48.5 21.7211 48.5C21.7353 48.5 21.7494 48.5 21.7636 48.5C21.7778 48.5 21.792 48.5 21.8062 48.5C21.8204 48.5 21.8346 48.5 21.8488 48.5C21.863 48.5 21.8772 48.5 21.8915 48.5C21.9057 48.5 21.9199 48.5 21.9341 48.5C21.9484 48.5 21.9626 48.5 21.9768 48.5C21.9911 48.5 22.0053 48.5 22.0196 48.5C22.0338 48.5 22.0481 48.5 22.0623 48.5C22.0766 48.5 22.0908 48.5 22.1051 48.5C22.1194 48.5 22.1336 48.5 22.1479 48.5C22.1622 48.5 22.1765 48.5 22.1907 48.5C22.205 48.5 22.2193 48.5 22.2336 48.5C22.2479 48.5 22.2622 48.5 22.2765 48.5C22.2908 48.5 22.3051 48.5 22.3194 48.5C22.3337 48.5 22.348 48.5 22.3623 48.5C22.3767 48.5 22.391 48.5 22.4053 48.5C22.4196 48.5 22.434 48.5 22.4483 48.5C22.4626 48.5 22.477 48.5 22.4913 48.5C22.5056 48.5 22.52 48.5 22.5343 48.5C22.5487 48.5 22.563 48.5 22.5774 48.5C22.5917 48.5 22.6061 48.5 22.6204 48.5C22.6348 48.5 22.6492 48.5 22.6635 48.5C22.6779 48.5 22.6923 48.5 22.7066 48.5C22.721 48.5 22.7354 48.5 22.7498 48.5C22.7642 48.5 22.7785 48.5 22.7929 48.5C22.8073 48.5 22.8217 48.5 22.8361 48.5C22.8505 48.5 22.8649 48.5 22.8793 48.5C22.8937 48.5 22.9081 48.5 22.9225 48.5C22.9369 48.5 22.9513 48.5 22.9657 48.5C22.9801 48.5 22.9945 48.5 23.009 48.5C23.0234 48.5 23.0378 48.5 23.0522 48.5C23.0666 48.5 23.0811 48.5 23.0955 48.5C23.1099 48.5 23.1243 48.5 23.1388 48.5C23.1532 48.5 23.1676 48.5 23.1821 48.5C23.1965 48.5 23.211 48.5 23.2254 48.5C23.2398 48.5 23.2543 48.5 23.2687 48.5C23.2832 48.5 23.2976 48.5 23.3121 48.5C23.3265 48.5 23.341 48.5 23.3554 48.5C23.3699 48.5 23.3843 48.5 23.3988 48.5C23.4133 48.5 23.4277 48.5 23.4422 48.5C23.4566 48.5 23.4711 48.5 23.4856 48.5C23.5 48.5 23.5145 48.5 23.529 48.5C23.5435 48.5 23.5579 48.5 23.5724 48.5C23.5869 48.5 23.6013 48.5 23.6158 48.5C23.6303 48.5 23.6448 48.5 23.6593 48.5C23.6737 48.5 23.6882 48.5 23.7027 48.5C23.7172 48.5 23.7317 48.5 23.7461 48.5C23.7606 48.5 23.7751 48.5 23.7896 48.5C23.8041 48.5 23.8186 48.5 23.8331 48.5C23.8476 48.5 23.8621 48.5 23.8765 48.5C23.891 48.5 23.9055 48.5 23.92 48.5C23.9345 48.5 23.949 48.5 23.9635 48.5C23.978 48.5 23.9925 48.5 24.007 48.5C24.0215 48.5 24.036 48.5 24.0505 48.5C24.065 48.5 24.0795 48.5 24.094 48.5C24.1085 48.5 24.123 48.5 24.1375 48.5C24.152 48.5 24.1665 48.5 24.181 48.5C24.1955 48.5 24.21 48.5 24.2245 48.5C24.239 48.5 24.2535 48.5 24.268 48.5C24.2825 48.5 24.297 48.5 24.3115 48.5C24.3261 48.5 24.3406 48.5 24.3551 48.5C24.3696 48.5 24.3841 48.5 24.3986 48.5C24.4131 48.5 24.4276 48.5 24.4421 48.5C24.4566 48.5 24.4711 48.5 24.4856 48.5C24.5001 48.5 24.5146 48.5 24.5291 48.5C24.5436 48.5 24.5581 48.5 24.5726 48.5C24.5872 48.5 24.6017 48.5 24.6162 48.5C24.6307 48.5 24.6452 48.5 24.6597 48.5C24.6742 48.5 24.6887 48.5 24.7032 48.5C24.7177 48.5 24.7322 48.5 24.7467 48.5C24.7612 48.5 24.7757 48.5 24.7902 48.5C24.8047 48.5 24.8192 48.5 24.8337 48.5C24.8482 48.5 24.8627 48.5 24.8772 48.5C24.8917 48.5 24.9062 48.5 24.9207 48.5C24.9352 48.5 24.9497 48.5 24.9642 48.5C24.9787 48.5 24.9932 48.5 25.0076 48.5C25.0221 48.5 25.0366 48.5 25.0511 48.5C25.0656 48.5 25.0801 48.5 25.0946 48.5C25.1091 48.5 25.1236 48.5 25.138 48.5C25.1525 48.5 25.167 48.5 25.1815 48.5C25.196 48.5 25.2104 48.5 25.2249 48.5C25.2394 48.5 25.2539 48.5 25.2684 48.5C25.2828 48.5 25.2973 48.5 25.3118 48.5C25.3263 48.5 25.3407 48.5 25.3552 48.5C25.3697 48.5 25.3841 48.5 25.3986 48.5C25.4131 48.5 25.4275 48.5 25.442 48.5C25.4564 48.5 25.4709 48.5 25.4854 48.5C25.4998 48.5 25.5143 48.5 25.5287 48.5C25.5432 48.5 25.5576 48.5 25.5721 48.5C25.5865 48.5 25.601 48.5 25.6154 48.5C25.6299 48.5 25.6443 48.5 25.6588 48.5C25.6732 48.5 25.6876 48.5 25.7021 48.5C25.7165 48.5 25.7309 48.5 25.7454 48.5C25.7598 48.5 25.7742 48.5 25.7887 48.5C25.8031 48.5 25.8175 48.5 25.8319 48.5C25.8464 48.5 25.8608 48.5 25.8752 48.5C25.8896 48.5 25.904 48.5 25.9184 48.5C25.9328 48.5 25.9472 48.5 25.9616 48.5C25.9761 48.5 25.9905 48.5 26.0049 48.5C26.0192 48.5 26.0336 48.5 26.048 48.5C26.0624 48.5 26.0768 48.5 26.0912 48.5C26.1056 48.5 26.12 48.5 26.1344 48.5C26.1487 48.5 26.1631 48.5 26.1775 48.5C26.1919 48.5 26.2062 48.5 26.2206 48.5C26.235 48.5 26.2493 48.5 26.2637 48.5C26.278 48.5 26.2924 48.5 26.3067 48.5C26.3211 48.5 26.3354 48.5 26.3498 48.5C26.3641 48.5 26.3785 48.5 26.3928 48.5C26.4072 48.5 26.4215 48.5 26.4358 48.5C26.4502 48.5 26.4645 48.5 26.4788 48.5C26.4931 48.5 26.5074 48.5 26.5218 48.5C26.5361 48.5 26.5504 48.5 26.5647 48.5C26.579 48.5 26.5933 48.5 26.6076 48.5C26.6219 48.5 26.6362 48.5 26.6505 48.5C26.6648 48.5 26.6791 48.5 26.6933 48.5C26.7076 48.5 26.7219 48.5 26.7362 48.5C26.7504 48.5 26.7647 48.5 26.779 48.5C26.7932 48.5 26.8075 48.5 26.8218 48.5C26.836 48.5 26.8503 48.5 26.8645 48.5C26.8787 48.5 26.893 48.5 26.9072 48.5C26.9215 48.5 26.9357 48.5 26.9499 48.5C26.9641 48.5 26.9784 48.5 26.9926 48.5C27.0068 48.5 27.021 48.5 27.0352 48.5C27.0494 48.5 27.0636 48.5 27.0778 48.5C27.092 48.5 27.1062 48.5 27.1204 48.5C27.1346 48.5 27.1488 48.5 27.163 48.5C27.1771 48.5 27.1913 48.5 27.2055 48.5C27.2196 48.5 27.2338 48.5 27.248 48.5C27.2621 48.5 27.2763 48.5 27.2904 48.5C27.3045 48.5 27.3187 48.5 27.3328 48.5C27.347 48.5 27.3611 48.5 27.3752 48.5C27.3893 48.5 27.4034 48.5 27.4176 48.5C27.4317 48.5 27.4458 48.5 27.4599 48.5C27.474 48.5 27.4881 48.5 27.5022 48.5C27.5162 48.5 27.5303 48.5 27.5444 48.5C27.5585 48.5 27.5725 48.5 27.5866 48.5C27.6007 48.5 27.6147 48.5 27.6288 48.5C27.6428 48.5 27.6569 48.5 27.6709 48.5C27.685 48.5 27.699 48.5 27.713 48.5C27.7271 48.5 27.7411 48.5 27.7551 48.5C27.7691 48.5 27.7831 48.5 27.7971 48.5C27.8111 48.5 27.8251 48.5 27.8391 48.5C27.8531 48.5 27.8671 48.5 27.881 48.5C27.895 48.5 27.909 48.5 27.923 48.5C27.9369 48.5 27.9509 48.5 27.9648 48.5C27.9788 48.5 27.9927 48.5 28.0066 48.5C28.0206 48.5 28.0345 48.5 28.0484 48.5C28.0623 48.5 28.0763 48.5 28.0902 48.5C28.1041 48.5 28.118 48.5 28.1319 48.5C28.1458 48.5 28.1596 48.5 28.1735 48.5C28.1874 48.5 28.2013 48.5 28.2151 48.5C28.229 48.5 28.2429 48.5 28.2567 48.5C28.2706 48.5 28.2844 48.5 28.2982 48.5C28.3121 48.5 28.3259 48.5 28.3397 48.5C28.3535 48.5 28.3674 48.5 28.3812 48.5C28.395 48.5 28.4088 48.5 28.4226 48.5C28.4363 48.5 28.4501 48.5 28.4639 48.5C28.4777 48.5 28.4914 48.5 28.5052 48.5C28.519 48.5 28.5327 48.5 28.5464 48.5C28.5602 48.5 28.5739 48.5 28.5876 48.5C28.6014 48.5 28.6151 48.5 28.6288 48.5C28.6425 48.5 28.6562 48.5 28.6699 48.5C28.6836 48.5 28.6973 48.5 28.711 48.5C28.7246 48.5 28.7383 48.5 28.752 48.5C28.7656 48.5 28.7793 48.5 28.7929 48.5C28.8066 48.5 28.8202 48.5 28.8338 48.5C28.8475 48.5 28.8611 48.5 28.8747 48.5C28.8883 48.5 28.9019 48.5 28.9155 48.5C28.9291 48.5 28.9427 48.5 28.9563 48.5C28.9698 48.5 28.9834 48.5 28.997 48.5C29.0105 48.5 29.0241 48.5 29.0376 48.5C29.0511 48.5 29.0647 48.5 29.0782 48.5C29.0917 48.5 29.1052 48.5 29.1187 48.5C29.1322 48.5 29.1457 48.5 29.1592 48.5C29.1727 48.5 29.1862 48.5 29.1996 48.5C29.2131 48.5 29.2266 48.5 29.24 48.5C29.2535 48.5 29.2669 48.5 29.2803 48.5C29.2938 48.5 29.3072 48.5 29.3206 48.5C29.334 48.5 29.3474 48.5 29.3608 48.5C29.3742 48.5 29.3876 48.5 29.4009 48.5C29.4143 48.5 29.4277 48.5 29.441 48.5C29.4544 48.5 29.4677 48.5 29.4811 48.5C29.4944 48.5 29.5077 48.5 29.521 48.5C29.5343 48.5 29.5476 48.5 29.5609 48.5C29.5742 48.5 29.5875 48.5 29.6008 48.5C29.6141 48.5 29.6273 48.5 29.6406 48.5C29.6538 48.5 29.6671 48.5 29.6803 48.5C29.6935 48.5 29.7068 48.5 29.72 48.5C29.7332 48.5 29.7464 48.5 29.7596 48.5C29.7728 48.5 29.7859 48.5 29.7991 48.5C29.8123 48.5 29.8255 48.5 29.8386 48.5C29.8517 48.5 29.8649 48.5 29.878 48.5C29.8911 48.5 29.9043 48.5 29.9174 48.5C29.9305 48.5 29.9436 48.5 29.9567 48.5C29.9697 48.5 29.9828 48.5 29.9959 48.5C30.0089 48.5 30.022 48.5 30.035 48.5C30.0481 48.5 30.0611 48.5 30.0741 48.5C30.0871 48.5 30.1002 48.5 30.1131 48.5C30.1261 48.5 30.1391 48.5 30.1521 48.5C30.1651 48.5 30.178 48.5 30.191 48.5C30.2039 48.5 30.2169 48.5 30.2298 48.5C30.2427 48.5 30.2557 48.5 30.2686 48.5C30.2815 48.5 30.2944 48.5 30.3073 48.5C30.3201 48.5 30.333 48.5 30.3459 48.5C30.3587 48.5 30.3716 48.5 30.3844 48.5C30.3972 48.5 30.4101 48.5 30.4229 48.5C30.4357 48.5 30.4485 48.5 30.4613 48.5C30.4741 48.5 30.4869 48.5 30.4996 48.5C30.5124 48.5 30.5251 48.5 30.5379 48.5C30.5506 48.5 30.5633 48.5 30.5761 48.5C30.5888 48.5 30.6015 48.5 30.6142 48.5C30.6269 48.5 30.6396 48.5 30.6522 48.5C30.6649 48.5 30.6775 48.5 30.6902 48.5C30.7028 48.5 30.7155 48.5 30.7281 48.5C30.7407 48.5 30.7533 48.5 30.7659 48.5C30.7785 48.5 30.7911 48.5 30.8036 48.5C30.8162 48.5 30.8288 48.5 30.8413 48.5C30.8538 48.5 30.8664 48.5 30.8789 48.5C30.8914 48.5 30.9039 48.5 30.9164 48.5C30.9289 48.5 30.9414 48.5 30.9538 48.5C30.9663 48.5 30.9788 48.5 30.9912 48.5C31.0036 48.5 31.0161 48.5 31.0285 48.5C31.0409 48.5 31.0533 48.5 31.0657 48.5C31.0781 48.5 31.0904 48.5 31.1028 48.5C31.1152 48.5 31.1275 48.5 31.1398 48.5C31.1522 48.5 31.1645 48.5 31.1768 48.5C31.1891 48.5 31.2014 48.5 31.2137 48.5C31.226 48.5 31.2382 48.5 31.2505 48.5C31.2627 48.5 31.275 48.5 31.2872 48.5C31.2994 48.5 31.3116 48.5 31.3238 48.5C31.336 48.5 31.3482 48.5 31.3604 48.5C31.3725 48.5 31.3847 48.5 31.3968 48.5C31.409 48.5 31.4211 48.5 31.4332 48.5C31.4453 48.5 31.4574 48.5 31.4695 48.5C31.4816 48.5 31.4937 48.5 31.5057 48.5C31.5178 48.5 31.5298 48.5 31.5419 48.5C31.5539 48.5 31.5659 48.5 31.5779 48.5C31.5899 48.5 31.6019 48.5 31.6139 48.5C31.6258 48.5 31.6378 48.5 31.6497 48.5C31.6617 48.5 31.6736 48.5 31.6855 48.5C31.6974 48.5 31.7093 48.5 31.7212 48.5C31.7331 48.5 31.745 48.5 31.7568 48.5C31.7687 48.5 31.7805 48.5 31.7923 48.5C31.8041 48.5 31.816 48.5 31.8277 48.5C31.8395 48.5 31.8513 48.5 31.8631 48.5C31.8749 48.5 31.8866 48.5 31.8983 48.5C31.9101 48.5 31.9218 48.5 31.9335 48.5C31.9452 48.5 31.9569 48.5 31.9686 48.5C31.9802 48.5 31.9919 48.5 32.0035 48.5C32.0152 48.5 32.0268 48.5 32.0384 48.5C32.05 48.5 32.0616 48.5 32.0732 48.5C32.0848 48.5 32.0963 48.5 32.1079 48.5C32.1194 48.5 32.131 48.5 32.1425 48.5C32.154 48.5 32.1655 48.5 32.177 48.5C32.1885 48.5 32.2 48.5 32.2114 48.5C32.2229 48.5 32.2343 48.5 32.2457 48.5C32.2571 48.5 32.2686 48.5 32.2799 48.5C32.2913 48.5 32.3027 48.5 32.3141 48.5C32.3254 48.5 32.3368 48.5 32.3481 48.5C32.3594 48.5 32.3707 48.5 32.382 48.5C32.3933 48.5 32.4046 48.5 32.4159 48.5C32.4271 48.5 32.4384 48.5 32.4496 48.5C32.4608 48.5 32.472 48.5 32.4832 48.5C32.4944 48.5 32.5056 48.5 32.5168 48.5C32.5279 48.5 32.5391 48.5 32.5502 48.5C32.5613 48.5 32.5724 48.5 32.5835 48.5C32.5946 48.5 32.6057 48.5 32.6168 48.5C32.6278 48.5 32.6389 48.5 32.6499 48.5C32.6609 48.5 32.6719 48.5 32.6829 48.5C32.6939 48.5 32.7049 48.5 32.7159 48.5C32.7268 48.5 32.7378 48.5 32.7487 48.5C32.7596 48.5 32.7705 48.5 32.7814 48.5C32.7923 48.5 32.8032 48.5 32.814 48.5C32.8249 48.5 32.8357 48.5 32.8466 48.5C32.8574 48.5 32.8682 48.5 32.879 48.5C32.8897 48.5 32.9005 48.5 32.9113 48.5C32.922 48.5 32.9328 48.5 32.9435 48.5C32.9542 48.5 32.9649 48.5 32.9756 48.5C32.9862 48.5 32.9969 48.5 33.0075 48.5C33.0182 48.5 33.0288 48.5 33.0394 48.5C33.05 48.5 33.0606 48.5 33.0712 48.5C33.0818 48.5 33.0923 48.5 33.1029 48.5C33.1134 48.5 33.1239 48.5 33.1344 48.5C33.1449 48.5 33.1554 48.5 33.1659 48.5C33.1763 48.5 33.1868 48.5 33.1972 48.5C33.2076 48.5 33.218 48.5 33.2284 48.5C33.2388 48.5 33.2492 48.5 33.2595 48.5C33.2699 48.5 33.2802 48.5 33.2905 48.5C33.3009 48.5 33.3112 48.5 33.3214 48.5C33.3317 48.5 33.342 48.5 33.3522 48.5C33.3625 48.5 33.3727 48.5 33.3829 48.5C33.3931 48.5 33.4033 48.5 33.4134 48.5C33.4236 48.5 33.4338 48.5 33.4439 48.5C33.454 48.5 33.4641 48.5 33.4742 48.5C33.4843 48.5 33.4944 48.5 33.5044 48.5C33.5145 48.5 33.5245 48.5 33.5345 48.5C33.5445 48.5 33.5545 48.5 33.5645 48.5C33.5745 48.5 33.5844 48.5 33.5944 48.5C33.6043 48.5 33.6142 48.5 33.6241 48.5C33.634 48.5 33.6439 48.5 33.6537 48.5C33.6636 48.5 33.6734 48.5 33.6833 48.5C33.6931 48.5 33.7029 48.5 33.7127 48.5C33.7224 48.5 33.7322 48.5 33.7419 48.5C33.7517 48.5 33.7614 48.5 33.7711 48.5C33.7808 48.5 33.7905 48.5 33.8001 48.5C33.8098 48.5 33.8194 48.5 33.829 48.5C33.8387 48.5 33.8483 48.5 33.8578 48.5C33.8674 48.5 33.877 48.5 33.8865 48.5C33.8961 48.5 33.9056 48.5 33.9151 48.5C33.9246 48.5 33.934 48.5 33.9435 48.5C33.953 48.5 33.9624 48.5 33.9718 48.5C33.9812 48.5 33.9906 48.5 34 48.5V46.5C33.9906 46.5 33.9812 46.5 33.9718 46.5C33.9624 46.5 33.953 46.5 33.9435 46.5C33.934 46.5 33.9246 46.5 33.9151 46.5C33.9056 46.5 33.8961 46.5 33.8865 46.5C33.877 46.5 33.8674 46.5 33.8578 46.5C33.8483 46.5 33.8387 46.5 33.829 46.5C33.8194 46.5 33.8098 46.5 33.8001 46.5C33.7905 46.5 33.7808 46.5 33.7711 46.5C33.7614 46.5 33.7517 46.5 33.7419 46.5C33.7322 46.5 33.7224 46.5 33.7127 46.5C33.7029 46.5 33.6931 46.5 33.6833 46.5C33.6734 46.5 33.6636 46.5 33.6537 46.5C33.6439 46.5 33.634 46.5 33.6241 46.5C33.6142 46.5 33.6043 46.5 33.5944 46.5C33.5844 46.5 33.5745 46.5 33.5645 46.5C33.5545 46.5 33.5445 46.5 33.5345 46.5C33.5245 46.5 33.5145 46.5 33.5044 46.5C33.4944 46.5 33.4843 46.5 33.4742 46.5C33.4641 46.5 33.454 46.5 33.4439 46.5C33.4338 46.5 33.4236 46.5 33.4134 46.5C33.4033 46.5 33.3931 46.5 33.3829 46.5C33.3727 46.5 33.3625 46.5 33.3522 46.5C33.342 46.5 33.3317 46.5 33.3214 46.5C33.3112 46.5 33.3009 46.5 33.2905 46.5C33.2802 46.5 33.2699 46.5 33.2595 46.5C33.2492 46.5 33.2388 46.5 33.2284 46.5C33.218 46.5 33.2076 46.5 33.1972 46.5C33.1868 46.5 33.1763 46.5 33.1659 46.5C33.1554 46.5 33.1449 46.5 33.1344 46.5C33.1239 46.5 33.1134 46.5 33.1029 46.5C33.0923 46.5 33.0818 46.5 33.0712 46.5C33.0606 46.5 33.05 46.5 33.0394 46.5C33.0288 46.5 33.0182 46.5 33.0075 46.5C32.9969 46.5 32.9862 46.5 32.9756 46.5C32.9649 46.5 32.9542 46.5 32.9435 46.5C32.9328 46.5 32.922 46.5 32.9113 46.5C32.9005 46.5 32.8897 46.5 32.879 46.5C32.8682 46.5 32.8574 46.5 32.8466 46.5C32.8357 46.5 32.8249 46.5 32.814 46.5C32.8032 46.5 32.7923 46.5 32.7814 46.5C32.7705 46.5 32.7596 46.5 32.7487 46.5C32.7378 46.5 32.7268 46.5 32.7159 46.5C32.7049 46.5 32.6939 46.5 32.6829 46.5C32.6719 46.5 32.6609 46.5 32.6499 46.5C32.6389 46.5 32.6278 46.5 32.6168 46.5C32.6057 46.5 32.5946 46.5 32.5835 46.5C32.5724 46.5 32.5613 46.5 32.5502 46.5C32.5391 46.5 32.5279 46.5 32.5168 46.5C32.5056 46.5 32.4944 46.5 32.4832 46.5C32.472 46.5 32.4608 46.5 32.4496 46.5C32.4384 46.5 32.4271 46.5 32.4159 46.5C32.4046 46.5 32.3933 46.5 32.382 46.5C32.3707 46.5 32.3594 46.5 32.3481 46.5C32.3368 46.5 32.3254 46.5 32.3141 46.5C32.3027 46.5 32.2913 46.5 32.2799 46.5C32.2686 46.5 32.2571 46.5 32.2457 46.5C32.2343 46.5 32.2229 46.5 32.2114 46.5C32.2 46.5 32.1885 46.5 32.177 46.5C32.1655 46.5 32.154 46.5 32.1425 46.5C32.131 46.5 32.1194 46.5 32.1079 46.5C32.0963 46.5 32.0848 46.5 32.0732 46.5C32.0616 46.5 32.05 46.5 32.0384 46.5C32.0268 46.5 32.0152 46.5 32.0035 46.5C31.9919 46.5 31.9802 46.5 31.9686 46.5C31.9569 46.5 31.9452 46.5 31.9335 46.5C31.9218 46.5 31.9101 46.5 31.8983 46.5C31.8866 46.5 31.8749 46.5 31.8631 46.5C31.8513 46.5 31.8395 46.5 31.8277 46.5C31.816 46.5 31.8041 46.5 31.7923 46.5C31.7805 46.5 31.7687 46.5 31.7568 46.5C31.745 46.5 31.7331 46.5 31.7212 46.5C31.7093 46.5 31.6974 46.5 31.6855 46.5C31.6736 46.5 31.6617 46.5 31.6497 46.5C31.6378 46.5 31.6258 46.5 31.6139 46.5C31.6019 46.5 31.5899 46.5 31.5779 46.5C31.5659 46.5 31.5539 46.5 31.5419 46.5C31.5298 46.5 31.5178 46.5 31.5057 46.5C31.4937 46.5 31.4816 46.5 31.4695 46.5C31.4574 46.5 31.4453 46.5 31.4332 46.5C31.4211 46.5 31.409 46.5 31.3968 46.5C31.3847 46.5 31.3725 46.5 31.3604 46.5C31.3482 46.5 31.336 46.5 31.3238 46.5C31.3116 46.5 31.2994 46.5 31.2872 46.5C31.275 46.5 31.2627 46.5 31.2505 46.5C31.2382 46.5 31.226 46.5 31.2137 46.5C31.2014 46.5 31.1891 46.5 31.1768 46.5C31.1645 46.5 31.1522 46.5 31.1398 46.5C31.1275 46.5 31.1152 46.5 31.1028 46.5C31.0904 46.5 31.0781 46.5 31.0657 46.5C31.0533 46.5 31.0409 46.5 31.0285 46.5C31.0161 46.5 31.0036 46.5 30.9912 46.5C30.9788 46.5 30.9663 46.5 30.9538 46.5C30.9414 46.5 30.9289 46.5 30.9164 46.5C30.9039 46.5 30.8914 46.5 30.8789 46.5C30.8664 46.5 30.8538 46.5 30.8413 46.5C30.8288 46.5 30.8162 46.5 30.8036 46.5C30.7911 46.5 30.7785 46.5 30.7659 46.5C30.7533 46.5 30.7407 46.5 30.7281 46.5C30.7155 46.5 30.7028 46.5 30.6902 46.5C30.6775 46.5 30.6649 46.5 30.6522 46.5C30.6396 46.5 30.6269 46.5 30.6142 46.5C30.6015 46.5 30.5888 46.5 30.5761 46.5C30.5633 46.5 30.5506 46.5 30.5379 46.5C30.5251 46.5 30.5124 46.5 30.4996 46.5C30.4869 46.5 30.4741 46.5 30.4613 46.5C30.4485 46.5 30.4357 46.5 30.4229 46.5C30.4101 46.5 30.3972 46.5 30.3844 46.5C30.3716 46.5 30.3587 46.5 30.3459 46.5C30.333 46.5 30.3201 46.5 30.3073 46.5C30.2944 46.5 30.2815 46.5 30.2686 46.5C30.2557 46.5 30.2427 46.5 30.2298 46.5C30.2169 46.5 30.2039 46.5 30.191 46.5C30.178 46.5 30.1651 46.5 30.1521 46.5C30.1391 46.5 30.1261 46.5 30.1131 46.5C30.1002 46.5 30.0871 46.5 30.0741 46.5C30.0611 46.5 30.0481 46.5 30.035 46.5C30.022 46.5 30.0089 46.5 29.9959 46.5C29.9828 46.5 29.9697 46.5 29.9567 46.5C29.9436 46.5 29.9305 46.5 29.9174 46.5C29.9043 46.5 29.8911 46.5 29.878 46.5C29.8649 46.5 29.8517 46.5 29.8386 46.5C29.8255 46.5 29.8123 46.5 29.7991 46.5C29.7859 46.5 29.7728 46.5 29.7596 46.5C29.7464 46.5 29.7332 46.5 29.72 46.5C29.7068 46.5 29.6935 46.5 29.6803 46.5C29.6671 46.5 29.6538 46.5 29.6406 46.5C29.6273 46.5 29.6141 46.5 29.6008 46.5C29.5875 46.5 29.5742 46.5 29.5609 46.5C29.5476 46.5 29.5343 46.5 29.521 46.5C29.5077 46.5 29.4944 46.5 29.4811 46.5C29.4677 46.5 29.4544 46.5 29.441 46.5C29.4277 46.5 29.4143 46.5 29.4009 46.5C29.3876 46.5 29.3742 46.5 29.3608 46.5C29.3474 46.5 29.334 46.5 29.3206 46.5C29.3072 46.5 29.2938 46.5 29.2803 46.5C29.2669 46.5 29.2535 46.5 29.24 46.5C29.2266 46.5 29.2131 46.5 29.1996 46.5C29.1862 46.5 29.1727 46.5 29.1592 46.5C29.1457 46.5 29.1322 46.5 29.1187 46.5C29.1052 46.5 29.0917 46.5 29.0782 46.5C29.0647 46.5 29.0511 46.5 29.0376 46.5C29.0241 46.5 29.0105 46.5 28.997 46.5C28.9834 46.5 28.9698 46.5 28.9563 46.5C28.9427 46.5 28.9291 46.5 28.9155 46.5C28.9019 46.5 28.8883 46.5 28.8747 46.5C28.8611 46.5 28.8475 46.5 28.8338 46.5C28.8202 46.5 28.8066 46.5 28.7929 46.5C28.7793 46.5 28.7656 46.5 28.752 46.5C28.7383 46.5 28.7246 46.5 28.711 46.5C28.6973 46.5 28.6836 46.5 28.6699 46.5C28.6562 46.5 28.6425 46.5 28.6288 46.5C28.6151 46.5 28.6014 46.5 28.5876 46.5C28.5739 46.5 28.5602 46.5 28.5464 46.5C28.5327 46.5 28.519 46.5 28.5052 46.5C28.4914 46.5 28.4777 46.5 28.4639 46.5C28.4501 46.5 28.4363 46.5 28.4226 46.5C28.4088 46.5 28.395 46.5 28.3812 46.5C28.3674 46.5 28.3535 46.5 28.3397 46.5C28.3259 46.5 28.3121 46.5 28.2982 46.5C28.2844 46.5 28.2706 46.5 28.2567 46.5C28.2429 46.5 28.229 46.5 28.2151 46.5C28.2013 46.5 28.1874 46.5 28.1735 46.5C28.1596 46.5 28.1458 46.5 28.1319 46.5C28.118 46.5 28.1041 46.5 28.0902 46.5C28.0763 46.5 28.0623 46.5 28.0484 46.5C28.0345 46.5 28.0206 46.5 28.0066 46.5C27.9927 46.5 27.9788 46.5 27.9648 46.5C27.9509 46.5 27.9369 46.5 27.923 46.5C27.909 46.5 27.895 46.5 27.881 46.5C27.8671 46.5 27.8531 46.5 27.8391 46.5C27.8251 46.5 27.8111 46.5 27.7971 46.5C27.7831 46.5 27.7691 46.5 27.7551 46.5C27.7411 46.5 27.7271 46.5 27.713 46.5C27.699 46.5 27.685 46.5 27.6709 46.5C27.6569 46.5 27.6428 46.5 27.6288 46.5C27.6147 46.5 27.6007 46.5 27.5866 46.5C27.5725 46.5 27.5585 46.5 27.5444 46.5C27.5303 46.5 27.5162 46.5 27.5022 46.5C27.4881 46.5 27.474 46.5 27.4599 46.5C27.4458 46.5 27.4317 46.5 27.4176 46.5C27.4034 46.5 27.3893 46.5 27.3752 46.5C27.3611 46.5 27.347 46.5 27.3328 46.5C27.3187 46.5 27.3045 46.5 27.2904 46.5C27.2763 46.5 27.2621 46.5 27.248 46.5C27.2338 46.5 27.2196 46.5 27.2055 46.5C27.1913 46.5 27.1771 46.5 27.163 46.5C27.1488 46.5 27.1346 46.5 27.1204 46.5C27.1062 46.5 27.092 46.5 27.0778 46.5C27.0636 46.5 27.0494 46.5 27.0352 46.5C27.021 46.5 27.0068 46.5 26.9926 46.5C26.9784 46.5 26.9641 46.5 26.9499 46.5C26.9357 46.5 26.9215 46.5 26.9072 46.5C26.893 46.5 26.8787 46.5 26.8645 46.5C26.8503 46.5 26.836 46.5 26.8218 46.5C26.8075 46.5 26.7932 46.5 26.779 46.5C26.7647 46.5 26.7504 46.5 26.7362 46.5C26.7219 46.5 26.7076 46.5 26.6933 46.5C26.6791 46.5 26.6648 46.5 26.6505 46.5C26.6362 46.5 26.6219 46.5 26.6076 46.5C26.5933 46.5 26.579 46.5 26.5647 46.5C26.5504 46.5 26.5361 46.5 26.5218 46.5C26.5074 46.5 26.4931 46.5 26.4788 46.5C26.4645 46.5 26.4502 46.5 26.4358 46.5C26.4215 46.5 26.4072 46.5 26.3928 46.5C26.3785 46.5 26.3641 46.5 26.3498 46.5C26.3354 46.5 26.3211 46.5 26.3067 46.5C26.2924 46.5 26.278 46.5 26.2637 46.5C26.2493 46.5 26.235 46.5 26.2206 46.5C26.2062 46.5 26.1919 46.5 26.1775 46.5C26.1631 46.5 26.1487 46.5 26.1344 46.5C26.12 46.5 26.1056 46.5 26.0912 46.5C26.0768 46.5 26.0624 46.5 26.048 46.5C26.0336 46.5 26.0192 46.5 26.0049 46.5C25.9905 46.5 25.9761 46.5 25.9616 46.5C25.9472 46.5 25.9328 46.5 25.9184 46.5C25.904 46.5 25.8896 46.5 25.8752 46.5C25.8608 46.5 25.8464 46.5 25.8319 46.5C25.8175 46.5 25.8031 46.5 25.7887 46.5C25.7742 46.5 25.7598 46.5 25.7454 46.5C25.7309 46.5 25.7165 46.5 25.7021 46.5C25.6876 46.5 25.6732 46.5 25.6588 46.5C25.6443 46.5 25.6299 46.5 25.6154 46.5C25.601 46.5 25.5865 46.5 25.5721 46.5C25.5576 46.5 25.5432 46.5 25.5287 46.5C25.5143 46.5 25.4998 46.5 25.4854 46.5C25.4709 46.5 25.4564 46.5 25.442 46.5C25.4275 46.5 25.4131 46.5 25.3986 46.5C25.3841 46.5 25.3697 46.5 25.3552 46.5C25.3407 46.5 25.3263 46.5 25.3118 46.5C25.2973 46.5 25.2828 46.5 25.2684 46.5C25.2539 46.5 25.2394 46.5 25.2249 46.5C25.2104 46.5 25.196 46.5 25.1815 46.5C25.167 46.5 25.1525 46.5 25.138 46.5C25.1236 46.5 25.1091 46.5 25.0946 46.5C25.0801 46.5 25.0656 46.5 25.0511 46.5C25.0366 46.5 25.0221 46.5 25.0076 46.5C24.9932 46.5 24.9787 46.5 24.9642 46.5C24.9497 46.5 24.9352 46.5 24.9207 46.5C24.9062 46.5 24.8917 46.5 24.8772 46.5C24.8627 46.5 24.8482 46.5 24.8337 46.5C24.8192 46.5 24.8047 46.5 24.7902 46.5C24.7757 46.5 24.7612 46.5 24.7467 46.5C24.7322 46.5 24.7177 46.5 24.7032 46.5C24.6887 46.5 24.6742 46.5 24.6597 46.5C24.6452 46.5 24.6307 46.5 24.6162 46.5C24.6017 46.5 24.5872 46.5 24.5726 46.5C24.5581 46.5 24.5436 46.5 24.5291 46.5C24.5146 46.5 24.5001 46.5 24.4856 46.5C24.4711 46.5 24.4566 46.5 24.4421 46.5C24.4276 46.5 24.4131 46.5 24.3986 46.5C24.3841 46.5 24.3696 46.5 24.3551 46.5C24.3406 46.5 24.3261 46.5 24.3115 46.5C24.297 46.5 24.2825 46.5 24.268 46.5C24.2535 46.5 24.239 46.5 24.2245 46.5C24.21 46.5 24.1955 46.5 24.181 46.5C24.1665 46.5 24.152 46.5 24.1375 46.5C24.123 46.5 24.1085 46.5 24.094 46.5C24.0795 46.5 24.065 46.5 24.0505 46.5C24.036 46.5 24.0215 46.5 24.007 46.5C23.9925 46.5 23.978 46.5 23.9635 46.5C23.949 46.5 23.9345 46.5 23.92 46.5C23.9055 46.5 23.891 46.5 23.8765 46.5C23.8621 46.5 23.8476 46.5 23.8331 46.5C23.8186 46.5 23.8041 46.5 23.7896 46.5C23.7751 46.5 23.7606 46.5 23.7461 46.5C23.7317 46.5 23.7172 46.5 23.7027 46.5C23.6882 46.5 23.6737 46.5 23.6593 46.5C23.6448 46.5 23.6303 46.5 23.6158 46.5C23.6013 46.5 23.5869 46.5 23.5724 46.5C23.5579 46.5 23.5435 46.5 23.529 46.5C23.5145 46.5 23.5 46.5 23.4856 46.5C23.4711 46.5 23.4566 46.5 23.4422 46.5C23.4277 46.5 23.4133 46.5 23.3988 46.5C23.3843 46.5 23.3699 46.5 23.3554 46.5C23.341 46.5 23.3265 46.5 23.3121 46.5C23.2976 46.5 23.2832 46.5 23.2687 46.5C23.2543 46.5 23.2398 46.5 23.2254 46.5C23.211 46.5 23.1965 46.5 23.1821 46.5C23.1676 46.5 23.1532 46.5 23.1388 46.5C23.1243 46.5 23.1099 46.5 23.0955 46.5C23.0811 46.5 23.0666 46.5 23.0522 46.5C23.0378 46.5 23.0234 46.5 23.009 46.5C22.9945 46.5 22.9801 46.5 22.9657 46.5C22.9513 46.5 22.9369 46.5 22.9225 46.5C22.9081 46.5 22.8937 46.5 22.8793 46.5C22.8649 46.5 22.8505 46.5 22.8361 46.5C22.8217 46.5 22.8073 46.5 22.7929 46.5C22.7785 46.5 22.7642 46.5 22.7498 46.5C22.7354 46.5 22.721 46.5 22.7066 46.5C22.6923 46.5 22.6779 46.5 22.6635 46.5C22.6492 46.5 22.6348 46.5 22.6204 46.5C22.6061 46.5 22.5917 46.5 22.5774 46.5C22.563 46.5 22.5487 46.5 22.5343 46.5C22.52 46.5 22.5056 46.5 22.4913 46.5C22.477 46.5 22.4626 46.5 22.4483 46.5C22.434 46.5 22.4196 46.5 22.4053 46.5C22.391 46.5 22.3767 46.5 22.3623 46.5C22.348 46.5 22.3337 46.5 22.3194 46.5C22.3051 46.5 22.2908 46.5 22.2765 46.5C22.2622 46.5 22.2479 46.5 22.2336 46.5C22.2193 46.5 22.205 46.5 22.1907 46.5C22.1765 46.5 22.1622 46.5 22.1479 46.5C22.1336 46.5 22.1194 46.5 22.1051 46.5C22.0908 46.5 22.0766 46.5 22.0623 46.5C22.0481 46.5 22.0338 46.5 22.0196 46.5C22.0053 46.5 21.9911 46.5 21.9768 46.5C21.9626 46.5 21.9484 46.5 21.9341 46.5C21.9199 46.5 21.9057 46.5 21.8915 46.5C21.8772 46.5 21.863 46.5 21.8488 46.5C21.8346 46.5 21.8204 46.5 21.8062 46.5C21.792 46.5 21.7778 46.5 21.7636 46.5C21.7494 46.5 21.7353 46.5 21.7211 46.5C21.7069 46.5 21.6927 46.5 21.6786 46.5C21.6644 46.5 21.6502 46.5 21.6361 46.5C21.6219 46.5 21.6078 46.5 21.5936 46.5C21.5795 46.5 21.5653 46.5 21.5512 46.5C21.5371 46.5 21.5229 46.5 21.5088 46.5C21.4947 46.5 21.4806 46.5 21.4664 46.5C21.4523 46.5 21.4382 46.5 21.4241 46.5C21.41 46.5 21.3959 46.5 21.3818 46.5C21.3677 46.5 21.3537 46.5 21.3396 46.5C21.3255 46.5 21.3114 46.5 21.2974 46.5C21.2833 46.5 21.2692 46.5 21.2552 46.5C21.2411 46.5 21.2271 46.5 21.213 46.5C21.199 46.5 21.185 46.5 21.1709 46.5C21.1569 46.5 21.1429 46.5 21.1289 46.5C21.1149 46.5 21.1008 46.5 21.0868 46.5C21.0728 46.5 21.0588 46.5 21.0448 46.5C21.0309 46.5 21.0169 46.5 21.0029 46.5C20.9889 46.5 20.9749 46.5 20.961 46.5C20.947 46.5 20.9331 46.5 20.9191 46.5C20.9052 46.5 20.8912 46.5 20.8773 46.5C20.8633 46.5 20.8494 46.5 20.8355 46.5C20.8216 46.5 20.8076 46.5 20.7937 46.5C20.7798 46.5 20.7659 46.5 20.752 46.5C20.7381 46.5 20.7242 46.5 20.7104 46.5C20.6965 46.5 20.6826 46.5 20.6687 46.5C20.6549 46.5 20.641 46.5 20.6272 46.5C20.6133 46.5 20.5995 46.5 20.5856 46.5C20.5718 46.5 20.558 46.5 20.5441 46.5C20.5303 46.5 20.5165 46.5 20.5027 46.5C20.4889 46.5 20.4751 46.5 20.4613 46.5C20.4475 46.5 20.4337 46.5 20.4199 46.5C20.4062 46.5 20.3924 46.5 20.3786 46.5C20.3649 46.5 20.3511 46.5 20.3374 46.5C20.3236 46.5 20.3099 46.5 20.2962 46.5C20.2824 46.5 20.2687 46.5 20.255 46.5C20.2413 46.5 20.2276 46.5 20.2139 46.5C20.2002 46.5 20.1865 46.5 20.1728 46.5C20.1591 46.5 20.1455 46.5 20.1318 46.5C20.1181 46.5 20.1045 46.5 20.0908 46.5C20.0772 46.5 20.0636 46.5 20.0499 46.5C20.0363 46.5 20.0227 46.5 20.0091 46.5C19.9955 46.5 19.9818 46.5 19.9683 46.5C19.9547 46.5 19.9411 46.5 19.9275 46.5C19.9139 46.5 19.9003 46.5 19.8868 46.5C19.8732 46.5 19.8597 46.5 19.8461 46.5C19.8326 46.5 19.8191 46.5 19.8055 46.5C19.792 46.5 19.7785 46.5 19.765 46.5C19.7515 46.5 19.738 46.5 19.7245 46.5C19.711 46.5 19.6975 46.5 19.684 46.5C19.6706 46.5 19.6571 46.5 19.6437 46.5C19.6302 46.5 19.6168 46.5 19.6033 46.5C19.5899 46.5 19.5765 46.5 19.5631 46.5C19.5497 46.5 19.5363 46.5 19.5229 46.5C19.5095 46.5 19.4961 46.5 19.4827 46.5C19.4693 46.5 19.456 46.5 19.4426 46.5C19.4292 46.5 19.4159 46.5 19.4026 46.5C19.3892 46.5 19.3759 46.5 19.3626 46.5C19.3493 46.5 19.336 46.5 19.3227 46.5C19.3094 46.5 19.2961 46.5 19.2828 46.5C19.2695 46.5 19.2563 46.5 19.243 46.5C19.2298 46.5 19.2165 46.5 19.2033 46.5C19.19 46.5 19.1768 46.5 19.1636 46.5C19.1504 46.5 19.1372 46.5 19.124 46.5C19.1108 46.5 19.0976 46.5 19.0844 46.5C19.0713 46.5 19.0581 46.5 19.0449 46.5C19.0318 46.5 19.0186 46.5 19.0055 46.5C18.9924 46.5 18.9793 46.5 18.9661 46.5C18.953 46.5 18.9399 46.5 18.9268 46.5C18.9138 46.5 18.9007 46.5 18.8876 46.5C18.8745 46.5 18.8615 46.5 18.8484 46.5C18.8354 46.5 18.8224 46.5 18.8093 46.5C18.7963 46.5 18.7833 46.5 18.7703 46.5C18.7573 46.5 18.7443 46.5 18.7313 46.5C18.7184 46.5 18.7054 46.5 18.6924 46.5C18.6795 46.5 18.6665 46.5 18.6536 46.5C18.6407 46.5 18.6278 46.5 18.6148 46.5C18.6019 46.5 18.589 46.5 18.5762 46.5C18.5633 46.5 18.5504 46.5 18.5375 46.5C18.5247 46.5 18.5118 46.5 18.499 46.5C18.4861 46.5 18.4733 46.5 18.4605 46.5C18.4477 46.5 18.4349 46.5 18.4221 46.5C18.4093 46.5 18.3965 46.5 18.3837 46.5C18.371 46.5 18.3582 46.5 18.3455 46.5C18.3327 46.5 18.32 46.5 18.3073 46.5C18.2945 46.5 18.2818 46.5 18.2691 46.5C18.2564 46.5 18.2438 46.5 18.2311 46.5C18.2184 46.5 18.2057 46.5 18.1931 46.5C18.1805 46.5 18.1678 46.5 18.1552 46.5C18.1426 46.5 18.13 46.5 18.1174 46.5C18.1048 46.5 18.0922 46.5 18.0796 46.5C18.067 46.5 18.0545 46.5 18.0419 46.5C18.0294 46.5 18.0169 46.5 18.0043 46.5C17.9918 46.5 17.9793 46.5 17.9668 46.5C17.9543 46.5 17.9418 46.5 17.9294 46.5C17.9169 46.5 17.9044 46.5 17.892 46.5C17.8795 46.5 17.8671 46.5 17.8547 46.5C17.8423 46.5 17.8299 46.5 17.8175 46.5C17.8051 46.5 17.7927 46.5 17.7804 46.5C17.768 46.5 17.7556 46.5 17.7433 46.5C17.731 46.5 17.7186 46.5 17.7063 46.5C17.694 46.5 17.6817 46.5 17.6694 46.5C17.6572 46.5 17.6449 46.5 17.6326 46.5C17.6204 46.5 17.6081 46.5 17.5959 46.5C17.5837 46.5 17.5715 46.5 17.5593 46.5C17.5471 46.5 17.5349 46.5 17.5227 46.5C17.5105 46.5 17.4984 46.5 17.4862 46.5C17.4741 46.5 17.4619 46.5 17.4498 46.5C17.4377 46.5 17.4256 46.5 17.4135 46.5C17.4014 46.5 17.3893 46.5 17.3773 46.5C17.3652 46.5 17.3532 46.5 17.3411 46.5C17.3291 46.5 17.3171 46.5 17.3051 46.5C17.2931 46.5 17.2811 46.5 17.2691 46.5C17.2571 46.5 17.2452 46.5 17.2332 46.5C17.2213 46.5 17.2093 46.5 17.1974 46.5C17.1855 46.5 17.1736 46.5 17.1617 46.5C17.1498 46.5 17.138 46.5 17.1261 46.5C17.1142 46.5 17.1024 46.5 17.0906 46.5C17.0787 46.5 17.0669 46.5 17.0551 46.5C17.0433 46.5 17.0315 46.5 17.0198 46.5C17.008 46.5 16.9963 46.5 16.9845 46.5C16.9728 46.5 16.961 46.5 16.9493 46.5C16.9376 46.5 16.9259 46.5 16.9143 46.5C16.9026 46.5 16.8909 46.5 16.8793 46.5C16.8676 46.5 16.856 46.5 16.8444 46.5C16.8328 46.5 16.8212 46.5 16.8096 46.5C16.798 46.5 16.7864 46.5 16.7749 46.5C16.7633 46.5 16.7518 46.5 16.7403 46.5C16.7287 46.5 16.7172 46.5 16.7057 46.5C16.6942 46.5 16.6828 46.5 16.6713 46.5C16.6598 46.5 16.6484 46.5 16.637 46.5C16.6255 46.5 16.6141 46.5 16.6027 46.5C16.5913 46.5 16.58 46.5 16.5686 46.5C16.5572 46.5 16.5459 46.5 16.5346 46.5C16.5232 46.5 16.5119 46.5 16.5006 46.5C16.4893 46.5 16.478 46.5 16.4668 46.5C16.4555 46.5 16.4442 46.5 16.433 46.5C16.4218 46.5 16.4106 46.5 16.3994 46.5C16.3882 46.5 16.377 46.5 16.3658 46.5C16.3546 46.5 16.3435 46.5 16.3324 46.5C16.3212 46.5 16.3101 46.5 16.299 46.5C16.2879 46.5 16.2768 46.5 16.2657 46.5C16.2547 46.5 16.2436 46.5 16.2326 46.5C16.2216 46.5 16.2105 46.5 16.1996 46.5C16.1886 46.5 16.1776 46.5 16.1666 46.5C16.1556 46.5 16.1447 46.5 16.1338 46.5C16.1228 46.5 16.1119 46.5 16.101 46.5C16.0901 46.5 16.0792 46.5 16.0684 46.5C16.0575 46.5 16.0467 46.5 16.0359 46.5C16.025 46.5 16.0142 46.5 16.0034 46.5C15.9926 46.5 15.9819 46.5 15.9711 46.5C15.9603 46.5 15.9496 46.5 15.9389 46.5C15.9282 46.5 15.9175 46.5 15.9068 46.5C15.8961 46.5 15.8854 46.5 15.8748 46.5C15.8641 46.5 15.8535 46.5 15.8429 46.5C15.8323 46.5 15.8217 46.5 15.8111 46.5C15.8005 46.5 15.7899 46.5 15.7794 46.5C15.7689 46.5 15.7583 46.5 15.7478 46.5C15.7373 46.5 15.7268 46.5 15.7164 46.5C15.7059 46.5 15.6954 46.5 15.685 46.5C15.6746 46.5 15.6642 46.5 15.6538 46.5C15.6434 46.5 15.633 46.5 15.6226 46.5C15.6123 46.5 15.6019 46.5 15.5916 46.5C15.5813 46.5 15.571 46.5 15.5607 46.5C15.5504 46.5 15.5401 46.5 15.5299 46.5C15.5197 46.5 15.5094 46.5 15.4992 46.5C15.489 46.5 15.4788 46.5 15.4686 46.5C15.4585 46.5 15.4483 46.5 15.4382 46.5C15.428 46.5 15.4179 46.5 15.4078 46.5C15.3977 46.5 15.3877 46.5 15.3776 46.5C15.3675 46.5 15.3575 46.5 15.3475 46.5C15.3375 46.5 15.3275 46.5 15.3175 46.5C15.3075 46.5 15.2975 46.5 15.2876 46.5C15.2777 46.5 15.2677 46.5 15.2578 46.5C15.2479 46.5 15.2381 46.5 15.2282 46.5C15.2183 46.5 15.2085 46.5 15.1987 46.5C15.1888 46.5 15.179 46.5 15.1692 46.5C15.1595 46.5 15.1497 46.5 15.1399 46.5C15.1302 46.5 15.1205 46.5 15.1108 46.5C15.1011 46.5 15.0914 46.5 15.0817 46.5C15.072 46.5 15.0624 46.5 15.0528 46.5C15.0431 46.5 15.0335 46.5 15.024 46.5C15.0144 46.5 15.0048 46.5 14.9953 46.5C14.9857 46.5 14.9762 46.5 14.9667 46.5C14.9572 46.5 14.9477 46.5 14.9382 46.5C14.9288 46.5 14.9193 46.5 14.9099 46.5C14.9005 46.5 14.8911 46.5 14.8817 46.5C14.8723 46.5 14.863 46.5 14.8536 46.5C14.8443 46.5 14.835 46.5 14.8257 46.5C14.8164 46.5 14.8071 46.5 14.7978 46.5C14.7886 46.5 14.7793 46.5 14.7701 46.5C14.7609 46.5 14.7517 46.5 14.7425 46.5C14.7334 46.5 14.7242 46.5 14.7151 46.5C14.7059 46.5 14.6968 46.5 14.6877 46.5C14.6786 46.5 14.6696 46.5 14.6605 46.5C14.6515 46.5 14.6425 46.5 14.6335 46.5C14.6245 46.5 14.6155 46.5 14.6065 46.5C14.5975 46.5 14.5886 46.5 14.5797 46.5C14.5708 46.5 14.5619 46.5 14.553 46.5C14.5441 46.5 14.5353 46.5 14.5264 46.5C14.5176 46.5 14.5088 46.5 14.5 46.5V48.5ZM34 48.5C37.1593 48.5 39.5311 47.7098 41.1332 46.399C42.7471 45.0785 43.5 43.2912 43.5 41.5H41.5C41.5 42.7088 41.0029 43.9215 39.8668 44.851C38.7189 45.7902 36.8407 46.5 34 46.5V48.5ZM43.5 41.5C43.5 40.4786 43.107 39.6391 42.4612 39.0651C41.8338 38.5074 41.0256 38.25 40.25 38.25C39.4744 38.25 38.6662 38.5074 38.0388 39.0651C37.393 39.6391 37 40.4786 37 41.5H39C39 41.0214 39.1695 40.7359 39.3675 40.5599C39.5838 40.3676 39.9006 40.25 40.25 40.25C40.5994 40.25 40.9162 40.3676 41.1325 40.5599C41.3305 40.7359 41.5 41.0214 41.5 41.5H43.5ZM37 41.5C37 43.2866 37.7485 45.0658 39.2867 46.3843C40.8209 47.6992 43.0705 48.5 46 48.5V46.5C43.4295 46.5 41.6791 45.8008 40.5883 44.8657C39.5015 43.9342 39 42.7134 39 41.5H37ZM46 48.5C46.0086 48.5 46.0172 48.5 46.0259 48.5C46.0345 48.5 46.0432 48.5 46.0518 48.5C46.0605 48.5 46.0692 48.5 46.078 48.5C46.0867 48.5 46.0954 48.5 46.1042 48.5C46.113 48.5 46.1218 48.5 46.1306 48.5C46.1394 48.5 46.1483 48.5 46.1572 48.5C46.166 48.5 46.1749 48.5 46.1838 48.5C46.1927 48.5 46.2017 48.5 46.2106 48.5C46.2196 48.5 46.2286 48.5 46.2376 48.5C46.2466 48.5 46.2556 48.5 46.2646 48.5C46.2737 48.5 46.2827 48.5 46.2918 48.5C46.3009 48.5 46.31 48.5 46.3192 48.5C46.3283 48.5 46.3375 48.5 46.3466 48.5C46.3558 48.5 46.365 48.5 46.3742 48.5C46.3834 48.5 46.3927 48.5 46.402 48.5C46.4112 48.5 46.4205 48.5 46.4298 48.5C46.4391 48.5 46.4485 48.5 46.4578 48.5C46.4672 48.5 46.4765 48.5 46.4859 48.5C46.4953 48.5 46.5047 48.5 46.5142 48.5C46.5236 48.5 46.5331 48.5 46.5425 48.5C46.552 48.5 46.5615 48.5 46.571 48.5C46.5806 48.5 46.5901 48.5 46.5997 48.5C46.6092 48.5 46.6188 48.5 46.6284 48.5C46.638 48.5 46.6477 48.5 46.6573 48.5C46.667 48.5 46.6766 48.5 46.6863 48.5C46.696 48.5 46.7057 48.5 46.7154 48.5C46.7252 48.5 46.7349 48.5 46.7447 48.5C46.7545 48.5 46.7643 48.5 46.7741 48.5C46.7839 48.5 46.7937 48.5 46.8036 48.5C46.8134 48.5 46.8233 48.5 46.8332 48.5C46.8431 48.5 46.853 48.5 46.863 48.5C46.8729 48.5 46.8828 48.5 46.8928 48.5C46.9028 48.5 46.9128 48.5 46.9228 48.5C46.9328 48.5 46.9429 48.5 46.9529 48.5C46.963 48.5 46.9731 48.5 46.9832 48.5C46.9933 48.5 47.0034 48.5 47.0135 48.5C47.0236 48.5 47.0338 48.5 47.044 48.5C47.0542 48.5 47.0644 48.5 47.0746 48.5C47.0848 48.5 47.095 48.5 47.1053 48.5C47.1155 48.5 47.1258 48.5 47.1361 48.5C47.1464 48.5 47.1567 48.5 47.167 48.5C47.1774 48.5 47.1877 48.5 47.1981 48.5C47.2085 48.5 47.2189 48.5 47.2293 48.5C47.2397 48.5 47.2501 48.5 47.2606 48.5C47.271 48.5 47.2815 48.5 47.292 48.5C47.3024 48.5 47.313 48.5 47.3235 48.5C47.334 48.5 47.3446 48.5 47.3551 48.5C47.3657 48.5 47.3763 48.5 47.3869 48.5C47.3975 48.5 47.4081 48.5 47.4187 48.5C47.4294 48.5 47.44 48.5 47.4507 48.5C47.4614 48.5 47.4721 48.5 47.4828 48.5C47.4935 48.5 47.5042 48.5 47.515 48.5C47.5257 48.5 47.5365 48.5 47.5473 48.5C47.5581 48.5 47.5689 48.5 47.5797 48.5C47.5905 48.5 47.6013 48.5 47.6122 48.5C47.6231 48.5 47.6339 48.5 47.6448 48.5C47.6557 48.5 47.6666 48.5 47.6776 48.5C47.6885 48.5 47.6995 48.5 47.7104 48.5C47.7214 48.5 47.7324 48.5 47.7434 48.5C47.7544 48.5 47.7654 48.5 47.7765 48.5C47.7875 48.5 47.7985 48.5 47.8096 48.5C47.8207 48.5 47.8318 48.5 47.8429 48.5C47.854 48.5 47.8651 48.5 47.8763 48.5C47.8874 48.5 47.8986 48.5 47.9098 48.5C47.9209 48.5 47.9321 48.5 47.9434 48.5C47.9546 48.5 47.9658 48.5 47.9771 48.5C47.9883 48.5 47.9996 48.5 48.0108 48.5C48.0221 48.5 48.0334 48.5 48.0448 48.5C48.0561 48.5 48.0674 48.5 48.0788 48.5C48.0901 48.5 48.1015 48.5 48.1129 48.5C48.1242 48.5 48.1356 48.5 48.1471 48.5C48.1585 48.5 48.1699 48.5 48.1814 48.5C48.1928 48.5 48.2043 48.5 48.2158 48.5C48.2273 48.5 48.2388 48.5 48.2503 48.5C48.2618 48.5 48.2733 48.5 48.2849 48.5C48.2964 48.5 48.308 48.5 48.3196 48.5C48.3312 48.5 48.3428 48.5 48.3544 48.5C48.366 48.5 48.3776 48.5 48.3893 48.5C48.4009 48.5 48.4126 48.5 48.4243 48.5C48.436 48.5 48.4477 48.5 48.4594 48.5C48.4711 48.5 48.4828 48.5 48.4946 48.5C48.5063 48.5 48.5181 48.5 48.5299 48.5C48.5416 48.5 48.5534 48.5 48.5652 48.5C48.577 48.5 48.5889 48.5 48.6007 48.5C48.6125 48.5 48.6244 48.5 48.6363 48.5C48.6481 48.5 48.66 48.5 48.6719 48.5C48.6838 48.5 48.6958 48.5 48.7077 48.5C48.7196 48.5 48.7316 48.5 48.7435 48.5C48.7555 48.5 48.7675 48.5 48.7795 48.5C48.7915 48.5 48.8035 48.5 48.8155 48.5C48.8275 48.5 48.8396 48.5 48.8516 48.5C48.8637 48.5 48.8757 48.5 48.8878 48.5C48.8999 48.5 48.912 48.5 48.9241 48.5C48.9362 48.5 48.9484 48.5 48.9605 48.5C48.9726 48.5 48.9848 48.5 48.997 48.5C49.0092 48.5 49.0213 48.5 49.0335 48.5C49.0457 48.5 49.058 48.5 49.0702 48.5C49.0824 48.5 49.0947 48.5 49.1069 48.5C49.1192 48.5 49.1315 48.5 49.1438 48.5C49.156 48.5 49.1684 48.5 49.1807 48.5C49.193 48.5 49.2053 48.5 49.2177 48.5C49.23 48.5 49.2424 48.5 49.2547 48.5C49.2671 48.5 49.2795 48.5 49.2919 48.5C49.3043 48.5 49.3167 48.5 49.3292 48.5C49.3416 48.5 49.354 48.5 49.3665 48.5C49.3789 48.5 49.3914 48.5 49.4039 48.5C49.4164 48.5 49.4289 48.5 49.4414 48.5C49.4539 48.5 49.4664 48.5 49.479 48.5C49.4915 48.5 49.5041 48.5 49.5166 48.5C49.5292 48.5 49.5418 48.5 49.5544 48.5C49.567 48.5 49.5796 48.5 49.5922 48.5C49.6048 48.5 49.6175 48.5 49.6301 48.5C49.6427 48.5 49.6554 48.5 49.6681 48.5C49.6807 48.5 49.6934 48.5 49.7061 48.5C49.7188 48.5 49.7315 48.5 49.7443 48.5C49.757 48.5 49.7697 48.5 49.7825 48.5C49.7952 48.5 49.808 48.5 49.8208 48.5C49.8335 48.5 49.8463 48.5 49.8591 48.5C49.8719 48.5 49.8848 48.5 49.8976 48.5C49.9104 48.5 49.9232 48.5 49.9361 48.5C49.9489 48.5 49.9618 48.5 49.9747 48.5C49.9876 48.5 50.0005 48.5 50.0134 48.5C50.0262 48.5 50.0392 48.5 50.0521 48.5C50.065 48.5 50.078 48.5 50.0909 48.5C50.1039 48.5 50.1168 48.5 50.1298 48.5C50.1428 48.5 50.1557 48.5 50.1687 48.5C50.1817 48.5 50.1948 48.5 50.2078 48.5C50.2208 48.5 50.2338 48.5 50.2469 48.5C50.2599 48.5 50.273 48.5 50.286 48.5C50.2991 48.5 50.3122 48.5 50.3253 48.5C50.3384 48.5 50.3515 48.5 50.3646 48.5C50.3777 48.5 50.3908 48.5 50.404 48.5C50.4171 48.5 50.4303 48.5 50.4434 48.5C50.4566 48.5 50.4698 48.5 50.4829 48.5C50.4961 48.5 50.5093 48.5 50.5225 48.5C50.5357 48.5 50.5489 48.5 50.5622 48.5C50.5754 48.5 50.5886 48.5 50.6019 48.5C50.6151 48.5 50.6284 48.5 50.6417 48.5C50.6549 48.5 50.6682 48.5 50.6815 48.5C50.6948 48.5 50.7081 48.5 50.7214 48.5C50.7347 48.5 50.7481 48.5 50.7614 48.5C50.7747 48.5 50.7881 48.5 50.8014 48.5C50.8148 48.5 50.8282 48.5 50.8416 48.5C50.8549 48.5 50.8683 48.5 50.8817 48.5C50.8951 48.5 50.9085 48.5 50.9219 48.5C50.9354 48.5 50.9488 48.5 50.9622 48.5C50.9757 48.5 50.9891 48.5 51.0026 48.5C51.016 48.5 51.0295 48.5 51.043 48.5C51.0565 48.5 51.07 48.5 51.0835 48.5C51.097 48.5 51.1105 48.5 51.124 48.5C51.1375 48.5 51.1511 48.5 51.1646 48.5C51.1781 48.5 51.1917 48.5 51.2052 48.5C51.2188 48.5 51.2324 48.5 51.2459 48.5C51.2595 48.5 51.2731 48.5 51.2867 48.5C51.3003 48.5 51.3139 48.5 51.3275 48.5C51.3411 48.5 51.3548 48.5 51.3684 48.5C51.382 48.5 51.3957 48.5 51.4093 48.5C51.423 48.5 51.4367 48.5 51.4503 48.5C51.464 48.5 51.4777 48.5 51.4914 48.5C51.5051 48.5 51.5188 48.5 51.5325 48.5C51.5462 48.5 51.5599 48.5 51.5736 48.5C51.5873 48.5 51.6011 48.5 51.6148 48.5C51.6286 48.5 51.6423 48.5 51.6561 48.5C51.6698 48.5 51.6836 48.5 51.6974 48.5C51.7112 48.5 51.725 48.5 51.7388 48.5C51.7525 48.5 51.7663 48.5 51.7802 48.5C51.794 48.5 51.8078 48.5 51.8216 48.5C51.8355 48.5 51.8493 48.5 51.8631 48.5C51.877 48.5 51.8908 48.5 51.9047 48.5C51.9186 48.5 51.9324 48.5 51.9463 48.5C51.9602 48.5 51.9741 48.5 51.988 48.5C52.0019 48.5 52.0158 48.5 52.0297 48.5C52.0436 48.5 52.0575 48.5 52.0714 48.5C52.0854 48.5 52.0993 48.5 52.1132 48.5C52.1272 48.5 52.1411 48.5 52.1551 48.5C52.169 48.5 52.183 48.5 52.197 48.5C52.2109 48.5 52.2249 48.5 52.2389 48.5C52.2529 48.5 52.2669 48.5 52.2809 48.5C52.2949 48.5 52.3089 48.5 52.3229 48.5C52.3369 48.5 52.351 48.5 52.365 48.5C52.379 48.5 52.3931 48.5 52.4071 48.5C52.4211 48.5 52.4352 48.5 52.4493 48.5C52.4633 48.5 52.4774 48.5 52.4915 48.5C52.5055 48.5 52.5196 48.5 52.5337 48.5C52.5478 48.5 52.5619 48.5 52.576 48.5C52.5901 48.5 52.6042 48.5 52.6183 48.5C52.6324 48.5 52.6465 48.5 52.6607 48.5C52.6748 48.5 52.6889 48.5 52.7031 48.5C52.7172 48.5 52.7313 48.5 52.7455 48.5C52.7597 48.5 52.7738 48.5 52.788 48.5C52.8021 48.5 52.8163 48.5 52.8305 48.5C52.8447 48.5 52.8589 48.5 52.873 48.5C52.8872 48.5 52.9014 48.5 52.9156 48.5C52.9298 48.5 52.944 48.5 52.9583 48.5C52.9725 48.5 52.9867 48.5 53.0009 48.5C53.0152 48.5 53.0294 48.5 53.0436 48.5C53.0579 48.5 53.0721 48.5 53.0864 48.5C53.1006 48.5 53.1149 48.5 53.1291 48.5C53.1434 48.5 53.1576 48.5 53.1719 48.5C53.1862 48.5 53.2005 48.5 53.2148 48.5C53.229 48.5 53.2433 48.5 53.2576 48.5C53.2719 48.5 53.2862 48.5 53.3005 48.5C53.3148 48.5 53.3291 48.5 53.3434 48.5C53.3578 48.5 53.3721 48.5 53.3864 48.5C53.4007 48.5 53.4151 48.5 53.4294 48.5C53.4437 48.5 53.4581 48.5 53.4724 48.5C53.4868 48.5 53.5011 48.5 53.5155 48.5C53.5298 48.5 53.5442 48.5 53.5586 48.5C53.5729 48.5 53.5873 48.5 53.6017 48.5C53.616 48.5 53.6304 48.5 53.6448 48.5C53.6592 48.5 53.6736 48.5 53.688 48.5C53.7024 48.5 53.7167 48.5 53.7311 48.5C53.7455 48.5 53.76 48.5 53.7744 48.5C53.7888 48.5 53.8032 48.5 53.8176 48.5C53.832 48.5 53.8464 48.5 53.8609 48.5C53.8753 48.5 53.8897 48.5 53.9042 48.5C53.9186 48.5 53.933 48.5 53.9475 48.5C53.9619 48.5 53.9764 48.5 53.9908 48.5C54.0053 48.5 54.0197 48.5 54.0342 48.5C54.0486 48.5 54.0631 48.5 54.0776 48.5C54.092 48.5 54.1065 48.5 54.121 48.5C54.1354 48.5 54.1499 48.5 54.1644 48.5C54.1789 48.5 54.1934 48.5 54.2078 48.5C54.2223 48.5 54.2368 48.5 54.2513 48.5C54.2658 48.5 54.2803 48.5 54.2948 48.5C54.3093 48.5 54.3238 48.5 54.3383 48.5C54.3528 48.5 54.3673 48.5 54.3818 48.5C54.3964 48.5 54.4109 48.5 54.4254 48.5C54.4399 48.5 54.4544 48.5 54.469 48.5C54.4835 48.5 54.498 48.5 54.5125 48.5C54.5271 48.5 54.5416 48.5 54.5561 48.5C54.5707 48.5 54.5852 48.5 54.5998 48.5C54.6143 48.5 54.6288 48.5 54.6434 48.5C54.6579 48.5 54.6725 48.5 54.687 48.5C54.7016 48.5 54.7161 48.5 54.7307 48.5C54.7452 48.5 54.7598 48.5 54.7744 48.5C54.7889 48.5 54.8035 48.5 54.8181 48.5C54.8326 48.5 54.8472 48.5 54.8617 48.5C54.8763 48.5 54.8909 48.5 54.9055 48.5C54.92 48.5 54.9346 48.5 54.9492 48.5C54.9638 48.5 54.9783 48.5 54.9929 48.5C55.0075 48.5 55.0221 48.5 55.0367 48.5C55.0513 48.5 55.0658 48.5 55.0804 48.5C55.095 48.5 55.1096 48.5 55.1242 48.5C55.1388 48.5 55.1534 48.5 55.168 48.5C55.1826 48.5 55.1972 48.5 55.2118 48.5C55.2264 48.5 55.241 48.5 55.2556 48.5C55.2702 48.5 55.2848 48.5 55.2994 48.5C55.314 48.5 55.3286 48.5 55.3432 48.5C55.3578 48.5 55.3724 48.5 55.387 48.5C55.4016 48.5 55.4162 48.5 55.4308 48.5C55.4454 48.5 55.46 48.5 55.4746 48.5C55.4893 48.5 55.5039 48.5 55.5185 48.5C55.5331 48.5 55.5477 48.5 55.5623 48.5C55.5769 48.5 55.5915 48.5 55.6062 48.5C55.6208 48.5 55.6354 48.5 55.65 48.5C55.6646 48.5 55.6792 48.5 55.6938 48.5C55.7085 48.5 55.7231 48.5 55.7377 48.5C55.7523 48.5 55.7669 48.5 55.7816 48.5C55.7962 48.5 55.8108 48.5 55.8254 48.5C55.84 48.5 55.8546 48.5 55.8693 48.5C55.8839 48.5 55.8985 48.5 55.9131 48.5C55.9277 48.5 55.9424 48.5 55.957 48.5C55.9716 48.5 55.9862 48.5 56.0008 48.5C56.0155 48.5 56.0301 48.5 56.0447 48.5C56.0593 48.5 56.0739 48.5 56.0885 48.5C56.1032 48.5 56.1178 48.5 56.1324 48.5C56.147 48.5 56.1616 48.5 56.1762 48.5C56.1909 48.5 56.2055 48.5 56.2201 48.5C56.2347 48.5 56.2493 48.5 56.2639 48.5C56.2785 48.5 56.2932 48.5 56.3078 48.5C56.3224 48.5 56.337 48.5 56.3516 48.5C56.3662 48.5 56.3808 48.5 56.3954 48.5C56.41 48.5 56.4246 48.5 56.4392 48.5C56.4538 48.5 56.4684 48.5 56.4831 48.5C56.4977 48.5 56.5123 48.5 56.5269 48.5C56.5415 48.5 56.5561 48.5 56.5707 48.5C56.5853 48.5 56.5999 48.5 56.6145 48.5C56.629 48.5 56.6436 48.5 56.6582 48.5C56.6728 48.5 56.6874 48.5 56.702 48.5C56.7166 48.5 56.7312 48.5 56.7458 48.5C56.7604 48.5 56.7749 48.5 56.7895 48.5C56.8041 48.5 56.8187 48.5 56.8333 48.5C56.8478 48.5 56.8624 48.5 56.877 48.5C56.8916 48.5 56.9062 48.5 56.9207 48.5C56.9353 48.5 56.9499 48.5 56.9644 48.5C56.979 48.5 56.9936 48.5 57.0081 48.5C57.0227 48.5 57.0372 48.5 57.0518 48.5C57.0664 48.5 57.0809 48.5 57.0955 48.5C57.11 48.5 57.1246 48.5 57.1391 48.5C57.1537 48.5 57.1682 48.5 57.1828 48.5C57.1973 48.5 57.2119 48.5 57.2264 48.5C57.2409 48.5 57.2555 48.5 57.27 48.5C57.2845 48.5 57.2991 48.5 57.3136 48.5C57.3281 48.5 57.3426 48.5 57.3572 48.5C57.3717 48.5 57.3862 48.5 57.4007 48.5C57.4152 48.5 57.4297 48.5 57.4443 48.5C57.4588 48.5 57.4733 48.5 57.4878 48.5C57.5023 48.5 57.5168 48.5 57.5313 48.5C57.5458 48.5 57.5603 48.5 57.5748 48.5C57.5893 48.5 57.6037 48.5 57.6182 48.5C57.6327 48.5 57.6472 48.5 57.6617 48.5C57.6761 48.5 57.6906 48.5 57.7051 48.5C57.7196 48.5 57.734 48.5 57.7485 48.5C57.7629 48.5 57.7774 48.5 57.7919 48.5C57.8063 48.5 57.8208 48.5 57.8352 48.5C57.8497 48.5 57.8641 48.5 57.8785 48.5C57.893 48.5 57.9074 48.5 57.9218 48.5C57.9363 48.5 57.9507 48.5 57.9651 48.5C57.9795 48.5 57.994 48.5 58.0084 48.5C58.0228 48.5 58.0372 48.5 58.0516 48.5C58.066 48.5 58.0804 48.5 58.0948 48.5C58.1092 48.5 58.1236 48.5 58.138 48.5C58.1524 48.5 58.1668 48.5 58.1811 48.5C58.1955 48.5 58.2099 48.5 58.2243 48.5C58.2386 48.5 58.253 48.5 58.2674 48.5C58.2817 48.5 58.2961 48.5 58.3104 48.5C58.3248 48.5 58.3391 48.5 58.3535 48.5C58.3678 48.5 58.3821 48.5 58.3965 48.5C58.4108 48.5 58.4251 48.5 58.4395 48.5C58.4538 48.5 58.4681 48.5 58.4824 48.5C58.4967 48.5 58.511 48.5 58.5253 48.5C58.5396 48.5 58.5539 48.5 58.5682 48.5C58.5825 48.5 58.5968 48.5 58.6111 48.5C58.6253 48.5 58.6396 48.5 58.6539 48.5C58.6681 48.5 58.6824 48.5 58.6967 48.5C58.7109 48.5 58.7252 48.5 58.7394 48.5C58.7537 48.5 58.7679 48.5 58.7821 48.5C58.7964 48.5 58.8106 48.5 58.8248 48.5C58.839 48.5 58.8532 48.5 58.8675 48.5C58.8817 48.5 58.8959 48.5 58.9101 48.5C58.9243 48.5 58.9385 48.5 58.9526 48.5C58.9668 48.5 58.981 48.5 58.9952 48.5C59.0094 48.5 59.0235 48.5 59.0377 48.5C59.0518 48.5 59.066 48.5 59.0801 48.5C59.0943 48.5 59.1084 48.5 59.1226 48.5C59.1367 48.5 59.1508 48.5 59.1649 48.5C59.1791 48.5 59.1932 48.5 59.2073 48.5C59.2214 48.5 59.2355 48.5 59.2496 48.5C59.2637 48.5 59.2778 48.5 59.2919 48.5C59.3059 48.5 59.32 48.5 59.3341 48.5C59.3482 48.5 59.3622 48.5 59.3763 48.5C59.3903 48.5 59.4044 48.5 59.4184 48.5C59.4324 48.5 59.4465 48.5 59.4605 48.5C59.4745 48.5 59.4885 48.5 59.5025 48.5C59.5166 48.5 59.5306 48.5 59.5446 48.5C59.5586 48.5 59.5725 48.5 59.5865 48.5C59.6005 48.5 59.6145 48.5 59.6284 48.5C59.6424 48.5 59.6564 48.5 59.6703 48.5C59.6843 48.5 59.6982 48.5 59.7121 48.5C59.7261 48.5 59.74 48.5 59.7539 48.5C59.7678 48.5 59.7817 48.5 59.7957 48.5C59.8096 48.5 59.8235 48.5 59.8373 48.5C59.8512 48.5 59.8651 48.5 59.879 48.5C59.8928 48.5 59.9067 48.5 59.9206 48.5C59.9344 48.5 59.9483 48.5 59.9621 48.5C59.9759 48.5 59.9898 48.5 60.0036 48.5C60.0174 48.5 60.0312 48.5 60.045 48.5C60.0588 48.5 60.0726 48.5 60.0864 48.5C60.1002 48.5 60.114 48.5 60.1278 48.5C60.1415 48.5 60.1553 48.5 60.1691 48.5C60.1828 48.5 60.1965 48.5 60.2103 48.5C60.224 48.5 60.2377 48.5 60.2515 48.5C60.2652 48.5 60.2789 48.5 60.2926 48.5C60.3063 48.5 60.32 48.5 60.3337 48.5C60.3474 48.5 60.361 48.5 60.3747 48.5C60.3884 48.5 60.402 48.5 60.4157 48.5C60.4293 48.5 60.4429 48.5 60.4566 48.5C60.4702 48.5 60.4838 48.5 60.4974 48.5C60.511 48.5 60.5246 48.5 60.5382 48.5C60.5518 48.5 60.5654 48.5 60.5789 48.5C60.5925 48.5 60.6061 48.5 60.6196 48.5C60.6332 48.5 60.6467 48.5 60.6603 48.5C60.6738 48.5 60.6873 48.5 60.7008 48.5C60.7143 48.5 60.7278 48.5 60.7413 48.5C60.7548 48.5 60.7683 48.5 60.7818 48.5C60.7952 48.5 60.8087 48.5 60.8222 48.5C60.8356 48.5 60.849 48.5 60.8625 48.5C60.8759 48.5 60.8893 48.5 60.9027 48.5C60.9162 48.5 60.9296 48.5 60.9429 48.5C60.9563 48.5 60.9697 48.5 60.9831 48.5C60.9965 48.5 61.0098 48.5 61.0232 48.5C61.0365 48.5 61.0499 48.5 61.0632 48.5C61.0765 48.5 61.0898 48.5 61.1031 48.5C61.1164 48.5 61.1297 48.5 61.143 48.5C61.1563 48.5 61.1696 48.5 61.1828 48.5C61.1961 48.5 61.2093 48.5 61.2226 48.5C61.2358 48.5 61.2491 48.5 61.2623 48.5C61.2755 48.5 61.2887 48.5 61.3019 48.5C61.3151 48.5 61.3283 48.5 61.3414 48.5C61.3546 48.5 61.3678 48.5 61.3809 48.5C61.3941 48.5 61.4072 48.5 61.4204 48.5C61.4335 48.5 61.4466 48.5 61.4597 48.5C61.4728 48.5 61.4859 48.5 61.499 48.5C61.5121 48.5 61.5251 48.5 61.5382 48.5C61.5513 48.5 61.5643 48.5 61.5773 48.5C61.5904 48.5 61.6034 48.5 61.6164 48.5C61.6294 48.5 61.6424 48.5 61.6554 48.5C61.6684 48.5 61.6814 48.5 61.6943 48.5C61.7073 48.5 61.7202 48.5 61.7332 48.5C61.7461 48.5 61.7591 48.5 61.772 48.5C61.7849 48.5 61.7978 48.5 61.8107 48.5C61.8236 48.5 61.8364 48.5 61.8493 48.5C61.8622 48.5 61.875 48.5 61.8879 48.5C61.9007 48.5 61.9135 48.5 61.9264 48.5C61.9392 48.5 61.952 48.5 61.9648 48.5C61.9776 48.5 61.9903 48.5 62.0031 48.5C62.0159 48.5 62.0286 48.5 62.0414 48.5C62.0541 48.5 62.0668 48.5 62.0795 48.5C62.0922 48.5 62.1049 48.5 62.1176 48.5C62.1303 48.5 62.143 48.5 62.1557 48.5C62.1683 48.5 62.181 48.5 62.1936 48.5C62.2062 48.5 62.2189 48.5 62.2315 48.5C62.2441 48.5 62.2567 48.5 62.2692 48.5C62.2818 48.5 62.2944 48.5 62.307 48.5C62.3195 48.5 62.3321 48.5 62.3446 48.5C62.3571 48.5 62.3696 48.5 62.3821 48.5C62.3946 48.5 62.4071 48.5 62.4196 48.5C62.4321 48.5 62.4445 48.5 62.457 48.5C62.4694 48.5 62.4818 48.5 62.4943 48.5C62.5067 48.5 62.5191 48.5 62.5315 48.5C62.5439 48.5 62.5562 48.5 62.5686 48.5C62.581 48.5 62.5933 48.5 62.6056 48.5C62.618 48.5 62.6303 48.5 62.6426 48.5C62.6549 48.5 62.6672 48.5 62.6795 48.5C62.6918 48.5 62.704 48.5 62.7163 48.5C62.7285 48.5 62.7407 48.5 62.753 48.5C62.7652 48.5 62.7774 48.5 62.7896 48.5C62.8018 48.5 62.8139 48.5 62.8261 48.5C62.8383 48.5 62.8504 48.5 62.8625 48.5C62.8747 48.5 62.8868 48.5 62.8989 48.5C62.911 48.5 62.9231 48.5 62.9352 48.5C62.9472 48.5 62.9593 48.5 62.9713 48.5C62.9834 48.5 62.9954 48.5 63.0074 48.5C63.0194 48.5 63.0314 48.5 63.0434 48.5C63.0554 48.5 63.0673 48.5 63.0793 48.5C63.0912 48.5 63.1032 48.5 63.1151 48.5C63.127 48.5 63.1389 48.5 63.1508 48.5C63.1627 48.5 63.1746 48.5 63.1864 48.5C63.1983 48.5 63.2101 48.5 63.222 48.5C63.2338 48.5 63.2456 48.5 63.2574 48.5C63.2692 48.5 63.281 48.5 63.2927 48.5C63.3045 48.5 63.3162 48.5 63.328 48.5C63.3397 48.5 63.3514 48.5 63.3631 48.5C63.3748 48.5 63.3865 48.5 63.3982 48.5C63.4098 48.5 63.4215 48.5 63.4331 48.5C63.4448 48.5 63.4564 48.5 63.468 48.5C63.4796 48.5 63.4912 48.5 63.5027 48.5C63.5143 48.5 63.5259 48.5 63.5374 48.5C63.5489 48.5 63.5605 48.5 63.572 48.5C63.5835 48.5 63.595 48.5 63.6064 48.5C63.6179 48.5 63.6293 48.5 63.6408 48.5C63.6522 48.5 63.6636 48.5 63.675 48.5C63.6865 48.5 63.6978 48.5 63.7092 48.5C63.7206 48.5 63.7319 48.5 63.7433 48.5C63.7546 48.5 63.7659 48.5 63.7772 48.5C63.7885 48.5 63.7998 48.5 63.8111 48.5C63.8224 48.5 63.8336 48.5 63.8448 48.5C63.8561 48.5 63.8673 48.5 63.8785 48.5C63.8897 48.5 63.9009 48.5 63.912 48.5C63.9232 48.5 63.9343 48.5 63.9455 48.5C63.9566 48.5 63.9677 48.5 63.9788 48.5C63.9899 48.5 64.001 48.5 64.012 48.5C64.0231 48.5 64.0341 48.5 64.0452 48.5C64.0562 48.5 64.0672 48.5 64.0782 48.5C64.0892 48.5 64.1001 48.5 64.1111 48.5C64.1221 48.5 64.133 48.5 64.1439 48.5C64.1548 48.5 64.1657 48.5 64.1766 48.5C64.1875 48.5 64.1983 48.5 64.2092 48.5C64.22 48.5 64.2309 48.5 64.2417 48.5C64.2525 48.5 64.2633 48.5 64.274 48.5C64.2848 48.5 64.2956 48.5 64.3063 48.5C64.317 48.5 64.3277 48.5 64.3384 48.5C64.3491 48.5 64.3598 48.5 64.3705 48.5C64.3811 48.5 64.3918 48.5 64.4024 48.5C64.413 48.5 64.4236 48.5 64.4342 48.5C64.4448 48.5 64.4553 48.5 64.4659 48.5C64.4764 48.5 64.487 48.5 64.4975 48.5C64.508 48.5 64.5185 48.5 64.5289 48.5C64.5394 48.5 64.5499 48.5 64.5603 48.5C64.5707 48.5 64.5812 48.5 64.5915 48.5C64.6019 48.5 64.6123 48.5 64.6227 48.5C64.633 48.5 64.6434 48.5 64.6537 48.5C64.664 48.5 64.6743 48.5 64.6846 48.5C64.6948 48.5 64.7051 48.5 64.7153 48.5C64.7256 48.5 64.7358 48.5 64.746 48.5C64.7562 48.5 64.7664 48.5 64.7765 48.5C64.7867 48.5 64.7968 48.5 64.807 48.5C64.8171 48.5 64.8272 48.5 64.8373 48.5C64.8473 48.5 64.8574 48.5 64.8674 48.5C64.8775 48.5 64.8875 48.5 64.8975 48.5C64.9075 48.5 64.9175 48.5 64.9274 48.5C64.9374 48.5 64.9473 48.5 64.9572 48.5C64.9672 48.5 64.9771 48.5 64.9869 48.5C64.9968 48.5 65.0067 48.5 65.0165 48.5C65.0264 48.5 65.0362 48.5 65.046 48.5C65.0558 48.5 65.0655 48.5 65.0753 48.5C65.085 48.5 65.0948 48.5 65.1045 48.5C65.1142 48.5 65.1239 48.5 65.1336 48.5C65.1432 48.5 65.1529 48.5 65.1625 48.5C65.1722 48.5 65.1818 48.5 65.1913 48.5C65.2009 48.5 65.2105 48.5 65.2201 48.5C65.2296 48.5 65.2391 48.5 65.2486 48.5C65.2581 48.5 65.2676 48.5 65.2771 48.5C65.2865 48.5 65.296 48.5 65.3054 48.5C65.3148 48.5 65.3242 48.5 65.3336 48.5C65.343 48.5 65.3523 48.5 65.3616 48.5C65.371 48.5 65.3803 48.5 65.3896 48.5C65.3989 48.5 65.4081 48.5 65.4174 48.5C65.4266 48.5 65.4358 48.5 65.445 48.5C65.4543 48.5 65.4634 48.5 65.4726 48.5C65.4818 48.5 65.4909 48.5 65.5 48.5V46.5C65.4909 46.5 65.4818 46.5 65.4726 46.5C65.4634 46.5 65.4543 46.5 65.445 46.5C65.4358 46.5 65.4266 46.5 65.4174 46.5C65.4081 46.5 65.3989 46.5 65.3896 46.5C65.3803 46.5 65.371 46.5 65.3616 46.5C65.3523 46.5 65.343 46.5 65.3336 46.5C65.3242 46.5 65.3148 46.5 65.3054 46.5C65.296 46.5 65.2865 46.5 65.2771 46.5C65.2676 46.5 65.2581 46.5 65.2486 46.5C65.2391 46.5 65.2296 46.5 65.2201 46.5C65.2105 46.5 65.2009 46.5 65.1913 46.5C65.1818 46.5 65.1722 46.5 65.1625 46.5C65.1529 46.5 65.1432 46.5 65.1336 46.5C65.1239 46.5 65.1142 46.5 65.1045 46.5C65.0948 46.5 65.085 46.5 65.0753 46.5C65.0655 46.5 65.0558 46.5 65.046 46.5C65.0362 46.5 65.0264 46.5 65.0165 46.5C65.0067 46.5 64.9968 46.5 64.9869 46.5C64.9771 46.5 64.9672 46.5 64.9572 46.5C64.9473 46.5 64.9374 46.5 64.9274 46.5C64.9175 46.5 64.9075 46.5 64.8975 46.5C64.8875 46.5 64.8775 46.5 64.8674 46.5C64.8574 46.5 64.8473 46.5 64.8373 46.5C64.8272 46.5 64.8171 46.5 64.807 46.5C64.7968 46.5 64.7867 46.5 64.7765 46.5C64.7664 46.5 64.7562 46.5 64.746 46.5C64.7358 46.5 64.7256 46.5 64.7153 46.5C64.7051 46.5 64.6948 46.5 64.6846 46.5C64.6743 46.5 64.664 46.5 64.6537 46.5C64.6434 46.5 64.633 46.5 64.6227 46.5C64.6123 46.5 64.6019 46.5 64.5915 46.5C64.5812 46.5 64.5707 46.5 64.5603 46.5C64.5499 46.5 64.5394 46.5 64.5289 46.5C64.5185 46.5 64.508 46.5 64.4975 46.5C64.487 46.5 64.4764 46.5 64.4659 46.5C64.4553 46.5 64.4448 46.5 64.4342 46.5C64.4236 46.5 64.413 46.5 64.4024 46.5C64.3918 46.5 64.3811 46.5 64.3705 46.5C64.3598 46.5 64.3491 46.5 64.3384 46.5C64.3277 46.5 64.317 46.5 64.3063 46.5C64.2956 46.5 64.2848 46.5 64.274 46.5C64.2633 46.5 64.2525 46.5 64.2417 46.5C64.2309 46.5 64.22 46.5 64.2092 46.5C64.1983 46.5 64.1875 46.5 64.1766 46.5C64.1657 46.5 64.1548 46.5 64.1439 46.5C64.133 46.5 64.1221 46.5 64.1111 46.5C64.1001 46.5 64.0892 46.5 64.0782 46.5C64.0672 46.5 64.0562 46.5 64.0452 46.5C64.0341 46.5 64.0231 46.5 64.012 46.5C64.001 46.5 63.9899 46.5 63.9788 46.5C63.9677 46.5 63.9566 46.5 63.9455 46.5C63.9343 46.5 63.9232 46.5 63.912 46.5C63.9009 46.5 63.8897 46.5 63.8785 46.5C63.8673 46.5 63.8561 46.5 63.8448 46.5C63.8336 46.5 63.8224 46.5 63.8111 46.5C63.7998 46.5 63.7885 46.5 63.7772 46.5C63.7659 46.5 63.7546 46.5 63.7433 46.5C63.7319 46.5 63.7206 46.5 63.7092 46.5C63.6978 46.5 63.6865 46.5 63.675 46.5C63.6636 46.5 63.6522 46.5 63.6408 46.5C63.6293 46.5 63.6179 46.5 63.6064 46.5C63.595 46.5 63.5835 46.5 63.572 46.5C63.5605 46.5 63.5489 46.5 63.5374 46.5C63.5259 46.5 63.5143 46.5 63.5027 46.5C63.4912 46.5 63.4796 46.5 63.468 46.5C63.4564 46.5 63.4448 46.5 63.4331 46.5C63.4215 46.5 63.4098 46.5 63.3982 46.5C63.3865 46.5 63.3748 46.5 63.3631 46.5C63.3514 46.5 63.3397 46.5 63.328 46.5C63.3162 46.5 63.3045 46.5 63.2927 46.5C63.281 46.5 63.2692 46.5 63.2574 46.5C63.2456 46.5 63.2338 46.5 63.222 46.5C63.2101 46.5 63.1983 46.5 63.1864 46.5C63.1746 46.5 63.1627 46.5 63.1508 46.5C63.1389 46.5 63.127 46.5 63.1151 46.5C63.1032 46.5 63.0912 46.5 63.0793 46.5C63.0673 46.5 63.0554 46.5 63.0434 46.5C63.0314 46.5 63.0194 46.5 63.0074 46.5C62.9954 46.5 62.9834 46.5 62.9713 46.5C62.9593 46.5 62.9472 46.5 62.9352 46.5C62.9231 46.5 62.911 46.5 62.8989 46.5C62.8868 46.5 62.8747 46.5 62.8625 46.5C62.8504 46.5 62.8383 46.5 62.8261 46.5C62.8139 46.5 62.8018 46.5 62.7896 46.5C62.7774 46.5 62.7652 46.5 62.753 46.5C62.7407 46.5 62.7285 46.5 62.7163 46.5C62.704 46.5 62.6918 46.5 62.6795 46.5C62.6672 46.5 62.6549 46.5 62.6426 46.5C62.6303 46.5 62.618 46.5 62.6056 46.5C62.5933 46.5 62.581 46.5 62.5686 46.5C62.5562 46.5 62.5439 46.5 62.5315 46.5C62.5191 46.5 62.5067 46.5 62.4943 46.5C62.4818 46.5 62.4694 46.5 62.457 46.5C62.4445 46.5 62.4321 46.5 62.4196 46.5C62.4071 46.5 62.3946 46.5 62.3821 46.5C62.3696 46.5 62.3571 46.5 62.3446 46.5C62.3321 46.5 62.3195 46.5 62.307 46.5C62.2944 46.5 62.2818 46.5 62.2692 46.5C62.2567 46.5 62.2441 46.5 62.2315 46.5C62.2189 46.5 62.2062 46.5 62.1936 46.5C62.181 46.5 62.1683 46.5 62.1557 46.5C62.143 46.5 62.1303 46.5 62.1176 46.5C62.1049 46.5 62.0922 46.5 62.0795 46.5C62.0668 46.5 62.0541 46.5 62.0414 46.5C62.0286 46.5 62.0159 46.5 62.0031 46.5C61.9903 46.5 61.9776 46.5 61.9648 46.5C61.952 46.5 61.9392 46.5 61.9264 46.5C61.9135 46.5 61.9007 46.5 61.8879 46.5C61.875 46.5 61.8622 46.5 61.8493 46.5C61.8364 46.5 61.8236 46.5 61.8107 46.5C61.7978 46.5 61.7849 46.5 61.772 46.5C61.7591 46.5 61.7461 46.5 61.7332 46.5C61.7202 46.5 61.7073 46.5 61.6943 46.5C61.6814 46.5 61.6684 46.5 61.6554 46.5C61.6424 46.5 61.6294 46.5 61.6164 46.5C61.6034 46.5 61.5904 46.5 61.5773 46.5C61.5643 46.5 61.5513 46.5 61.5382 46.5C61.5251 46.5 61.5121 46.5 61.499 46.5C61.4859 46.5 61.4728 46.5 61.4597 46.5C61.4466 46.5 61.4335 46.5 61.4204 46.5C61.4072 46.5 61.3941 46.5 61.3809 46.5C61.3678 46.5 61.3546 46.5 61.3414 46.5C61.3283 46.5 61.3151 46.5 61.3019 46.5C61.2887 46.5 61.2755 46.5 61.2623 46.5C61.2491 46.5 61.2358 46.5 61.2226 46.5C61.2093 46.5 61.1961 46.5 61.1828 46.5C61.1696 46.5 61.1563 46.5 61.143 46.5C61.1297 46.5 61.1164 46.5 61.1031 46.5C61.0898 46.5 61.0765 46.5 61.0632 46.5C61.0499 46.5 61.0365 46.5 61.0232 46.5C61.0098 46.5 60.9965 46.5 60.9831 46.5C60.9697 46.5 60.9563 46.5 60.9429 46.5C60.9296 46.5 60.9162 46.5 60.9027 46.5C60.8893 46.5 60.8759 46.5 60.8625 46.5C60.849 46.5 60.8356 46.5 60.8222 46.5C60.8087 46.5 60.7952 46.5 60.7818 46.5C60.7683 46.5 60.7548 46.5 60.7413 46.5C60.7278 46.5 60.7143 46.5 60.7008 46.5C60.6873 46.5 60.6738 46.5 60.6603 46.5C60.6467 46.5 60.6332 46.5 60.6196 46.5C60.6061 46.5 60.5925 46.5 60.5789 46.5C60.5654 46.5 60.5518 46.5 60.5382 46.5C60.5246 46.5 60.511 46.5 60.4974 46.5C60.4838 46.5 60.4702 46.5 60.4566 46.5C60.4429 46.5 60.4293 46.5 60.4157 46.5C60.402 46.5 60.3884 46.5 60.3747 46.5C60.361 46.5 60.3474 46.5 60.3337 46.5C60.32 46.5 60.3063 46.5 60.2926 46.5C60.2789 46.5 60.2652 46.5 60.2515 46.5C60.2377 46.5 60.224 46.5 60.2103 46.5C60.1965 46.5 60.1828 46.5 60.1691 46.5C60.1553 46.5 60.1415 46.5 60.1278 46.5C60.114 46.5 60.1002 46.5 60.0864 46.5C60.0726 46.5 60.0588 46.5 60.045 46.5C60.0312 46.5 60.0174 46.5 60.0036 46.5C59.9898 46.5 59.9759 46.5 59.9621 46.5C59.9483 46.5 59.9344 46.5 59.9206 46.5C59.9067 46.5 59.8928 46.5 59.879 46.5C59.8651 46.5 59.8512 46.5 59.8373 46.5C59.8235 46.5 59.8096 46.5 59.7957 46.5C59.7817 46.5 59.7678 46.5 59.7539 46.5C59.74 46.5 59.7261 46.5 59.7121 46.5C59.6982 46.5 59.6843 46.5 59.6703 46.5C59.6564 46.5 59.6424 46.5 59.6284 46.5C59.6145 46.5 59.6005 46.5 59.5865 46.5C59.5725 46.5 59.5586 46.5 59.5446 46.5C59.5306 46.5 59.5166 46.5 59.5025 46.5C59.4885 46.5 59.4745 46.5 59.4605 46.5C59.4465 46.5 59.4324 46.5 59.4184 46.5C59.4044 46.5 59.3903 46.5 59.3763 46.5C59.3622 46.5 59.3482 46.5 59.3341 46.5C59.32 46.5 59.3059 46.5 59.2919 46.5C59.2778 46.5 59.2637 46.5 59.2496 46.5C59.2355 46.5 59.2214 46.5 59.2073 46.5C59.1932 46.5 59.1791 46.5 59.1649 46.5C59.1508 46.5 59.1367 46.5 59.1226 46.5C59.1084 46.5 59.0943 46.5 59.0801 46.5C59.066 46.5 59.0518 46.5 59.0377 46.5C59.0235 46.5 59.0094 46.5 58.9952 46.5C58.981 46.5 58.9668 46.5 58.9526 46.5C58.9385 46.5 58.9243 46.5 58.9101 46.5C58.8959 46.5 58.8817 46.5 58.8675 46.5C58.8532 46.5 58.839 46.5 58.8248 46.5C58.8106 46.5 58.7964 46.5 58.7821 46.5C58.7679 46.5 58.7537 46.5 58.7394 46.5C58.7252 46.5 58.7109 46.5 58.6967 46.5C58.6824 46.5 58.6681 46.5 58.6539 46.5C58.6396 46.5 58.6253 46.5 58.6111 46.5C58.5968 46.5 58.5825 46.5 58.5682 46.5C58.5539 46.5 58.5396 46.5 58.5253 46.5C58.511 46.5 58.4967 46.5 58.4824 46.5C58.4681 46.5 58.4538 46.5 58.4395 46.5C58.4251 46.5 58.4108 46.5 58.3965 46.5C58.3821 46.5 58.3678 46.5 58.3535 46.5C58.3391 46.5 58.3248 46.5 58.3104 46.5C58.2961 46.5 58.2817 46.5 58.2674 46.5C58.253 46.5 58.2386 46.5 58.2243 46.5C58.2099 46.5 58.1955 46.5 58.1811 46.5C58.1668 46.5 58.1524 46.5 58.138 46.5C58.1236 46.5 58.1092 46.5 58.0948 46.5C58.0804 46.5 58.066 46.5 58.0516 46.5C58.0372 46.5 58.0228 46.5 58.0084 46.5C57.994 46.5 57.9795 46.5 57.9651 46.5C57.9507 46.5 57.9363 46.5 57.9218 46.5C57.9074 46.5 57.893 46.5 57.8785 46.5C57.8641 46.5 57.8497 46.5 57.8352 46.5C57.8208 46.5 57.8063 46.5 57.7919 46.5C57.7774 46.5 57.7629 46.5 57.7485 46.5C57.734 46.5 57.7196 46.5 57.7051 46.5C57.6906 46.5 57.6761 46.5 57.6617 46.5C57.6472 46.5 57.6327 46.5 57.6182 46.5C57.6037 46.5 57.5893 46.5 57.5748 46.5C57.5603 46.5 57.5458 46.5 57.5313 46.5C57.5168 46.5 57.5023 46.5 57.4878 46.5C57.4733 46.5 57.4588 46.5 57.4443 46.5C57.4297 46.5 57.4152 46.5 57.4007 46.5C57.3862 46.5 57.3717 46.5 57.3572 46.5C57.3426 46.5 57.3281 46.5 57.3136 46.5C57.2991 46.5 57.2845 46.5 57.27 46.5C57.2555 46.5 57.2409 46.5 57.2264 46.5C57.2119 46.5 57.1973 46.5 57.1828 46.5C57.1682 46.5 57.1537 46.5 57.1391 46.5C57.1246 46.5 57.11 46.5 57.0955 46.5C57.0809 46.5 57.0664 46.5 57.0518 46.5C57.0372 46.5 57.0227 46.5 57.0081 46.5C56.9936 46.5 56.979 46.5 56.9644 46.5C56.9499 46.5 56.9353 46.5 56.9207 46.5C56.9062 46.5 56.8916 46.5 56.877 46.5C56.8624 46.5 56.8478 46.5 56.8333 46.5C56.8187 46.5 56.8041 46.5 56.7895 46.5C56.7749 46.5 56.7604 46.5 56.7458 46.5C56.7312 46.5 56.7166 46.5 56.702 46.5C56.6874 46.5 56.6728 46.5 56.6582 46.5C56.6436 46.5 56.629 46.5 56.6145 46.5C56.5999 46.5 56.5853 46.5 56.5707 46.5C56.5561 46.5 56.5415 46.5 56.5269 46.5C56.5123 46.5 56.4977 46.5 56.4831 46.5C56.4684 46.5 56.4538 46.5 56.4392 46.5C56.4246 46.5 56.41 46.5 56.3954 46.5C56.3808 46.5 56.3662 46.5 56.3516 46.5C56.337 46.5 56.3224 46.5 56.3078 46.5C56.2932 46.5 56.2785 46.5 56.2639 46.5C56.2493 46.5 56.2347 46.5 56.2201 46.5C56.2055 46.5 56.1909 46.5 56.1762 46.5C56.1616 46.5 56.147 46.5 56.1324 46.5C56.1178 46.5 56.1032 46.5 56.0885 46.5C56.0739 46.5 56.0593 46.5 56.0447 46.5C56.0301 46.5 56.0155 46.5 56.0008 46.5C55.9862 46.5 55.9716 46.5 55.957 46.5C55.9424 46.5 55.9277 46.5 55.9131 46.5C55.8985 46.5 55.8839 46.5 55.8693 46.5C55.8546 46.5 55.84 46.5 55.8254 46.5C55.8108 46.5 55.7962 46.5 55.7816 46.5C55.7669 46.5 55.7523 46.5 55.7377 46.5C55.7231 46.5 55.7085 46.5 55.6938 46.5C55.6792 46.5 55.6646 46.5 55.65 46.5C55.6354 46.5 55.6208 46.5 55.6062 46.5C55.5915 46.5 55.5769 46.5 55.5623 46.5C55.5477 46.5 55.5331 46.5 55.5185 46.5C55.5039 46.5 55.4893 46.5 55.4746 46.5C55.46 46.5 55.4454 46.5 55.4308 46.5C55.4162 46.5 55.4016 46.5 55.387 46.5C55.3724 46.5 55.3578 46.5 55.3432 46.5C55.3286 46.5 55.314 46.5 55.2994 46.5C55.2848 46.5 55.2702 46.5 55.2556 46.5C55.241 46.5 55.2264 46.5 55.2118 46.5C55.1972 46.5 55.1826 46.5 55.168 46.5C55.1534 46.5 55.1388 46.5 55.1242 46.5C55.1096 46.5 55.095 46.5 55.0804 46.5C55.0658 46.5 55.0513 46.5 55.0367 46.5C55.0221 46.5 55.0075 46.5 54.9929 46.5C54.9783 46.5 54.9638 46.5 54.9492 46.5C54.9346 46.5 54.92 46.5 54.9055 46.5C54.8909 46.5 54.8763 46.5 54.8617 46.5C54.8472 46.5 54.8326 46.5 54.8181 46.5C54.8035 46.5 54.7889 46.5 54.7744 46.5C54.7598 46.5 54.7452 46.5 54.7307 46.5C54.7161 46.5 54.7016 46.5 54.687 46.5C54.6725 46.5 54.6579 46.5 54.6434 46.5C54.6288 46.5 54.6143 46.5 54.5998 46.5C54.5852 46.5 54.5707 46.5 54.5561 46.5C54.5416 46.5 54.5271 46.5 54.5125 46.5C54.498 46.5 54.4835 46.5 54.469 46.5C54.4544 46.5 54.4399 46.5 54.4254 46.5C54.4109 46.5 54.3964 46.5 54.3818 46.5C54.3673 46.5 54.3528 46.5 54.3383 46.5C54.3238 46.5 54.3093 46.5 54.2948 46.5C54.2803 46.5 54.2658 46.5 54.2513 46.5C54.2368 46.5 54.2223 46.5 54.2078 46.5C54.1934 46.5 54.1789 46.5 54.1644 46.5C54.1499 46.5 54.1354 46.5 54.121 46.5C54.1065 46.5 54.092 46.5 54.0776 46.5C54.0631 46.5 54.0486 46.5 54.0342 46.5C54.0197 46.5 54.0053 46.5 53.9908 46.5C53.9764 46.5 53.9619 46.5 53.9475 46.5C53.933 46.5 53.9186 46.5 53.9042 46.5C53.8897 46.5 53.8753 46.5 53.8609 46.5C53.8464 46.5 53.832 46.5 53.8176 46.5C53.8032 46.5 53.7888 46.5 53.7744 46.5C53.76 46.5 53.7455 46.5 53.7311 46.5C53.7167 46.5 53.7024 46.5 53.688 46.5C53.6736 46.5 53.6592 46.5 53.6448 46.5C53.6304 46.5 53.616 46.5 53.6017 46.5C53.5873 46.5 53.5729 46.5 53.5586 46.5C53.5442 46.5 53.5298 46.5 53.5155 46.5C53.5011 46.5 53.4868 46.5 53.4724 46.5C53.4581 46.5 53.4437 46.5 53.4294 46.5C53.4151 46.5 53.4007 46.5 53.3864 46.5C53.3721 46.5 53.3578 46.5 53.3434 46.5C53.3291 46.5 53.3148 46.5 53.3005 46.5C53.2862 46.5 53.2719 46.5 53.2576 46.5C53.2433 46.5 53.229 46.5 53.2148 46.5C53.2005 46.5 53.1862 46.5 53.1719 46.5C53.1576 46.5 53.1434 46.5 53.1291 46.5C53.1149 46.5 53.1006 46.5 53.0864 46.5C53.0721 46.5 53.0579 46.5 53.0436 46.5C53.0294 46.5 53.0152 46.5 53.0009 46.5C52.9867 46.5 52.9725 46.5 52.9583 46.5C52.944 46.5 52.9298 46.5 52.9156 46.5C52.9014 46.5 52.8872 46.5 52.873 46.5C52.8589 46.5 52.8447 46.5 52.8305 46.5C52.8163 46.5 52.8021 46.5 52.788 46.5C52.7738 46.5 52.7597 46.5 52.7455 46.5C52.7313 46.5 52.7172 46.5 52.7031 46.5C52.6889 46.5 52.6748 46.5 52.6607 46.5C52.6465 46.5 52.6324 46.5 52.6183 46.5C52.6042 46.5 52.5901 46.5 52.576 46.5C52.5619 46.5 52.5478 46.5 52.5337 46.5C52.5196 46.5 52.5055 46.5 52.4915 46.5C52.4774 46.5 52.4633 46.5 52.4493 46.5C52.4352 46.5 52.4211 46.5 52.4071 46.5C52.3931 46.5 52.379 46.5 52.365 46.5C52.351 46.5 52.3369 46.5 52.3229 46.5C52.3089 46.5 52.2949 46.5 52.2809 46.5C52.2669 46.5 52.2529 46.5 52.2389 46.5C52.2249 46.5 52.2109 46.5 52.197 46.5C52.183 46.5 52.169 46.5 52.1551 46.5C52.1411 46.5 52.1272 46.5 52.1132 46.5C52.0993 46.5 52.0854 46.5 52.0714 46.5C52.0575 46.5 52.0436 46.5 52.0297 46.5C52.0158 46.5 52.0019 46.5 51.988 46.5C51.9741 46.5 51.9602 46.5 51.9463 46.5C51.9324 46.5 51.9186 46.5 51.9047 46.5C51.8908 46.5 51.877 46.5 51.8631 46.5C51.8493 46.5 51.8355 46.5 51.8216 46.5C51.8078 46.5 51.794 46.5 51.7802 46.5C51.7663 46.5 51.7525 46.5 51.7388 46.5C51.725 46.5 51.7112 46.5 51.6974 46.5C51.6836 46.5 51.6698 46.5 51.6561 46.5C51.6423 46.5 51.6286 46.5 51.6148 46.5C51.6011 46.5 51.5873 46.5 51.5736 46.5C51.5599 46.5 51.5462 46.5 51.5325 46.5C51.5188 46.5 51.5051 46.5 51.4914 46.5C51.4777 46.5 51.464 46.5 51.4503 46.5C51.4367 46.5 51.423 46.5 51.4093 46.5C51.3957 46.5 51.382 46.5 51.3684 46.5C51.3548 46.5 51.3411 46.5 51.3275 46.5C51.3139 46.5 51.3003 46.5 51.2867 46.5C51.2731 46.5 51.2595 46.5 51.2459 46.5C51.2324 46.5 51.2188 46.5 51.2052 46.5C51.1917 46.5 51.1781 46.5 51.1646 46.5C51.1511 46.5 51.1375 46.5 51.124 46.5C51.1105 46.5 51.097 46.5 51.0835 46.5C51.07 46.5 51.0565 46.5 51.043 46.5C51.0295 46.5 51.016 46.5 51.0026 46.5C50.9891 46.5 50.9757 46.5 50.9622 46.5C50.9488 46.5 50.9354 46.5 50.9219 46.5C50.9085 46.5 50.8951 46.5 50.8817 46.5C50.8683 46.5 50.8549 46.5 50.8416 46.5C50.8282 46.5 50.8148 46.5 50.8014 46.5C50.7881 46.5 50.7747 46.5 50.7614 46.5C50.7481 46.5 50.7347 46.5 50.7214 46.5C50.7081 46.5 50.6948 46.5 50.6815 46.5C50.6682 46.5 50.6549 46.5 50.6417 46.5C50.6284 46.5 50.6151 46.5 50.6019 46.5C50.5886 46.5 50.5754 46.5 50.5622 46.5C50.5489 46.5 50.5357 46.5 50.5225 46.5C50.5093 46.5 50.4961 46.5 50.4829 46.5C50.4698 46.5 50.4566 46.5 50.4434 46.5C50.4303 46.5 50.4171 46.5 50.404 46.5C50.3908 46.5 50.3777 46.5 50.3646 46.5C50.3515 46.5 50.3384 46.5 50.3253 46.5C50.3122 46.5 50.2991 46.5 50.286 46.5C50.273 46.5 50.2599 46.5 50.2469 46.5C50.2338 46.5 50.2208 46.5 50.2078 46.5C50.1948 46.5 50.1817 46.5 50.1687 46.5C50.1557 46.5 50.1428 46.5 50.1298 46.5C50.1168 46.5 50.1039 46.5 50.0909 46.5C50.078 46.5 50.065 46.5 50.0521 46.5C50.0392 46.5 50.0262 46.5 50.0134 46.5C50.0005 46.5 49.9876 46.5 49.9747 46.5C49.9618 46.5 49.9489 46.5 49.9361 46.5C49.9232 46.5 49.9104 46.5 49.8976 46.5C49.8848 46.5 49.8719 46.5 49.8591 46.5C49.8463 46.5 49.8335 46.5 49.8208 46.5C49.808 46.5 49.7952 46.5 49.7825 46.5C49.7697 46.5 49.757 46.5 49.7443 46.5C49.7315 46.5 49.7188 46.5 49.7061 46.5C49.6934 46.5 49.6807 46.5 49.6681 46.5C49.6554 46.5 49.6427 46.5 49.6301 46.5C49.6175 46.5 49.6048 46.5 49.5922 46.5C49.5796 46.5 49.567 46.5 49.5544 46.5C49.5418 46.5 49.5292 46.5 49.5166 46.5C49.5041 46.5 49.4915 46.5 49.479 46.5C49.4664 46.5 49.4539 46.5 49.4414 46.5C49.4289 46.5 49.4164 46.5 49.4039 46.5C49.3914 46.5 49.3789 46.5 49.3665 46.5C49.354 46.5 49.3416 46.5 49.3292 46.5C49.3167 46.5 49.3043 46.5 49.2919 46.5C49.2795 46.5 49.2671 46.5 49.2547 46.5C49.2424 46.5 49.23 46.5 49.2177 46.5C49.2053 46.5 49.193 46.5 49.1807 46.5C49.1684 46.5 49.156 46.5 49.1438 46.5C49.1315 46.5 49.1192 46.5 49.1069 46.5C49.0947 46.5 49.0824 46.5 49.0702 46.5C49.058 46.5 49.0457 46.5 49.0335 46.5C49.0213 46.5 49.0092 46.5 48.997 46.5C48.9848 46.5 48.9726 46.5 48.9605 46.5C48.9484 46.5 48.9362 46.5 48.9241 46.5C48.912 46.5 48.8999 46.5 48.8878 46.5C48.8757 46.5 48.8637 46.5 48.8516 46.5C48.8396 46.5 48.8275 46.5 48.8155 46.5C48.8035 46.5 48.7915 46.5 48.7795 46.5C48.7675 46.5 48.7555 46.5 48.7435 46.5C48.7316 46.5 48.7196 46.5 48.7077 46.5C48.6958 46.5 48.6838 46.5 48.6719 46.5C48.66 46.5 48.6481 46.5 48.6363 46.5C48.6244 46.5 48.6125 46.5 48.6007 46.5C48.5889 46.5 48.577 46.5 48.5652 46.5C48.5534 46.5 48.5416 46.5 48.5299 46.5C48.5181 46.5 48.5063 46.5 48.4946 46.5C48.4828 46.5 48.4711 46.5 48.4594 46.5C48.4477 46.5 48.436 46.5 48.4243 46.5C48.4126 46.5 48.4009 46.5 48.3893 46.5C48.3776 46.5 48.366 46.5 48.3544 46.5C48.3428 46.5 48.3312 46.5 48.3196 46.5C48.308 46.5 48.2964 46.5 48.2849 46.5C48.2733 46.5 48.2618 46.5 48.2503 46.5C48.2388 46.5 48.2273 46.5 48.2158 46.5C48.2043 46.5 48.1928 46.5 48.1814 46.5C48.1699 46.5 48.1585 46.5 48.1471 46.5C48.1356 46.5 48.1242 46.5 48.1129 46.5C48.1015 46.5 48.0901 46.5 48.0788 46.5C48.0674 46.5 48.0561 46.5 48.0448 46.5C48.0334 46.5 48.0221 46.5 48.0108 46.5C47.9996 46.5 47.9883 46.5 47.9771 46.5C47.9658 46.5 47.9546 46.5 47.9434 46.5C47.9321 46.5 47.9209 46.5 47.9098 46.5C47.8986 46.5 47.8874 46.5 47.8763 46.5C47.8651 46.5 47.854 46.5 47.8429 46.5C47.8318 46.5 47.8207 46.5 47.8096 46.5C47.7985 46.5 47.7875 46.5 47.7765 46.5C47.7654 46.5 47.7544 46.5 47.7434 46.5C47.7324 46.5 47.7214 46.5 47.7104 46.5C47.6995 46.5 47.6885 46.5 47.6776 46.5C47.6666 46.5 47.6557 46.5 47.6448 46.5C47.6339 46.5 47.6231 46.5 47.6122 46.5C47.6013 46.5 47.5905 46.5 47.5797 46.5C47.5689 46.5 47.5581 46.5 47.5473 46.5C47.5365 46.5 47.5257 46.5 47.515 46.5C47.5042 46.5 47.4935 46.5 47.4828 46.5C47.4721 46.5 47.4614 46.5 47.4507 46.5C47.44 46.5 47.4294 46.5 47.4187 46.5C47.4081 46.5 47.3975 46.5 47.3869 46.5C47.3763 46.5 47.3657 46.5 47.3551 46.5C47.3446 46.5 47.334 46.5 47.3235 46.5C47.313 46.5 47.3024 46.5 47.292 46.5C47.2815 46.5 47.271 46.5 47.2606 46.5C47.2501 46.5 47.2397 46.5 47.2293 46.5C47.2189 46.5 47.2085 46.5 47.1981 46.5C47.1877 46.5 47.1774 46.5 47.167 46.5C47.1567 46.5 47.1464 46.5 47.1361 46.5C47.1258 46.5 47.1155 46.5 47.1053 46.5C47.095 46.5 47.0848 46.5 47.0746 46.5C47.0644 46.5 47.0542 46.5 47.044 46.5C47.0338 46.5 47.0236 46.5 47.0135 46.5C47.0034 46.5 46.9933 46.5 46.9832 46.5C46.9731 46.5 46.963 46.5 46.9529 46.5C46.9429 46.5 46.9328 46.5 46.9228 46.5C46.9128 46.5 46.9028 46.5 46.8928 46.5C46.8828 46.5 46.8729 46.5 46.863 46.5C46.853 46.5 46.8431 46.5 46.8332 46.5C46.8233 46.5 46.8134 46.5 46.8036 46.5C46.7937 46.5 46.7839 46.5 46.7741 46.5C46.7643 46.5 46.7545 46.5 46.7447 46.5C46.7349 46.5 46.7252 46.5 46.7154 46.5C46.7057 46.5 46.696 46.5 46.6863 46.5C46.6766 46.5 46.667 46.5 46.6573 46.5C46.6477 46.5 46.638 46.5 46.6284 46.5C46.6188 46.5 46.6092 46.5 46.5997 46.5C46.5901 46.5 46.5806 46.5 46.571 46.5C46.5615 46.5 46.552 46.5 46.5425 46.5C46.5331 46.5 46.5236 46.5 46.5142 46.5C46.5047 46.5 46.4953 46.5 46.4859 46.5C46.4765 46.5 46.4672 46.5 46.4578 46.5C46.4485 46.5 46.4391 46.5 46.4298 46.5C46.4205 46.5 46.4112 46.5 46.402 46.5C46.3927 46.5 46.3834 46.5 46.3742 46.5C46.365 46.5 46.3558 46.5 46.3466 46.5C46.3375 46.5 46.3283 46.5 46.3192 46.5C46.31 46.5 46.3009 46.5 46.2918 46.5C46.2827 46.5 46.2737 46.5 46.2646 46.5C46.2556 46.5 46.2466 46.5 46.2376 46.5C46.2286 46.5 46.2196 46.5 46.2106 46.5C46.2017 46.5 46.1927 46.5 46.1838 46.5C46.1749 46.5 46.166 46.5 46.1572 46.5C46.1483 46.5 46.1394 46.5 46.1306 46.5C46.1218 46.5 46.113 46.5 46.1042 46.5C46.0954 46.5 46.0867 46.5 46.078 46.5C46.0692 46.5 46.0605 46.5 46.0518 46.5C46.0432 46.5 46.0345 46.5 46.0259 46.5C46.0172 46.5 46.0086 46.5 46 46.5V48.5Z" fill="black"/>
<defs>
<linearGradient id="paint0_linear" x1="24.0769" y1="46.5012" x2="55.6923" y2="46.5012" gradientUnits="userSpaceOnUse">
<stop stop-color="#12ABBF"/>
<stop offset="0.48" stop-color="#27C39B"/>
<stop offset="0.95" stop-color="#40D094"/>
</linearGradient>
</defs>
</svg>
