<svg width="50" height="64" viewBox="0 0 50 64" fill="none" xmlns="http://www.w3.org/2000/svg">
<rect width="50" height="64" rx="4" fill="#E6E6E6"/>
<path d="M16.992 31.9411L14 36.0001H16.167L18.07 33.4151L19.973 36.0001H22.184L19.181 31.9081L22.052 28.0251H19.874L18.103 30.4341L16.343 28.0251H14.132L16.992 31.9411Z" fill="#808080"/>
<path d="M24.6665 34.3391V28.0251H22.7855V36.0001H28.4945V34.3391H24.6665Z" fill="#808080"/>
<path d="M32.0033 29.4001C32.8063 29.4001 33.3893 29.7411 33.5763 30.3351H35.4353C35.1603 28.5751 33.6753 27.8931 32.1133 27.8931C30.5513 27.8931 28.8023 28.6521 28.8023 30.2801C28.8023 31.7101 29.9793 32.3261 31.2773 32.6011L32.2453 32.7991C33.1143 32.9861 33.7303 33.2391 33.7303 33.7561C33.7303 34.4161 33.0043 34.6251 32.3663 34.6251C31.3873 34.6251 30.7273 34.2401 30.5183 33.4041H28.6483C28.9343 35.1201 30.2763 36.1431 32.3223 36.1431C33.9833 36.1431 35.6663 35.1971 35.6663 33.5251C35.6663 31.8531 34.0383 31.4571 32.7513 31.1931L31.6623 30.9731C31.1123 30.8521 30.7383 30.5661 30.7383 30.1701C30.7383 29.6751 31.2773 29.4001 32.0033 29.4001Z" fill="#808080"/>
</svg>
