<svg width="80" height="80" viewBox="0 0 80 80" fill="none" xmlns="http://www.w3.org/2000/svg">
<path d="M40 0C62.1 0 80 17.9 80 40C80 62.1 62.1 80 40 80C17.9 80 0 62.1 0 40C0 17.9 17.9 0 40 0Z" fill="#F2F2F2"/>
<path d="M15 62.4891C15 55.0292 26.166 49 40 49C53.834 49 65 55.0292 65 62.4891C65 69.9489 53.834 77 40 77C26.166 77 15 69.9489 15 62.4891Z" fill="#CCCCCC"/>
<path d="M24.5 56C30.5 58.7 36.9 64.6 36.9 73.2" stroke="#AAAAAA" stroke-width="2" stroke-miterlimit="10" stroke-linecap="round" stroke-linejoin="round"/>
<path d="M56.4996 56C50.4996 58.7 44.0996 64.6 44.0996 73.2" stroke="#AAAAAA" stroke-width="2" stroke-miterlimit="10" stroke-linecap="round" stroke-linejoin="round"/>
<path d="M33 35.5996C34.1046 35.5996 35 34.7042 35 33.5996C35 32.495 34.1046 31.5996 33 31.5996C31.8954 31.5996 31 32.495 31 33.5996C31 34.7042 31.8954 35.5996 33 35.5996Z" fill="#AAAAAA"/>
<path d="M47 35.5996C48.1046 35.5996 49 34.7042 49 33.5996C49 32.495 48.1046 31.5996 47 31.5996C45.8954 31.5996 45 32.495 45 33.5996C45 34.7042 45.8954 35.5996 47 35.5996Z" fill="#AAAAAA"/>
<path d="M43 39.6992C41 41.4992 39 41.4992 37 39.6992" stroke="#AAAAAA" stroke-width="2" stroke-miterlimit="10" stroke-linecap="round" stroke-linejoin="round"/>
<path d="M45.9 45C41.9 47.3 38 47.3 34 45" stroke="#AAAAAA" stroke-width="2" stroke-miterlimit="10" stroke-linecap="round" stroke-linejoin="round"/>
<path d="M56.9007 26.5996C57.6007 32.3996 58.2007 40.1996 54.2007 46.5996C50.4007 52.5996 45.2007 56.6996 39.9007 56.6996C30.9007 56.6996 21.3007 44.6996 21.3007 30.9996C21.3007 17.2996 29.8007 7.69959 40.0007 6.29959C48.0007 5.19959 55.3007 11.4996 53.6007 17.9996C52.9007 20.4996 50.7007 22.9996 47.4007 24.8996C39.9007 29.3996 30.8007 28.8996 23.9007 24.3996C20.9007 22.4996 16.5007 15.7996 23.4007 8.29959" stroke="#AAAAAA" stroke-width="2" stroke-miterlimit="10" stroke-linecap="round" stroke-linejoin="round"/>
<path d="M21.6992 38.4999C19.1992 39.0999 16.3992 37.1999 15.2992 34.1999C14.0992 30.8999 15.1992 27.4999 17.8992 26.4999C19.0992 25.9999 20.6992 25.9999 21.6992 26.8999" stroke="#AAAAAA" stroke-width="2" stroke-miterlimit="10" stroke-linecap="round" stroke-linejoin="round"/>
<path d="M57.1008 38.6002C59.3008 38.5002 61.5008 36.8002 62.4008 34.2002C63.6008 30.9002 62.5008 27.5002 59.8008 26.5002C58.8008 26.1002 57.8008 26.2002 56.8008 26.5002" stroke="#AAAAAA" stroke-width="2" stroke-miterlimit="10" stroke-linecap="round" stroke-linejoin="round"/>
<path d="M40.0004 30.2C44.75 30.2 48.6004 26.3496 48.6004 21.6C48.6004 16.8504 44.75 13 40.0004 13C35.2507 13 31.4004 16.8504 31.4004 21.6C31.4004 26.3496 35.2507 30.2 40.0004 30.2Z" fill="#F2F2F2" stroke="#AAAAAA" stroke-width="2" stroke-miterlimit="10" stroke-linecap="round" stroke-linejoin="round"/>
<path d="M40 23.5996C41.1046 23.5996 42 22.7042 42 21.5996C42 20.495 41.1046 19.5996 40 19.5996C38.8954 19.5996 38 20.495 38 21.5996C38 22.7042 38.8954 23.5996 40 23.5996Z" fill="#AAAAAA"/>
</svg>
