<svg width="80" height="80" viewBox="0 0 80 80" fill="none" xmlns="http://www.w3.org/2000/svg">
<rect x="0.5" y="0.5" width="79" height="79" rx="15.5" fill="white" stroke="#D9D9D9"/>
<path d="M58.7992 36.6992H44.2992C43.6992 36.6992 43.2992 36.2992 43.2992 35.6992V21.1992C43.2992 20.5992 42.8992 20.1992 42.2992 20.1992H37.6992C37.0992 20.1992 36.6992 20.5992 36.6992 21.1992V35.6992C36.6992 36.2992 36.2992 36.6992 35.6992 36.6992H21.1992C20.5992 36.6992 20.1992 37.0992 20.1992 37.6992V42.2992C20.1992 42.8992 20.5992 43.2992 21.1992 43.2992H35.6992C36.2992 43.2992 36.6992 43.6992 36.6992 44.2992V58.7992C36.6992 59.3992 37.0992 59.7992 37.6992 59.7992H42.2992C42.8992 59.7992 43.2992 59.3992 43.2992 58.7992V44.2992C43.2992 43.6992 43.6992 43.2992 44.2992 43.2992H58.7992C59.3992 43.2992 59.7992 42.8992 59.7992 42.2992V37.6992C59.7992 37.1992 59.3992 36.6992 58.7992 36.6992Z" fill="url(#paint0_linear)"/>
<path fill-rule="evenodd" clip-rule="evenodd" d="M31.4053 15.8968C31.4582 15.3872 31.8877 15 32.4 15H47.6C48.1523 15 48.6 15.4477 48.6 16V31.4H64C64.5523 31.4 65 31.8477 65 32.4V47.6C65 48.1523 64.5523 48.6 64 48.6H48.6V64C48.6 64.5523 48.1523 65 47.6 65H32.4C31.8477 65 31.4 64.5523 31.4 64V48.6H16C15.4477 48.6 15 48.1523 15 47.6V33.4C15 32.9154 15.3475 32.5005 15.8245 32.4155C21.0473 31.4847 26.7367 32.0318 31.4313 33.0215C31.9459 33.13 32.4495 33.244 32.9402 33.3622C32.7905 32.8462 32.649 32.3167 32.5163 31.7757C31.3535 27.0352 30.8426 21.3195 31.4053 15.8968ZM33.678 35.6129C32.8385 35.3887 31.9481 35.1744 31.0187 34.9785C26.7186 34.072 21.6563 33.5731 17 34.2512V46.6H32.4C32.9523 46.6 33.4 47.0477 33.4 47.6V63H46.6V47.6C46.6 47.0477 47.0477 46.6 47.6 46.6H63V33.4H47.6C47.0477 33.4 46.6 32.9523 46.6 32.4V17H33.312C32.9158 21.9086 33.4105 27.0258 34.4587 31.2993C34.6886 32.2364 34.9441 33.1289 35.221 33.9665C36.087 34.2176 36.8926 34.4769 37.6237 34.7352C39.3165 35.3332 40.6739 35.9474 41.4547 36.4679L41.464 36.4741L41.464 36.4742C42.6143 37.2598 43.3565 38.1766 43.6581 39.1469C43.9657 40.1366 43.7873 41.1132 43.22 41.8567C42.0752 43.3567 39.7705 43.5329 37.8122 42.109C36.6239 41.2472 35.592 39.8016 34.7251 38.0596C34.3521 37.3103 34.002 36.4903 33.678 35.6129ZM36.1266 36.3383C36.414 36.4325 36.6912 36.5269 36.9575 36.621C38.6041 37.2027 39.77 37.7497 40.3408 38.129C41.237 38.7422 41.6188 39.3241 41.7482 39.7406C41.8719 40.1384 41.7877 40.4368 41.6301 40.6433C41.3249 41.0432 40.3299 41.467 38.9882 40.4913L38.987 40.4904C38.1756 39.9021 37.3203 38.7855 36.5156 37.1685C36.3833 36.9028 36.2536 36.6258 36.1266 36.3383Z" fill="#1D1B1C"/>
<defs>
<linearGradient id="paint0_linear" x1="20.1983" y1="39.9992" x2="59.8001" y2="39.9992" gradientUnits="userSpaceOnUse">
<stop stop-color="#00A99D"/>
<stop offset="1" stop-color="#28C387"/>
</linearGradient>
</defs>
</svg>
