<svg width="48" height="48" viewBox="0 0 48 48" fill="none" xmlns="http://www.w3.org/2000/svg">
<rect width="48" height="48" rx="12" fill="#F2F2F2"/>
<path d="M35.9066 22.0172H27.1103C26.7463 22.0172 26.5037 21.7772 26.5037 21.4172V12.7172C26.5037 12.3572 26.261 12.1172 25.897 12.1172H23.1065C22.7425 12.1172 22.4998 12.3572 22.4998 12.7172V21.4172C22.4998 21.7772 22.2572 22.0172 21.8932 22.0172H13.0969C12.7329 22.0172 12.4902 22.2572 12.4902 22.6172V25.3772C12.4902 25.7372 12.7329 25.9772 13.0969 25.9772H21.8932C22.2572 25.9772 22.4998 26.2172 22.4998 26.5772V35.2772C22.4998 35.6372 22.7425 35.8772 23.1065 35.8772H25.897C26.261 35.8772 26.5037 35.6372 26.5037 35.2772V26.5772C26.5037 26.2172 26.7463 25.9772 27.1103 25.9772H35.9066C36.2706 25.9772 36.5133 25.7372 36.5133 25.3772V22.6172C36.5133 22.3172 36.2706 22.0172 35.9066 22.0172Z" fill="url(#paint0_linear)"/>
<path d="M9.94141 20.0416V28.5616H19.8903V38.4016H29.1113V28.5616H39.0602V19.4416H29.1113V9.60156H19.8903C19.223 15.9616 21.1036 23.0416 23.5302 24.7816C25.5321 26.2216 27.534 24.0616 25.0468 22.3816C23.4089 21.3016 16.0685 18.9616 9.94141 20.0416Z" stroke="#1D1B1C" stroke-width="2" stroke-miterlimit="10" stroke-linecap="round" stroke-linejoin="round"/>
<defs>
<linearGradient id="paint0_linear" x1="12.4897" y1="23.9972" x2="36.5138" y2="23.9972" gradientUnits="userSpaceOnUse">
<stop stop-color="#00A99D"/>
<stop offset="1" stop-color="#28C387"/>
</linearGradient>
</defs>
</svg>
