<svg width="48" height="48" viewBox="0 0 48 48" fill="none" xmlns="http://www.w3.org/2000/svg">
<rect width="48" height="48" rx="12" fill="#F2F2F2"/>
<path d="M25.2002 12.6002L31.1401 7.14024C31.7401 6.60024 32.7601 7.08024 32.7001 7.86024L32.1001 15.9002C32.0401 16.3802 32.4001 16.8002 32.8801 16.8602L40.8601 18.0602C41.7001 18.1802 41.9401 19.2602 41.2201 19.7402L34.5601 24.3002C34.1401 24.6002 34.0201 25.0802 34.2601 25.5002L38.2801 32.5202C38.7001 33.2402 38.0401 34.0802 37.2001 33.8402L29.4601 31.5002C28.9801 31.3802 28.5001 31.6202 28.3201 32.0402L25.3202 39.5402C25.0202 40.3202 23.9402 40.3202 23.5802 39.5402L20.5802 32.0402C20.4002 31.6202 19.9202 31.3802 19.4402 31.5002L11.7002 33.8402C10.9202 34.0802 10.2002 33.2402 10.6202 32.5202L14.6402 25.5002C14.8802 25.0802 14.7602 24.5402 14.3402 24.3002L7.92015 19.8002C7.26016 19.3202 7.50016 18.2402 8.28016 18.1202L16.2602 16.9202C16.7402 16.8602 17.1002 16.4402 17.0402 15.9602L16.4402 7.92024C16.3802 7.08024 17.3402 6.60024 18.0002 7.20024L24.0002 12.6002C24.3002 12.9602 24.9002 12.9602 25.2002 12.6002Z" fill="url(#paint0_linear)"/>
<path d="M30.0008 8.39844L10.8008 25.7984H24.0008L18.6008 38.9984L38.4008 20.9984H25.2008L30.0008 8.39844Z" stroke="#262626" stroke-width="2" stroke-linecap="round" stroke-linejoin="round"/>
<defs>
<linearGradient id="paint0_linear" x1="7.52314" y1="23.5604" x2="41.6772" y2="23.5604" gradientUnits="userSpaceOnUse">
<stop stop-color="#12ABBF"/>
<stop offset="0.48" stop-color="#27C39B"/>
<stop offset="0.95" stop-color="#40D094"/>
</linearGradient>
</defs>
</svg>
