<svg width="80" height="80" viewBox="0 0 80 80" fill="none" xmlns="http://www.w3.org/2000/svg">
<g clip-path="url(#clip0)">
<path d="M40.2004 0.000419291C62.3004 0.100419 80.1004 18.1004 80.0004 40.2004C79.9004 62.3004 61.9004 80.1004 39.8004 80.0004C17.7004 79.9004 -0.0995807 61.9004 0.000419291 39.8004C0.100419 17.7004 18.1004 -0.0995807 40.2004 0.000419291Z" fill="#F2F2F2"/>
<rect width="80" height="80" rx="16" fill="#F2F2F2"/>
<path d="M41.8019 45.6882C30.3019 41.0882 33.3019 31.7882 39.4019 32.5882C33.2019 26.4882 39.4019 16.0881 47.1019 20.2882C46.6019 11.0882 55.6019 10.3882 55.7019 19.3882C61.9019 12.5881 71.9019 21.9882 65.6019 28.2882C74.2019 27.6882 75.9019 40.5881 65.6019 42.9882C75.5019 50.2882 59.1019 57.3882 54.2019 47.8882C49.1019 58.5882 36.2019 50.1882 41.8019 45.6882Z" fill="#CCCCCC"/>
<path d="M28 57V23H60V57" stroke="#AAAAAA" stroke-width="2" stroke-miterlimit="10" stroke-linecap="round" stroke-linejoin="round"/>
<path d="M41 57V46H47V57" stroke="#AAAAAA" stroke-width="2" stroke-miterlimit="10" stroke-linecap="round" stroke-linejoin="round"/>
<path d="M32 28H42" stroke="#AAAAAA" stroke-width="2" stroke-miterlimit="10" stroke-linecap="round" stroke-linejoin="round"/>
<path d="M32 34H42" stroke="#AAAAAA" stroke-width="2" stroke-miterlimit="10" stroke-linecap="round" stroke-linejoin="round"/>
<path d="M32 40H42" stroke="#AAAAAA" stroke-width="2" stroke-miterlimit="10" stroke-linecap="round" stroke-linejoin="round"/>
<path d="M32 46H37" stroke="#AAAAAA" stroke-width="2" stroke-miterlimit="10" stroke-linecap="round" stroke-linejoin="round"/>
<path d="M46 28H56" stroke="#AAAAAA" stroke-width="2" stroke-miterlimit="10" stroke-linecap="round" stroke-linejoin="round"/>
<path d="M46 34H56" stroke="#AAAAAA" stroke-width="2" stroke-miterlimit="10" stroke-linecap="round" stroke-linejoin="round"/>
<path d="M46 40H56" stroke="#AAAAAA" stroke-width="2" stroke-miterlimit="10" stroke-linecap="round" stroke-linejoin="round"/>
<path d="M51 46H56" stroke="#AAAAAA" stroke-width="2" stroke-miterlimit="10" stroke-linecap="round" stroke-linejoin="round"/>
<path d="M17 57C17 57 15.5 49.9 17 46C18 43.4 22 41 24 44C25.8 46.6 23 49 20.8 48.9C17.7 48.7 14.8 45.7 15.5 41.1C16.3 35.9 17 30.6 17 25.4V23H28V57" stroke="#AAAAAA" stroke-width="2" stroke-miterlimit="10" stroke-linecap="round" stroke-linejoin="round"/>
</g>
<defs>
<clipPath id="clip0">
<rect width="80" height="80" fill="white"/>
</clipPath>
</defs>
</svg>
