<svg width="80" height="80" viewBox="0 0 80 80" fill="none" xmlns="http://www.w3.org/2000/svg">
<g clip-path="url(#clip0)">
<path d="M40.2004 0.000419291C62.3004 0.100419 80.1004 18.1004 80.0004 40.2004C79.9004 62.3004 61.9004 80.1004 39.8004 80.0004C17.7004 79.9004 -0.0995807 61.9004 0.000419291 39.8004C0.100419 17.7004 18.1004 -0.0995807 40.2004 0.000419291Z" fill="#F2F2F2"/>
<rect width="80" height="80" rx="16" fill="#F2F2F2"/>
<path d="M18.4337 35.2046C13.9337 31.7046 15.9991 23.5 25.4991 27C18.4337 14 29.4337 9.20448 34.4337 16.7045C37.7028 10.1662 46.2065 11.4798 46.9067 27.1641C47.976 21.1833 54.5577 17.5945 57.9337 19.7045C61.9337 22.2045 63.9337 29.2045 53.9337 35.2046C61.4337 35.2046 69.4337 48.2045 63.9337 53.2045C58.4337 58.2045 46.9337 59.7045 38.4337 44.2045C37.4337 54.7045 26.9337 62.2045 21.4337 56.7045C15.9337 51.2045 14.4337 43.7045 34.4337 35.2046C30.6004 36.3712 22.0337 38.0046 18.4337 35.2046Z" fill="#CCCCCC"/>
<path d="M28 57V23H60V57" stroke="#AAAAAA" stroke-width="2" stroke-miterlimit="10" stroke-linecap="round" stroke-linejoin="round"/>
<path d="M41 57V46H47V57" stroke="#AAAAAA" stroke-width="2" stroke-miterlimit="10" stroke-linecap="round" stroke-linejoin="round"/>
<path d="M32 28H42" stroke="#AAAAAA" stroke-width="2" stroke-miterlimit="10" stroke-linecap="round" stroke-linejoin="round"/>
<path d="M32 34H42" stroke="#AAAAAA" stroke-width="2" stroke-miterlimit="10" stroke-linecap="round" stroke-linejoin="round"/>
<path d="M32 40H42" stroke="#AAAAAA" stroke-width="2" stroke-miterlimit="10" stroke-linecap="round" stroke-linejoin="round"/>
<path d="M32 46H37" stroke="#AAAAAA" stroke-width="2" stroke-miterlimit="10" stroke-linecap="round" stroke-linejoin="round"/>
<path d="M46 28H56" stroke="#AAAAAA" stroke-width="2" stroke-miterlimit="10" stroke-linecap="round" stroke-linejoin="round"/>
<path d="M46 34H56" stroke="#AAAAAA" stroke-width="2" stroke-miterlimit="10" stroke-linecap="round" stroke-linejoin="round"/>
<path d="M46 40H56" stroke="#AAAAAA" stroke-width="2" stroke-miterlimit="10" stroke-linecap="round" stroke-linejoin="round"/>
<path d="M51 46H56" stroke="#AAAAAA" stroke-width="2" stroke-miterlimit="10" stroke-linecap="round" stroke-linejoin="round"/>
<path d="M28.0003 57V23H17.0003C17.0003 31 12.5 35.9287 17.0003 38.5C20.5007 40.5 22.5 44 21.0006 47C18.6992 51.6047 12.0008 48 14.0008 43.5C15.5 40.5 21 40 18.5 57" stroke="#AAAAAA" stroke-width="2" stroke-miterlimit="10" stroke-linecap="round" stroke-linejoin="round"/>
</g>
<defs>
<clipPath id="clip0">
<rect width="80" height="80" fill="white"/>
</clipPath>
</defs>
</svg>
