<svg width="40" height="40" viewBox="0 0 40 40" fill="none" xmlns="http://www.w3.org/2000/svg">
<path d="M2 20C2 10.0589 10.0589 2 20 2C29.9411 2 38 10.0589 38 20C38 29.9411 29.9411 38 20 38C10.0589 38 2 29.9411 2 20Z" fill="white"/>
<circle cx="20" cy="20" r="18" fill="url(#paint0_linear)"/>
<mask id="mask0" mask-type="alpha" maskUnits="userSpaceOnUse" x="2" y="2" width="36" height="36">
<circle cx="20" cy="20" r="18" fill="#E6E6E6"/>
</mask>
<g mask="url(#mask0)">
<path fill-rule="evenodd" clip-rule="evenodd" d="M15.5 23C18.8137 23 21.5 20.3137 21.5 17C21.5 13.6863 18.8137 11 15.5 11C12.1863 11 9.5 13.6863 9.5 17C9.5 20.3137 12.1863 23 15.5 23ZM30.5 12.5H27.5V15.5H24.5V18.5H27.5V21.5H30.5V18.5H33.5V15.5H30.5V12.5ZM3.5 38C3.5 31.3726 8.87258 26 15.5 26C22.1274 26 27.5 31.3726 27.5 38H3.5Z" fill="white"/>
</g>
<path d="M20 36C11.1634 36 4 28.8366 4 20H0C0 31.0457 8.95431 40 20 40V36ZM36 20C36 28.8366 28.8366 36 20 36V40C31.0457 40 40 31.0457 40 20H36ZM20 4C28.8366 4 36 11.1634 36 20H40C40 8.95431 31.0457 0 20 0V4ZM20 0C8.95431 0 0 8.95431 0 20H4C4 11.1634 11.1634 4 20 4V0Z" fill="white"/>
<defs>
<linearGradient id="paint0_linear" x1="14.5" y1="2" x2="33.6277" y2="32.3013" gradientUnits="userSpaceOnUse">
<stop stop-color="#40B2C9"/>
<stop offset="1" stop-color="#55DF94"/>
</linearGradient>
</defs>
</svg>
