<svg width="80" height="80" viewBox="0 0 80 80" fill="none" xmlns="http://www.w3.org/2000/svg">
<rect width="80" height="80" fill="#E5E5E5"/>
<rect width="1600" height="3078" transform="translate(-806 -464)" fill="#F3F3F3"/>
<rect width="80" height="80" rx="14" fill="white"/>
<path d="M10.2101 36.1988C27.024 19.6673 54.0764 19.6659 70.9889 36.1998C54.0779 52.7335 27.1206 52.7331 10.2101 36.1988Z" fill="url(#paint0_linear)" stroke="url(#paint1_linear)"/>
<path d="M40.6001 55.2002C51.0935 55.2002 59.6001 46.6936 59.6001 36.2002C59.6001 25.7068 51.0935 17.2002 40.6001 17.2002C30.1067 17.2002 21.6001 25.7068 21.6001 36.2002C21.6001 46.6936 30.1067 55.2002 40.6001 55.2002Z" stroke="black" stroke-width="2" stroke-linecap="round" stroke-linejoin="round"/>
<path d="M40.6001 41.2002C43.3615 41.2002 45.6001 38.9616 45.6001 36.2002C45.6001 33.4388 43.3615 31.2002 40.6001 31.2002C37.8387 31.2002 35.6001 33.4388 35.6001 36.2002C35.6001 38.9616 37.8387 41.2002 40.6001 41.2002Z" stroke="black" stroke-width="2" stroke-linecap="round" stroke-linejoin="round"/>
<path d="M42.6001 24.2002C42.6001 25.3002 41.7001 26.2002 40.6001 26.2002C39.5001 26.2002 38.6001 25.3002 38.6001 24.2002C38.6001 23.1002 39.5001 22.2002 40.6001 22.2002C41.7001 22.2002 42.6001 23.1002 42.6001 24.2002Z" stroke="black" stroke-width="2" stroke-linecap="round" stroke-linejoin="round"/>
<path d="M52 57C45.6412 61 35.3588 61 29 57" stroke="black" stroke-width="2" stroke-linecap="round" stroke-linejoin="round"/>
<path d="M29.8001 51.8C26.4456 54.3386 23.7486 59.5074 22.0819 63.8786C21.8367 64.5215 22.3187 65.2 23.0067 65.2H40.6001H59.5555C60.3876 65.2 60.8585 64.2413 60.3549 63.5788C59.7363 62.7648 59.0308 61.8221 58.6001 61.2C56.0001 56.9 56.9001 51.2 61.1001 48.5C63.3001 47.1 66.0001 46.5 68.5001 47.2C72.2001 48.3 72.2001 52.2 70.5001 54.2C69.1001 55.9 66.4001 56.1 64.5001 54.2C61.0001 50.7 62.6001 39.7 69.1001 39.5" stroke="black" stroke-width="2" stroke-linecap="round" stroke-linejoin="round"/>
<defs>
<linearGradient id="paint0_linear" x1="9.50001" y1="36.1998" x2="41.1952" y2="74.406" gradientUnits="userSpaceOnUse">
<stop stop-color="#00B0D7"/>
<stop offset="0.833333" stop-color="#21CDD8"/>
</linearGradient>
<linearGradient id="paint1_linear" x1="9.50001" y1="36.1998" x2="41.1952" y2="74.406" gradientUnits="userSpaceOnUse">
<stop stop-color="#00B0D7"/>
<stop offset="0.833333" stop-color="#21CDD8"/>
</linearGradient>
</defs>
</svg>
