<svg width="80" height="80" viewBox="0 0 80 80" fill="none" xmlns="http://www.w3.org/2000/svg">
<rect width="80" height="80" fill="#E5E5E5"/>
<rect width="1600" height="3078" transform="translate(-440 -464)" fill="#F3F3F3"/>
<rect width="80" height="80" rx="20" fill="white"/>
<g clip-path="url(#clip0)">
<path d="M46.6175 23.6465L59.1695 18.8227C60.4303 18.3533 61.7172 19.7221 61.1463 20.8944L55.2907 32.9887C54.9036 33.6959 55.2043 34.5674 55.9116 34.9545L67.5453 41.7033C68.7737 42.404 68.4841 44.225 67.074 44.5279L53.9575 47.5156C53.1227 47.7233 52.6426 48.3938 52.7573 49.1918L54.6875 62.5355C54.8974 63.9088 53.3598 64.8064 52.2049 63.9198L41.6416 55.551C40.9711 55.071 40.0801 55.1489 39.5438 55.6896L30.299 65.4766C29.3562 66.5018 27.6822 65.8401 27.602 64.4106L27.5469 50.9478C27.5252 50.1865 26.9282 49.5205 26.1107 49.4124L12.6803 48.2975C11.3243 48.1917 10.7229 46.4486 11.815 45.5899L22.3466 37.1718C22.976 36.6678 23.1208 35.7573 22.6168 35.128L15.4228 24.22C14.6939 23.0716 15.7275 21.5447 17.01 21.8365L30.1141 24.8654C30.8948 25.0665 31.7101 24.636 31.9112 23.8553L35.9068 11.0258C36.3284 9.6871 38.1105 9.53124 38.7659 10.8656L44.7576 22.9113C45.002 23.6531 45.932 24.0207 46.6175 23.6465Z" fill="url(#paint0_linear)"/>
<path d="M29 66L38 44H16L48 15L40 36H62" stroke="black" stroke-width="2" stroke-linecap="round" stroke-linejoin="round"/>
<path d="M29 66L46.9 47.6C47.1 47.3 47.3 47 47.4 46.7C48 44.8 46.2 43 44.3 43.7C42.4 44.4 41.5 46.4 42.1 48.3L43 51C43.5 52.5 45.2 53.4 46.6 52.2C46.6 52.3 58 40 62 36" stroke="black" stroke-width="2" stroke-linecap="round" stroke-linejoin="round"/>
</g>
<defs>
<linearGradient id="paint0_linear" x1="12.5516" y1="29.7473" x2="54.2359" y2="77.2716" gradientUnits="userSpaceOnUse">
<stop stop-color="#00B0D7"/>
<stop offset="0.833333" stop-color="#21CDD8"/>
</linearGradient>
<clipPath id="clip0">
<rect width="80" height="80" fill="white" transform="translate(0 1)"/>
</clipPath>
</defs>
</svg>
