<svg width="36" height="36" viewBox="0 0 36 36" fill="none" xmlns="http://www.w3.org/2000/svg">
<rect width="36" height="36" rx="18" fill="#008CB4"/>
<path d="M22 12V10C22 9.46957 21.7893 8.96086 21.4142 8.58579C21.0392 8.21071 20.5304 8 20 8H16C15.4696 8 14.9609 8.21071 14.5858 8.58579C14.2107 8.96086 14 9.46957 14 10V12H8.00001V15C8.00001 15.5304 8 16.5 8 17C8.5 17 9.46958 17 10 17H26C26.5304 17 27.5 17 28 17C28 16.5858 28 15.5304 28 15V12H22ZM20 12H16V10H20V12ZM20 19V21H16V19H10C9.29505 18.997 9.00001 19 8.00001 19V27H28V19C27 19 26.705 18.997 26 19H20Z" fill="white"/>
</svg>
