<svg width="80" height="80" viewBox="0 0 80 80" fill="none" xmlns="http://www.w3.org/2000/svg">
<path d="M40 0C62.1 0 80 17.9 80 40C80 62.1 62.1 80 40 80C17.9 80 0 62.1 0 40C0 17.9 17.9 0 40 0Z" fill="#F2F2F2"/>
<path d="M14.7 62.7996C14.7 55.4996 26 49.5996 40 49.5996C54 49.5996 65.3 55.4996 65.3 62.7996C65.3 70.0996 54 76.9996 40 76.9996C26 76.9996 14.7 70.0996 14.7 62.7996Z" fill="#CCCCCC"/>
<path d="M24.5 56C30.5 58.7 36.9 64.6 36.9 73.2" stroke="#AAAAAA" stroke-width="2" stroke-miterlimit="10" stroke-linecap="round" stroke-linejoin="round"/>
<path d="M56.5001 56C50.5001 58.7 44.1001 64.6 44.1001 73.2" stroke="#AAAAAA" stroke-width="2" stroke-miterlimit="10" stroke-linecap="round" stroke-linejoin="round"/>
<path d="M33.5 35C34.3284 35 35 34.3284 35 33.5C35 32.6716 34.3284 32 33.5 32C32.6716 32 32 32.6716 32 33.5C32 34.3284 32.6716 35 33.5 35Z" fill="#AAAAAA"/>
<path d="M46.5 35C47.3284 35 48 34.3284 48 33.5C48 32.6716 47.3284 32 46.5 32C45.6716 32 45 32.6716 45 33.5C45 34.3284 45.6716 35 46.5 35Z" fill="#AAAAAA"/>
<path d="M42 40C40.6667 41.3333 39.3333 41.3333 38 40" stroke="#AAAAAA" stroke-width="2" stroke-miterlimit="10" stroke-linecap="round" stroke-linejoin="round"/>
<path d="M45.9 45C41.9 47.3 38 47.3 34 45" stroke="#AAAAAA" stroke-width="2" stroke-miterlimit="10" stroke-linecap="round" stroke-linejoin="round"/>
<path d="M43.8 26.7C48.6 25.4 51.6 27.6 51.6 27.6" stroke="#AAAAAA" stroke-width="2" stroke-miterlimit="10" stroke-linecap="round" stroke-linejoin="round"/>
<path d="M58.0999 46.9996C61.6999 45.5996 67.6999 39.6996 66.4999 28.9996C65.5999 20.9996 59.6999 13.8996 56.7999 17.9996C54.4999 21.3996 61.0999 35.5996 54.2999 46.5996C50.4999 52.5996 45.2999 56.6996 39.9999 56.6996C30.9999 56.6996 21.3999 44.6996 21.3999 30.9996C21.3999 17.2996 29.7999 7.69959 39.9999 6.29959C47.9999 5.19959 55.2999 11.4996 53.5999 17.9996C52.8999 20.4996 50.6999 22.9996 47.3999 24.8996C39.8999 29.3996 30.7999 28.8996 23.8999 24.3996C20.8999 22.4996 16.4999 15.7996 23.3999 8.29959" stroke="#AAAAAA" stroke-width="2" stroke-miterlimit="10" stroke-linecap="round" stroke-linejoin="round"/>
<path d="M21.6999 38.4999C19.1999 39.0999 16.3999 37.1999 15.2999 34.1999C14.0999 30.8999 15.1999 27.4999 17.8999 26.4999C19.0999 25.9999 20.6999 25.9999 21.6999 26.8999" stroke="#AAAAAA" stroke-width="2" stroke-miterlimit="10" stroke-linecap="round" stroke-linejoin="round"/>
<path d="M56.8999 26.6008C57.8999 26.2008 58.8999 26.2008 59.8999 26.6008C62.4999 27.6008 63.6999 31.0008 62.4999 34.3008C61.4999 36.9008 59.2999 38.7008 57.1999 38.7008" stroke="#AAAAAA" stroke-width="2" stroke-miterlimit="10" stroke-linecap="round" stroke-linejoin="round"/>
<path d="M23.3 49.5C23.3 49.5 14.8 46.9 14 39" stroke="#AAAAAA" stroke-width="2" stroke-miterlimit="10" stroke-linecap="round" stroke-linejoin="round"/>
</svg>
