<svg width="80" height="80" viewBox="0 0 80 80" fill="none" xmlns="http://www.w3.org/2000/svg">
<path d="M40 0C62.1 0 80 17.9 80 40C80 62.1 62.1 80 40 80C17.9 80 0 62.1 0 40C0 17.9 17.9 0 40 0Z" fill="#F2F2F2"/>
<path d="M15 62.4891C15 55.0292 26.166 49 40 49C53.834 49 65 55.0292 65 62.4891C65 69.9489 53.834 77 40 77C26.166 77 15 69.9489 15 62.4891Z" fill="#CCCCCC"/>
<path d="M24.5 56C30.5 58.7 36.9 64.6 36.9 73.2" stroke="#AAAAAA" stroke-width="2" stroke-miterlimit="10" stroke-linecap="round" stroke-linejoin="round"/>
<path d="M56.5001 56C50.5001 58.7 44.1001 64.6 44.1001 73.2" stroke="#AAAAAA" stroke-width="2" stroke-miterlimit="10" stroke-linecap="round" stroke-linejoin="round"/>
<path d="M33 35.5996C34.1046 35.5996 35 34.7042 35 33.5996C35 32.495 34.1046 31.5996 33 31.5996C31.8954 31.5996 31 32.495 31 33.5996C31 34.7042 31.8954 35.5996 33 35.5996Z" fill="#AAAAAA"/>
<path d="M47 35.5996C48.1046 35.5996 49 34.7042 49 33.5996C49 32.495 48.1046 31.5996 47 31.5996C45.8954 31.5996 45 32.495 45 33.5996C45 34.7042 45.8954 35.5996 47 35.5996Z" fill="#AAAAAA"/>
<path d="M43 39.6992C41 41.4992 39 41.4992 37 39.6992" stroke="#AAAAAA" stroke-width="2" stroke-miterlimit="10" stroke-linecap="round" stroke-linejoin="round"/>
<path d="M45.9 45C41.9 47.3 38 47.3 34 45" stroke="#AAAAAA" stroke-width="2" stroke-miterlimit="10" stroke-linecap="round" stroke-linejoin="round"/>
<path d="M56.8999 26.5996C57.5999 32.3996 58.1999 40.1996 54.1999 46.5996C50.3999 52.5996 45.1999 56.6996 39.8999 56.6996C30.8999 56.6996 21.2999 44.6996 21.2999 30.9996C21.2999 17.2996 29.7999 7.69959 39.9999 6.29959C47.9999 5.19959 55.2999 11.4996 53.5999 17.9996C52.8999 20.4996 50.6999 22.9996 47.3999 24.8996C39.8999 29.3996 30.7999 28.8996 23.8999 24.3996C20.8999 22.4996 16.4999 15.7996 23.3999 8.29959" stroke="#AAAAAA" stroke-width="2" stroke-miterlimit="10" stroke-linecap="round" stroke-linejoin="round"/>
<path d="M21.6999 38.4999C19.1999 39.0999 16.3999 37.1999 15.2999 34.1999C14.0999 30.8999 15.1999 27.4999 17.8999 26.4999C19.0999 25.9999 20.6999 25.9999 21.6999 26.8999" stroke="#AAAAAA" stroke-width="2" stroke-miterlimit="10" stroke-linecap="round" stroke-linejoin="round"/>
<path d="M57.1 38.6002C59.3 38.5002 61.5001 36.8002 62.4001 34.2002C63.6001 30.9002 62.5 27.5002 59.8 26.5002C58.8 26.1002 57.8 26.2002 56.8 26.5002" stroke="#AAAAAA" stroke-width="2" stroke-miterlimit="10" stroke-linecap="round" stroke-linejoin="round"/>
<path d="M39.9999 30.2C44.7496 30.2 48.5999 26.3496 48.5999 21.6C48.5999 16.8504 44.7496 13 39.9999 13C35.2503 13 31.3999 16.8504 31.3999 21.6C31.3999 26.3496 35.2503 30.2 39.9999 30.2Z" fill="#F2F2F2" stroke="#AAAAAA" stroke-width="2" stroke-miterlimit="10" stroke-linecap="round" stroke-linejoin="round"/>
<path d="M40 23.5996C41.1046 23.5996 42 22.7042 42 21.5996C42 20.495 41.1046 19.5996 40 19.5996C38.8954 19.5996 38 20.495 38 21.5996C38 22.7042 38.8954 23.5996 40 23.5996Z" fill="#AAAAAA"/>
</svg>
