<svg width="1010" height="300" viewBox="0 0 1010 300" fill="none" xmlns="http://www.w3.org/2000/svg">
<path d="M2 132.78C55.7932 74.3325 156.94 27.7327 244.218 21.0992C314.202 15.7857 373.381 28.6568 400.689 83.5237C425.148 132.648 408.331 204.446 350.157 248.537C339.781 256.408 328.053 264.032 314.251 265.55C291.818 268.091 271.971 259.841 266.041 241.491C260.112 223.142 266.453 203.439 276.863 186.492C319.999 116.279 424.917 100.322 506.744 91.1804C714 69 937 137 1008.5 266" stroke="black" stroke-width="3" stroke-miterlimit="10"/>
<rect x="395" y="50" width="200" height="200" rx="20" fill="url(#paint0_linear)"/>
<path d="M413.717 176.914H409.934V188.997H411.634V184.214H413.717C416.667 184.214 418.734 183.564 418.734 180.564C418.734 177.581 416.667 176.914 413.717 176.914ZM411.634 178.347H413.85C415.617 178.347 417 178.597 417 180.564C417 182.547 415.617 182.731 413.85 182.731H411.634V178.347Z" fill="white"/>
<path d="M420.951 185.014H427.851C428.051 182.181 426.401 179.881 423.667 179.881C421.217 179.881 419.317 181.697 419.317 184.531C419.317 187.181 420.884 189.214 423.717 189.214C425.901 189.214 427.317 187.947 427.734 186.397H426.167C425.784 187.281 425.051 187.881 423.717 187.881C422.384 187.881 421.017 186.947 420.951 185.014ZM420.967 183.714C421.101 181.914 422.317 181.181 423.667 181.181C425.267 181.181 426.217 182.447 426.251 183.714H420.967Z" fill="white"/>
<path d="M433.601 178.931C435.501 178.931 436.151 177.914 436.268 176.914H435.085C435.018 177.447 434.585 177.931 433.618 177.931C432.651 177.931 432.235 177.447 432.168 176.914H430.985C431.085 177.914 431.751 178.931 433.601 178.931ZM435.868 182.231V188.997H437.385V180.031H435.868L431.235 186.797V180.031H429.718V188.997H431.235L435.868 182.231Z" fill="white"/>
<path d="M443.505 181.347H446.572V180.031H438.922V181.347H441.989V188.997H443.505V181.347Z" fill="white"/>
<path d="M454.26 182.231V188.997H455.776V180.031H454.26L449.626 186.797V180.031H448.11V188.997H449.626L454.26 182.231Z" fill="white"/>
<path d="M464.297 188.997H465.814V180.031H464.297V183.764H459.864V180.031H458.347V188.997H459.864V185.081H464.297V188.997Z" fill="white"/>
<path d="M469.89 181.347H474.09V180.031H468.373V188.997H469.89V181.347Z" fill="white"/>
<path d="M482.173 185.014L485.257 188.997H487.14L483.407 184.264L486.79 180.031H484.99L482.14 183.697H481.023V180.031H479.49V188.997H481.023V185.014H482.173Z" fill="white"/>
<path d="M495.672 188.997V180.031H489.688L489.555 183.097C489.372 186.814 488.605 187.681 487.805 187.681H487.638V188.997H487.922C490.022 188.997 490.772 187.131 491.005 183.514L491.138 181.347H494.155V188.997H495.672Z" fill="white"/>
<path d="M504.39 182.231V188.997H505.907V180.031H504.39L499.757 186.797V180.031H498.24V188.997H499.757L504.39 182.231Z" fill="white"/>
<path d="M514.428 188.997H515.944V180.031H514.428V183.764H509.994V180.031H508.478V188.997H509.994V185.081H514.428V188.997Z" fill="white"/>
<path d="M524.654 182.231V188.997H526.17V180.031H524.654L520.02 186.797V180.031H518.504V188.997H520.02L524.654 182.231Z" fill="white"/>
<path d="M531.425 185.014L534.508 188.997H536.391L532.658 184.264L536.041 180.031H534.241L531.391 183.697H530.275V180.031H528.741V188.997H530.275V185.014H531.425Z" fill="white"/>
<path d="M543.99 182.231V188.997H545.506V180.031H543.99L539.356 186.797V180.031H537.84V188.997H539.356L543.99 182.231Z" fill="white"/>
<path d="M434.293 224.212V218.412H430.293V201.332H424.173L409.573 219.052V224.212H423.693V230.332H430.293V224.212H434.293ZM416.813 218.412L423.693 209.932V218.412H416.813Z" fill="white"/>
<path d="M435.363 230.332H442.803V223.212H435.363V230.332Z" fill="white"/>
<path d="M467.332 209.012C467.332 203.852 462.892 200.852 456.852 200.852C450.132 200.852 445.252 204.892 445.492 211.772H452.012C451.852 207.132 454.292 205.732 456.652 205.732C458.852 205.732 460.692 206.892 460.692 209.412C460.692 214.172 452.972 219.252 445.172 224.932V230.332H467.452V224.932H453.572C462.132 219.972 467.332 215.132 467.332 209.012Z" fill="white"/>
<path d="M486.281 221.932C486.281 224.572 484.521 225.972 481.641 225.972C479.121 225.972 476.681 224.652 476.241 221.252H469.681C470.441 228.012 475.721 230.852 481.521 230.852C487.561 230.852 493.041 227.892 493.041 221.892C493.041 219.212 491.401 216.132 488.521 215.012C490.561 213.852 492.561 211.452 492.561 208.412C492.561 203.132 487.081 200.852 481.961 200.852C476.121 200.852 470.641 203.412 470.041 209.772H476.561C477.001 206.692 479.161 205.732 481.641 205.732C483.801 205.732 485.921 206.852 485.921 208.972C485.921 211.532 483.601 212.772 479.841 212.772H478.121V218.212H480.041C483.761 218.212 486.281 219.412 486.281 221.932Z" fill="white"/>
<rect x="505" y="203.332" width="13.5085" height="26.6667" rx="5" fill="url(#paint1_linear)"/>
<rect x="536.579" y="203.332" width="13.5085" height="26.6667" rx="5" fill="url(#paint2_linear)"/>
<rect x="520.789" y="203.332" width="13.5085" height="26.6667" rx="5" fill="url(#paint3_linear)"/>
<rect x="552.369" y="203.332" width="13.5085" height="26.6667" rx="5" fill="url(#paint4_linear)"/>
<rect opacity="0.5" x="570.158" y="205.332" width="9.50845" height="22.6667" rx="3" fill="white" stroke="white" stroke-width="4"/>
<g clip-path="url(#clip0)">
<path fill-rule="evenodd" clip-rule="evenodd" d="M581.53 66.668H580.009L579.231 69.2581H578.85L578.067 66.668H576.543L577.676 69.9713L576.448 73.3321H577.979L578.855 70.6845H579.231L580.106 73.3321H581.63L580.399 69.9713L581.53 66.668ZM573.522 73.3346L573.38 71.7656H571.723L571.58 73.3346H570.154L570.792 66.668H574.296L574.944 73.3296L573.522 73.3346ZM572.048 68.0994L571.841 70.3366H573.257L573.049 68.0994H572.048ZM568.72 71.3351H565.672V73.3371H564.243V66.668H568.72V71.3351ZM567.289 68.0994H565.672V69.9212H567.289V68.0994ZM562.596 68.0994H561.075V73.3346H559.646V68.0994H558.124V66.668H562.596V68.0944V68.0994ZM556.658 68.7475H555.229V68.0994H553.878V71.9082H555.229V71.2601H556.658V73.3346H552.454V66.668H556.658V68.7475ZM550.452 68.7475H549.023V68.0994H547.671V71.9082H549.023V71.2601H550.452V73.3346H546.253V66.668H550.452V68.7475ZM544.426 73.3346H539.954V66.668H544.426V73.3346ZM542.999 68.0994H541.38V71.9082H542.999V68.0994ZM538.585 68.0994H536.263V73.3346H534.836V66.668H538.59V68.0944L538.585 68.0994ZM532.847 68.7475H531.418V68.0994H530.066V71.9082H531.418V71.2601H532.847V73.3346H528.64V66.668H532.847V68.7475ZM526.5 73.3346H522.026V66.668H526.5V73.3346ZM525.074 68.0994H523.455V71.9082H525.074V68.0994ZM520.141 71.3351H517.093V73.3371H515.667V66.668H520.141V71.3351ZM518.713 68.0994H517.093V69.9212H518.713V68.0994Z" fill="white"/>
</g>
<g clip-path="url(#clip1)">
<path d="M433.859 105.186C433.885 105.679 433.791 106.17 433.585 106.619C433.512 106.768 433.42 106.906 433.311 107.031H436.802V102.257H433.859V105.186ZM427.141 102.122C426.582 102.102 426.034 102.285 425.599 102.637C425.164 102.989 424.871 103.486 424.774 104.037H429.478C429.394 103.486 429.109 102.985 428.678 102.631C428.246 102.278 427.699 102.097 427.141 102.122ZM442.299 97.9688H410.247C409.846 97.9688 409.461 98.1278 409.178 98.4108C408.895 98.6938 408.735 99.0777 408.735 99.4779V109.807C408.735 110.207 408.895 110.591 409.178 110.874C409.461 111.157 409.846 111.316 410.247 111.316H442.303C442.704 111.316 443.088 111.157 443.372 110.874C443.655 110.591 443.814 110.207 443.814 109.807V99.4918C443.814 99.0915 443.655 98.7077 443.372 98.4246C443.088 98.1416 442.704 97.9826 442.303 97.9826L442.299 97.9688ZM421.99 108.069H420.895V102.6V102.462H420.871L418.843 106.702H417.405L415.366 102.462H415.339V102.6V108.069H414.257V101.233H415.9L417.952 105.47H418.299L420.351 101.233H421.99V108.069ZM430.632 104.992H424.739C424.791 105.59 425.066 106.147 425.51 106.552C425.954 106.957 426.533 107.181 427.134 107.18C427.768 107.194 428.385 106.974 428.868 106.564C429.073 106.388 429.248 106.182 429.388 105.951H430.479C430.322 106.369 430.086 106.754 429.786 107.086C429.448 107.45 429.036 107.737 428.579 107.93C428.121 108.122 427.628 108.216 427.131 108.204C426.427 108.218 425.735 108.023 425.142 107.643C424.549 107.264 424.082 106.717 423.8 106.073C423.518 105.429 423.434 104.715 423.558 104.023C423.682 103.331 424.009 102.691 424.498 102.185C424.986 101.678 425.614 101.327 426.302 101.177C426.99 101.027 427.707 101.084 428.362 101.341C429.018 101.597 429.582 102.043 429.985 102.62C430.387 103.197 430.608 103.881 430.622 104.584L430.632 104.992ZM438.927 109.603H437.831V108.069H432.424V109.603H431.325V107.045H432.081C432.229 106.968 432.35 106.847 432.427 106.699C432.684 106.231 432.804 105.701 432.774 105.169V101.233H437.897V107.045H438.937L438.927 109.603Z" fill="white"/>
<path d="M408.735 66.1016H411.425L414.656 74.9594H414.808L418.077 66.1016H420.729V76.3371H419.079V68.1784L419.1 67.9742H418.951L415.918 76.3371H413.554L410.503 67.9569H410.351L410.371 68.1611V76.3371H408.735V66.1016Z" fill="white"/>
<path d="M434.538 66.1016H436.174V74.3294L436.146 74.5406H436.299L441.505 66.1016H443.81V76.3405H442.174V68.1784L442.195 67.9707H442.046L436.871 76.3371H434.538V66.1016Z" fill="white"/>
<path d="M454.352 81.8867H455.988V90.0973L455.96 90.3084H456.112L461.312 81.8867H463.617V92.1084H461.981V83.9324L462.005 83.7248H461.853L456.684 92.1049H454.352V81.8867Z" fill="white"/>
<path d="M427.633 65.9518C428.337 65.9306 429.038 66.0537 429.693 66.3133C430.347 66.573 430.942 66.9638 431.439 67.4616C431.937 67.9594 432.327 68.5537 432.586 69.2078C432.845 69.862 432.966 70.5621 432.944 71.2651C432.966 71.9681 432.845 72.6682 432.586 73.3223C432.327 73.9765 431.937 74.5708 431.439 75.0686C430.942 75.5664 430.347 75.9572 429.693 76.2169C429.038 76.4765 428.337 76.5996 427.633 76.5784C426.929 76.6006 426.227 76.4782 425.572 76.219C424.916 75.9598 424.321 75.5691 423.823 75.0712C423.325 74.5733 422.934 73.9787 422.675 73.324C422.416 72.6694 422.294 71.9687 422.316 71.2651C422.294 70.5615 422.416 69.8608 422.675 69.2062C422.934 68.5515 423.325 67.9569 423.823 67.459C424.321 66.9611 424.916 66.5704 425.572 66.3112C426.227 66.052 426.929 65.9296 427.633 65.9518ZM427.633 75.045C429.762 75.045 431.315 73.4943 431.315 71.2651C431.315 69.0359 429.762 67.4852 427.633 67.4852C425.505 67.4852 423.952 69.0359 423.952 71.2651C423.952 73.4943 425.509 75.045 427.633 75.045Z" fill="white"/>
<path d="M413.446 81.73C414.547 81.6886 415.631 82.0189 416.521 82.6676C417.412 83.3163 418.057 84.2457 418.354 85.3057H416.718C416.551 84.926 416.316 84.58 416.025 84.2846C415.688 83.9409 415.283 83.6711 414.836 83.4923C414.389 83.3135 413.91 83.2297 413.428 83.2462C411.467 83.2462 409.962 84.8003 409.962 87.0261C409.962 89.2518 411.577 90.8094 413.428 90.8094C413.93 90.8284 414.43 90.7376 414.893 90.5432C415.356 90.3489 415.77 90.0558 416.108 89.6845C416.411 89.3591 416.647 88.9767 416.801 88.5595H418.455C418.277 89.2511 417.957 89.8983 417.515 90.4598C417.033 91.0712 416.413 91.5604 415.706 91.8876C414.999 92.2148 414.225 92.3708 413.446 92.3429C410.583 92.3602 408.333 90.1102 408.333 87.0434C408.333 83.9765 410.583 81.73 413.446 81.73Z" fill="white"/>
<path d="M424.888 81.7276C425.578 81.7135 426.263 81.8387 426.902 82.0957C427.542 82.3527 428.123 82.7362 428.61 83.2232C429.097 83.7101 429.481 84.2905 429.738 84.9293C429.995 85.5682 430.12 86.2523 430.105 86.9406V87.5602H421.311C421.388 88.4539 421.799 89.286 422.461 89.8918C423.124 90.4976 423.99 90.8329 424.888 90.8313C425.839 90.8548 426.765 90.5269 427.488 89.9105C427.795 89.6476 428.057 89.3366 428.265 88.9898H429.901C429.663 89.616 429.31 90.1924 428.861 90.6893C428.356 91.2341 427.741 91.6652 427.057 91.9541C426.373 92.243 425.635 92.3829 424.892 92.3647C421.928 92.3647 419.692 90.1147 419.692 87.0479C419.692 83.981 421.925 81.7276 424.888 81.7276ZM428.355 86.1237C428.23 85.3046 427.808 84.56 427.168 84.032C426.529 83.504 425.717 83.2296 424.888 83.2611C424.052 83.2319 423.234 83.5055 422.584 84.0317C421.934 84.5578 421.497 85.3008 421.353 86.1237H428.355Z" fill="white"/>
<path d="M431.692 81.9315H433.328V83.4753H433.471L433.658 83.1672C433.984 82.655 435.218 81.7273 437.183 81.7273C437.881 81.7156 438.574 81.8458 439.219 82.1098C439.865 82.3739 440.451 82.7663 440.94 83.2633C441.429 83.7603 441.812 84.3514 442.065 85.0007C442.319 85.6501 442.437 86.3441 442.414 87.0406C442.426 87.7344 442.3 88.4237 442.043 89.0682C441.785 89.7128 441.402 90.2997 440.915 90.7946C440.428 91.2896 439.847 91.6827 439.207 91.9511C438.566 92.2194 437.878 92.3575 437.183 92.3574C435.238 92.3574 434.004 91.5197 433.675 90.9728L433.471 90.6751H433.328V95.8985H431.692V81.9315ZM437.103 90.824C437.597 90.8286 438.087 90.733 438.543 90.5431C438.998 90.3532 439.411 90.0729 439.755 89.7192C440.099 89.3655 440.368 88.9458 440.545 88.4853C440.722 88.0249 440.803 87.5334 440.784 87.0406C440.803 86.5481 440.721 86.057 440.544 85.597C440.366 85.1369 440.098 84.7176 439.754 84.3643C439.41 84.0109 438.997 83.731 438.542 83.5413C438.086 83.3516 437.597 83.2562 437.103 83.2607C436.119 83.2905 435.185 83.7019 434.499 84.4079C433.813 85.1138 433.429 86.0587 433.429 87.0423C433.429 88.0259 433.813 88.9709 434.499 89.6768C435.185 90.3828 436.119 90.7942 437.103 90.824Z" fill="white"/>
<path d="M444.005 81.9336H449.236C451.197 81.9336 452.303 83.0378 452.303 84.4881C452.303 86.3296 450.83 86.6827 450.667 86.6827V86.8316C451.241 86.8995 451.768 87.1788 452.147 87.6148C452.525 88.0508 452.727 88.6121 452.712 89.1888C452.712 90.9195 451.485 92.1553 449.246 92.1553H444.005V81.9336ZM449.145 86.1254C450.185 86.1254 450.681 85.6131 450.681 84.7962C450.681 83.9793 450.189 83.467 449.145 83.467H445.641V86.1254H449.145ZM449.249 90.6253C450.476 90.6253 451.09 90.0126 451.09 89.0919C451.09 88.1711 450.476 87.5619 449.236 87.5619H445.641V90.6288L449.249 90.6253Z" fill="white"/>
<path d="M470.328 81.7654C471.43 81.7225 472.514 82.0527 473.404 82.7024C474.294 83.3521 474.939 84.2832 475.232 85.3446H473.596C473.328 84.7092 472.871 84.1718 472.286 83.8057C471.701 83.4396 471.017 83.2626 470.328 83.2989C468.362 83.2989 466.861 84.8531 466.861 87.0822C466.861 89.3114 468.477 90.8621 470.328 90.8621C470.829 90.8823 471.329 90.7919 471.791 90.5975C472.254 90.4031 472.668 90.1094 473.004 89.7372C473.309 89.4132 473.545 89.0304 473.697 88.6122H475.333C475.153 89.3041 474.833 89.952 474.394 90.516C473.912 91.1272 473.292 91.6166 472.586 91.9449C471.88 92.2732 471.106 92.4311 470.328 92.4059C467.461 92.4059 465.215 90.156 465.215 87.0926C465.215 84.0292 467.461 81.7654 470.328 81.7654Z" fill="white"/>
<path d="M475.153 75.2188H446.112V76.3403H475.153V75.2188Z" fill="white"/>
<path d="M441.665 63.332H436.685V64.5885H441.665V63.332Z" fill="white"/>
</g>
<path d="M245 21.0992C314.842 15.7857 373.901 28.6568 401.154 83.5237C425.563 132.648 408.781 204.446 350.724 248.537C340.369 256.408 328.666 264.032 314.891 265.55C292.504 268.091 272.697 259.841 266.779 241.491C260.862 223.142 267.19 203.439 277.579 186.492" stroke="black" stroke-width="3" stroke-miterlimit="10"/>
<defs>
<linearGradient id="paint0_linear" x1="464.444" y1="50" x2="570.709" y2="218.34" gradientUnits="userSpaceOnUse">
<stop stop-color="#40B2C9"/>
<stop offset="1" stop-color="#55DF94"/>
</linearGradient>
<linearGradient id="paint1_linear" x1="511.754" y1="203.332" x2="511.754" y2="229.999" gradientUnits="userSpaceOnUse">
<stop stop-color="white"/>
<stop offset="1" stop-color="white" stop-opacity="0.85"/>
</linearGradient>
<linearGradient id="paint2_linear" x1="543.333" y1="203.332" x2="543.333" y2="229.999" gradientUnits="userSpaceOnUse">
<stop stop-color="white"/>
<stop offset="1" stop-color="white" stop-opacity="0.85"/>
</linearGradient>
<linearGradient id="paint3_linear" x1="527.543" y1="203.332" x2="527.543" y2="229.999" gradientUnits="userSpaceOnUse">
<stop stop-color="white"/>
<stop offset="1" stop-color="white" stop-opacity="0.85"/>
</linearGradient>
<linearGradient id="paint4_linear" x1="559.123" y1="203.332" x2="559.123" y2="229.999" gradientUnits="userSpaceOnUse">
<stop stop-color="white"/>
<stop offset="1" stop-color="white" stop-opacity="0.85"/>
</linearGradient>
<clipPath id="clip0">
<rect width="65.9609" height="6.66667" fill="white" transform="translate(515.667 66.668)"/>
</clipPath>
<clipPath id="clip1">
<rect width="67" height="48" fill="white" transform="translate(408.333 63.332)"/>
</clipPath>
</defs>
</svg>
