<svg width="110" height="110" viewBox="0 0 110 110" fill="none" xmlns="http://www.w3.org/2000/svg">
<path d="M0 20C0 8.95431 8.95431 0 20 0H90C101.046 0 110 8.95431 110 20V90C110 101.046 101.046 110 90 110H20C8.95431 110 0 101.046 0 90V20Z" fill="url(#paint0_linear)"/>
<path d="M30.172 67.5988V63.5388H27.372V51.5828H23.088L12.868 63.9868V67.5988H22.752V71.8828H27.372V67.5988H30.172ZM17.936 63.5388L22.752 57.6028V63.5388H17.936ZM31.4806 71.8828H36.6886V66.8988H31.4806V71.8828ZM49.9109 63.8748C49.9669 67.2908 48.4269 68.8868 46.2429 68.8868C44.8149 68.8868 43.5829 68.2988 43.3589 66.3948H38.8229C39.0469 69.6148 41.2869 72.2468 46.0189 72.2468C52.2069 72.2468 54.7269 67.2348 54.7269 61.2708C54.7269 55.6428 52.3189 51.2468 46.5509 51.2468C41.9029 51.2468 38.5989 53.9908 38.5989 58.2748C38.5989 62.4188 41.8469 65.3588 45.5149 65.3588C47.5589 65.3588 48.9029 64.7708 49.9109 63.8748ZM46.5509 54.6628C48.5669 54.6628 49.8269 56.0908 49.8269 58.2748C49.8269 60.4868 48.5389 61.8868 46.5509 61.8868C44.5629 61.8868 43.3309 60.3748 43.3309 58.2748C43.3309 56.0908 44.5629 54.6628 46.5509 54.6628ZM72.5555 56.9588C72.5555 53.3468 69.4475 51.2468 65.2195 51.2468C60.5155 51.2468 57.0995 54.0748 57.2675 58.8908H61.8315C61.7195 55.6428 63.4275 54.6628 65.0795 54.6628C66.6195 54.6628 67.9075 55.4748 67.9075 57.2388C67.9075 60.5708 62.5035 64.1268 57.0435 68.1028V71.8828H72.6395V68.1028H62.9235C68.9155 64.6308 72.5555 61.2428 72.5555 56.9588Z" fill="white"/>
<rect x="12" y="82" width="6" height="12" rx="2" fill="url(#paint1_linear)"/>
<rect x="28" y="82" width="6" height="12" rx="2" fill="url(#paint2_linear)"/>
<rect x="20" y="82" width="6" height="12" rx="2" fill="url(#paint3_linear)"/>
<rect x="36" y="82" width="6" height="12" rx="2" fill="url(#paint4_linear)"/>
<rect x="44" y="82" width="6" height="12" rx="2" fill="url(#paint5_linear)"/>
<path d="M15.756 13.2141H12.96V21.9141H14.328V18.5421H15.756C17.856 18.5421 19.404 18.0741 19.404 15.8901C19.404 13.6101 17.772 13.2141 15.756 13.2141ZM14.328 14.3421H15.804C16.98 14.3421 17.988 14.4861 17.988 15.9021C17.988 17.2461 17.052 17.3901 15.84 17.3901H14.328V14.3421ZM24.6857 20.0181C24.4217 20.6301 23.8937 21.0021 22.9937 21.0021C21.9857 21.0021 21.2297 20.2581 21.1097 19.0701H26.0297C26.1617 16.9701 24.9977 15.3381 23.0057 15.3381C21.1697 15.3381 19.8257 16.6701 19.8257 18.6741C19.8257 20.5461 20.9537 22.0701 23.0417 22.0701C24.6857 22.0701 25.6457 21.0861 25.9457 20.0181H24.6857ZM21.1337 18.0861C21.3017 16.8621 22.0217 16.3581 22.9937 16.3581C24.0257 16.3581 24.6977 17.1261 24.7337 18.0861H21.1337ZM30.2058 14.6661C31.5738 14.6661 32.0778 13.9941 32.1618 13.2141H31.2258C31.1778 13.6221 30.8778 13.9101 30.2178 13.9101C29.5578 13.9101 29.2818 13.6221 29.2338 13.2141H28.2858C28.3578 13.9941 28.8738 14.6661 30.2058 14.6661ZM27.3258 21.9141H28.5498L31.7058 17.2581V21.9141H32.9298V15.4581H31.7058L28.5498 20.1261V15.4581H27.3258V21.9141ZM37.54 16.4541H39.808V15.4581H34.012V16.4541H36.292V21.9141H37.54V16.4541ZM40.8844 21.9141H42.1084L45.2644 17.2581V21.9141H46.4884V15.4581H45.2644L42.1084 20.1261V15.4581H40.8844V21.9141ZM52.6943 21.9141H53.9423V15.4581H52.6943V18.1101H49.5503V15.4581H48.3023V21.9141H49.5503V19.1061H52.6943V21.9141ZM56.9918 16.4541H59.9918V15.4581H55.7438V21.9141H56.9918V16.4541ZM15.816 29.4581H12.9V35.9141H15.996C17.412 35.9141 18.468 35.3741 18.468 34.0061C18.468 33.1541 17.976 32.6981 17.328 32.5061C17.892 32.2541 18.204 31.7741 18.204 31.1141C18.204 29.7941 17.136 29.4581 15.816 29.4581ZM15.72 32.1341H14.148V30.4541H15.696C16.452 30.4541 16.932 30.6101 16.932 31.2701C16.932 31.9301 16.464 32.1341 15.72 32.1341ZM14.148 34.9181V33.0821H15.792C16.716 33.0821 17.184 33.3101 17.184 33.9821C17.184 34.6421 16.716 34.9181 15.816 34.9181H14.148ZM20.9786 29.4581H19.7306V38.0141H20.9786V35.0021C21.3746 35.6621 22.0466 36.0701 22.9946 36.0701C24.4946 36.0701 25.7786 34.8101 25.7786 32.6981C25.7786 30.5981 24.4946 29.3381 22.9946 29.3381C22.0466 29.3381 21.3746 29.7461 20.9786 30.4061V29.4581ZM22.7066 35.0261C21.7466 35.0261 20.9306 34.2941 20.9306 32.6981C20.9306 31.1021 21.7466 30.3821 22.7066 30.3821C23.7386 30.3821 24.4466 31.2461 24.4466 32.6981C24.4466 34.1501 23.7386 35.0261 22.7066 35.0261ZM26.6357 34.1741C26.6357 35.3501 27.6317 36.0701 28.9397 36.0701C29.9837 36.0701 30.7157 35.7101 31.0997 35.0621C31.1237 35.4701 31.1597 35.6621 31.2077 35.9141H32.4077C32.2877 35.3381 32.2277 34.5461 32.2277 33.5861C32.2277 33.3101 32.2517 32.1941 32.2517 32.0381C32.2757 30.1061 31.3157 29.3021 29.6477 29.3021C28.1717 29.3021 27.0437 30.1301 26.9357 31.4981H28.1957C28.2437 30.7061 28.7357 30.2621 29.5997 30.2621C30.3917 30.2621 30.9917 30.6461 30.9917 31.7861V31.9181C28.4837 32.1821 26.6357 32.6021 26.6357 34.1741ZM31.0517 32.8421V33.3101C31.0517 34.5941 30.2477 35.1101 29.2157 35.1101C28.4597 35.1101 27.9917 34.7381 27.9917 34.1501C27.9917 33.3101 29.0477 33.0341 31.0517 32.8421ZM37.4771 35.9141H38.7251V29.4581H37.4771V32.3621C36.9251 32.4941 36.4931 32.5661 36.0851 32.5661C35.1971 32.5661 34.7651 32.2421 34.7651 31.3541V29.4581H33.5171V31.5941C33.5171 32.9861 34.2611 33.6101 35.6051 33.6101C36.1931 33.6101 36.7571 33.5261 37.4771 33.3581V35.9141ZM40.0771 34.1741C40.0771 35.3501 41.0731 36.0701 42.3811 36.0701C43.4251 36.0701 44.1571 35.7101 44.5411 35.0621C44.5651 35.4701 44.6011 35.6621 44.6491 35.9141H45.8491C45.7291 35.3381 45.6691 34.5461 45.6691 33.5861C45.6691 33.3101 45.6931 32.1941 45.6931 32.0381C45.7171 30.1061 44.7571 29.3021 43.0891 29.3021C41.6131 29.3021 40.4851 30.1301 40.3771 31.4981H41.6371C41.6851 30.7061 42.1771 30.2621 43.0411 30.2621C43.8331 30.2621 44.4331 30.6461 44.4331 31.7861V31.9181C41.9251 32.1821 40.0771 32.6021 40.0771 34.1741ZM44.4931 32.8421V33.3101C44.4931 34.5941 43.6891 35.1101 42.6571 35.1101C41.9011 35.1101 41.4331 34.7381 41.4331 34.1501C41.4331 33.3101 42.4891 33.0341 44.4931 32.8421Z" fill="white"/>
<defs>
<linearGradient id="paint0_linear" x1="38.1944" y1="-3.4877e-06" x2="96.6401" y2="92.5872" gradientUnits="userSpaceOnUse">
<stop stop-color="#40B2C9"/>
<stop offset="1" stop-color="#55DF94"/>
</linearGradient>
<linearGradient id="paint1_linear" x1="15" y1="82" x2="15" y2="94" gradientUnits="userSpaceOnUse">
<stop stop-color="white"/>
<stop offset="1" stop-color="white" stop-opacity="0.85"/>
</linearGradient>
<linearGradient id="paint2_linear" x1="31" y1="82" x2="31" y2="94" gradientUnits="userSpaceOnUse">
<stop stop-color="white"/>
<stop offset="1" stop-color="white" stop-opacity="0.85"/>
</linearGradient>
<linearGradient id="paint3_linear" x1="23" y1="82" x2="23" y2="94" gradientUnits="userSpaceOnUse">
<stop stop-color="white"/>
<stop offset="1" stop-color="white" stop-opacity="0.85"/>
</linearGradient>
<linearGradient id="paint4_linear" x1="39" y1="82" x2="39" y2="94" gradientUnits="userSpaceOnUse">
<stop stop-color="white"/>
<stop offset="1" stop-color="white" stop-opacity="0.85"/>
</linearGradient>
<linearGradient id="paint5_linear" x1="47" y1="82" x2="47" y2="94" gradientUnits="userSpaceOnUse">
<stop stop-color="white"/>
<stop offset="1" stop-color="white" stop-opacity="0.85"/>
</linearGradient>
</defs>
</svg>
