<svg width="110" height="110" viewBox="0 0 110 110" fill="none" xmlns="http://www.w3.org/2000/svg">
<path d="M55 0C85.3875 0 110 24.6125 110 55C110 85.3875 85.3875 110 55 110C24.6125 110 0 85.3875 0 55C0 24.6125 24.6125 0 55 0Z" fill="#F2F2F2"/>
<path d="M20.625 85.9224C20.625 75.6651 35.9783 67.375 55 67.375C74.0217 67.375 89.375 75.6651 89.375 85.9224C89.375 96.1797 74.0217 105.875 55 105.875C35.9783 105.875 20.625 96.1797 20.625 85.9224Z" fill="url(#paint0_linear)"/>
<path d="M33.6875 77C41.9375 80.7125 50.7375 88.825 50.7375 100.65" stroke="#1D1B1C" stroke-width="2" stroke-miterlimit="10" stroke-linecap="round" stroke-linejoin="round"/>
<path d="M77.6872 77C69.4372 80.7125 60.6372 88.825 60.6372 100.65" stroke="#1D1B1C" stroke-width="2" stroke-miterlimit="10" stroke-linecap="round" stroke-linejoin="round"/>
<path d="M45.375 48.9492C46.8938 48.9492 48.125 47.718 48.125 46.1992C48.125 44.6804 46.8938 43.4492 45.375 43.4492C43.8562 43.4492 42.625 44.6804 42.625 46.1992C42.625 47.718 43.8562 48.9492 45.375 48.9492Z" fill="#1D1B1C"/>
<path d="M64.625 48.9492C66.1438 48.9492 67.375 47.718 67.375 46.1992C67.375 44.6804 66.1438 43.4492 64.625 43.4492C63.1062 43.4492 61.875 44.6804 61.875 46.1992C61.875 47.718 63.1062 48.9492 64.625 48.9492Z" fill="#1D1B1C"/>
<path d="M59.125 54.5859C56.375 57.0609 53.625 57.0609 50.875 54.5859" stroke="#1D1B1C" stroke-width="2" stroke-miterlimit="10" stroke-linecap="round" stroke-linejoin="round"/>
<path d="M63.1125 61.875C57.6125 65.0375 52.25 65.0375 46.75 61.875" stroke="#1D1B1C" stroke-width="2" stroke-miterlimit="10" stroke-linecap="round" stroke-linejoin="round"/>
<path d="M78.237 36.5737C79.1995 44.5487 80.0244 55.2737 74.5245 64.0737C69.2995 72.3237 62.1495 77.9612 54.862 77.9612C42.487 77.9612 29.287 61.4612 29.287 42.6237C29.287 23.7862 40.9745 10.5862 54.9995 8.66121C65.9994 7.14871 76.0369 15.8112 73.6994 24.7487C72.7369 28.1862 69.712 31.6237 65.1745 34.2362C54.862 40.4237 42.3495 39.7362 32.862 33.5487C28.737 30.9362 22.687 21.7237 32.1745 11.4112" stroke="#1D1B1C" stroke-width="2" stroke-miterlimit="10" stroke-linecap="round" stroke-linejoin="round"/>
<path d="M29.8374 52.9384C26.3999 53.7634 22.5499 51.1509 21.0374 47.0259C19.3874 42.4884 20.8999 37.8134 24.6124 36.4384C26.2624 35.7509 28.4624 35.7509 29.8374 36.9884" stroke="#1D1B1C" stroke-width="2" stroke-miterlimit="10" stroke-linecap="round" stroke-linejoin="round"/>
<path d="M78.5126 53.0745C81.5376 52.937 84.5626 50.5995 85.8001 47.0245C87.4501 42.487 85.9376 37.812 82.2251 36.437C80.8501 35.887 79.4751 36.0245 78.1001 36.437" stroke="#1D1B1C" stroke-width="2" stroke-miterlimit="10" stroke-linecap="round" stroke-linejoin="round"/>
<path d="M55.0003 41.525C61.5311 41.525 66.8253 36.2308 66.8253 29.7C66.8253 23.1692 61.5311 17.875 55.0003 17.875C48.4695 17.875 43.1753 23.1692 43.1753 29.7C43.1753 36.2308 48.4695 41.525 55.0003 41.525Z" fill="#F2F2F2" stroke="#1D1B1C" stroke-width="2" stroke-miterlimit="10" stroke-linecap="round" stroke-linejoin="round"/>
<path d="M55 32.4492C56.5188 32.4492 57.75 31.218 57.75 29.6992C57.75 28.1804 56.5188 26.9492 55 26.9492C53.4812 26.9492 52.25 28.1804 52.25 29.6992C52.25 31.218 53.4812 32.4492 55 32.4492Z" fill="#1D1B1C"/>
<defs>
<linearGradient id="paint0_linear" x1="20.625" y1="86.625" x2="68.4426" y2="129.319" gradientUnits="userSpaceOnUse">
<stop stop-color="#00B0D7"/>
<stop offset="0.833333" stop-color="#21CDD8"/>
</linearGradient>
</defs>
</svg>
