<svg width="110" height="110" viewBox="0 0 110 110" fill="none" xmlns="http://www.w3.org/2000/svg">
<path d="M0 20C0 8.95431 8.95431 0 20 0H90C101.046 0 110 8.95431 110 20V90C110 101.046 101.046 110 90 110H20C8.95431 110 0 101.046 0 90V20Z" fill="url(#paint0_linear)"/>
<path d="M30.172 68.716V64.656H27.372V52.7H23.088L12.868 65.104V68.716H22.752V73H27.372V68.716H30.172ZM17.936 64.656L22.752 58.72V64.656H17.936ZM31.4806 73H36.6886V68.016H31.4806V73ZM50.1629 66.308C50.1629 68.66 48.6229 69.948 46.5789 69.948C44.7869 69.948 43.2749 69.108 42.8829 66.756H38.4309C39.0749 71.096 42.4629 73.364 46.6349 73.364C51.1149 73.364 54.9229 70.928 54.9229 66.28C54.9229 61.548 51.4229 59.196 47.7829 59.196C46.3549 59.196 44.7029 59.588 43.7509 60.26L44.2269 56.452H53.9709V52.7H40.3909L38.9629 64.208L43.1909 64.628C43.8909 63.34 45.0669 62.612 46.6629 62.612C48.4549 62.612 50.1629 63.816 50.1629 66.308ZM61.5795 60.736C61.5235 57.292 63.0635 55.696 65.2195 55.696C66.6755 55.696 67.9075 56.312 68.1315 58.216H72.6675C72.4435 54.996 70.2035 52.364 65.4715 52.364C59.2555 52.364 56.7635 57.376 56.7635 63.34C56.7635 68.968 59.1715 73.364 64.9395 73.364C69.5595 73.364 72.8915 70.62 72.8915 66.336C72.8915 62.192 69.6155 59.252 65.9475 59.252C63.9315 59.252 62.5875 59.84 61.5795 60.736ZM64.9395 69.948C62.9235 69.948 61.6355 68.52 61.6355 66.336C61.6355 64.124 62.9515 62.724 64.9395 62.724C66.9275 62.724 68.1595 64.236 68.1595 66.336C68.1595 68.52 66.9275 69.948 64.9395 69.948Z" fill="white"/>
<rect x="12" y="82" width="6" height="12" rx="2" fill="url(#paint1_linear)"/>
<rect x="28" y="82" width="6" height="12" rx="2" fill="url(#paint2_linear)"/>
<rect x="20" y="82" width="6" height="12" rx="2" fill="url(#paint3_linear)"/>
<rect x="36" y="82" width="6" height="12" rx="2" fill="url(#paint4_linear)"/>
<rect x="44" y="82" width="6" height="12" rx="2" fill="url(#paint5_linear)"/>
<path d="M15.756 14.3H12.96V23H14.328V19.628H15.756C17.856 19.628 19.404 19.16 19.404 16.976C19.404 14.696 17.772 14.3 15.756 14.3ZM14.328 15.428H15.804C16.98 15.428 17.988 15.572 17.988 16.988C17.988 18.332 17.052 18.476 15.84 18.476H14.328V15.428ZM24.6857 21.104C24.4217 21.716 23.8937 22.088 22.9937 22.088C21.9857 22.088 21.2297 21.344 21.1097 20.156H26.0297C26.1617 18.056 24.9977 16.424 23.0057 16.424C21.1697 16.424 19.8257 17.756 19.8257 19.76C19.8257 21.632 20.9537 23.156 23.0417 23.156C24.6857 23.156 25.6457 22.172 25.9457 21.104H24.6857ZM21.1337 19.172C21.3017 17.948 22.0217 17.444 22.9937 17.444C24.0257 17.444 24.6977 18.212 24.7337 19.172H21.1337ZM30.2058 15.752C31.5738 15.752 32.0778 15.08 32.1618 14.3H31.2258C31.1778 14.708 30.8778 14.996 30.2178 14.996C29.5578 14.996 29.2818 14.708 29.2338 14.3H28.2858C28.3578 15.08 28.8738 15.752 30.2058 15.752ZM27.3258 23H28.5498L31.7058 18.344V23H32.9298V16.544H31.7058L28.5498 21.212V16.544H27.3258V23ZM37.54 17.54H39.808V16.544H34.012V17.54H36.292V23H37.54V17.54ZM40.8844 23H42.1084L45.2644 18.344V23H46.4884V16.544H45.2644L42.1084 21.212V16.544H40.8844V23ZM52.6943 23H53.9423V16.544H52.6943V19.196H49.5503V16.544H48.3023V23H49.5503V20.192H52.6943V23ZM56.9918 17.54H59.9918V16.544H55.7438V23H56.9918V17.54ZM14.904 34.156L17.076 37H18.576L15.924 33.628L18.36 30.544H16.908L14.94 33.16H14.148V30.544H12.9V37H14.148V34.156H14.904ZM24.8474 37V30.544H20.4314L20.3354 32.56C20.2154 35.032 19.8314 36.004 19.0634 36.004H18.9314V37H19.1594C20.8394 37 21.4034 35.464 21.5354 32.752L21.5954 31.54H23.5994V37H24.8474ZM26.6461 37H27.8701L31.0261 32.344V37H32.2501V30.544H31.0261L27.8701 35.212V30.544H26.6461V37ZM38.4561 37H39.7041V30.544H38.4561V33.196H35.3121V30.544H34.0641V37H35.3121V34.192H38.4561V37ZM41.5055 37H42.7295L45.8855 32.344V37H47.1095V30.544H45.8855L42.7295 35.212V30.544H41.5055V37ZM50.9274 34.156L53.0994 37H54.5994L51.9474 33.628L54.3834 30.544H52.9314L50.9634 33.16H50.1714V30.544H48.9234V37H50.1714V34.156H50.9274ZM55.6148 37H56.8388L59.9948 32.344V37H61.2188V30.544H59.9948L56.8388 35.212V30.544H55.6148V37Z" fill="white"/>
<defs>
<linearGradient id="paint0_linear" x1="38.1944" y1="-3.4877e-06" x2="96.6401" y2="92.5872" gradientUnits="userSpaceOnUse">
<stop stop-color="#40B2C9"/>
<stop offset="1" stop-color="#55DF94"/>
</linearGradient>
<linearGradient id="paint1_linear" x1="15" y1="82" x2="15" y2="94" gradientUnits="userSpaceOnUse">
<stop stop-color="white"/>
<stop offset="1" stop-color="white" stop-opacity="0.85"/>
</linearGradient>
<linearGradient id="paint2_linear" x1="31" y1="82" x2="31" y2="94" gradientUnits="userSpaceOnUse">
<stop stop-color="white"/>
<stop offset="1" stop-color="white" stop-opacity="0.85"/>
</linearGradient>
<linearGradient id="paint3_linear" x1="23" y1="82" x2="23" y2="94" gradientUnits="userSpaceOnUse">
<stop stop-color="white"/>
<stop offset="1" stop-color="white" stop-opacity="0.85"/>
</linearGradient>
<linearGradient id="paint4_linear" x1="39" y1="82" x2="39" y2="94" gradientUnits="userSpaceOnUse">
<stop stop-color="white"/>
<stop offset="1" stop-color="white" stop-opacity="0.85"/>
</linearGradient>
<linearGradient id="paint5_linear" x1="47" y1="82" x2="47" y2="94" gradientUnits="userSpaceOnUse">
<stop stop-color="white"/>
<stop offset="1" stop-color="white" stop-opacity="0.85"/>
</linearGradient>
</defs>
</svg>
