<svg width="32" height="32" viewBox="0 0 32 32" fill="none" xmlns="http://www.w3.org/2000/svg">
<rect x="1.33008" y="1.33008" width="29.33" height="29.33" rx="5" fill="white"/>
<path fill-rule="evenodd" clip-rule="evenodd" d="M5.72654 16.1943C5.32778 15.2492 5.12843 14.232 5.14097 13.2063C5.15352 12.1805 5.37769 11.1685 5.79946 10.2334C6.20975 9.32642 6.84382 8.53859 7.64213 7.94391C8.44044 7.34922 9.37679 6.96718 10.3633 6.83366C11.3532 6.69869 12.3602 6.76719 13.3227 7.03497C14.2852 7.30275 15.1829 7.76418 15.9609 8.39099C16.739 7.76355 17.6372 7.30175 18.6002 7.03395C19.5632 6.76615 20.5709 6.69799 21.5612 6.83366C22.5473 6.96729 23.4832 7.34941 24.2811 7.94411C25.079 8.53881 25.7126 9.32657 26.1224 10.2334C26.5486 11.1663 26.7785 12.1768 26.7977 13.2022C26.817 14.2277 26.6252 15.2461 26.2344 16.1943H30.6666V5.33301C30.6666 4.27216 30.2451 3.25477 29.495 2.50464C28.7449 1.75451 27.7275 1.33306 26.6666 1.33301H5.33331C4.27246 1.33306 3.25508 1.75451 2.50494 2.50464C1.75481 3.25477 1.33337 4.27216 1.33331 5.33301V16.1943H5.72654ZM24.8984 18.5947C24.6719 18.9033 24.4249 19.2082 24.1575 19.5094C21.9483 21.9298 19.377 23.9927 16.5351 25.6246L15.845 26.0016L15.2239 25.5178C12.7786 23.6135 11.6263 21.7938 11.7018 19.954C11.7487 18.8238 12.3008 16.1949 16.4192 16.1949H23.595C24.0501 15.4585 24.3196 14.6225 24.3801 13.759C24.4407 12.8954 24.2905 12.03 23.9426 11.2373C23.7027 10.691 23.3246 10.2167 22.8456 9.86094C22.3666 9.50523 21.8032 9.28041 21.2109 9.20863C20.408 9.10671 19.5923 9.20181 18.8344 9.48573C18.0764 9.76965 17.399 10.2338 16.8607 10.8382L15.9609 11.8558L15.0612 10.8375C14.5229 10.2334 13.8457 9.76942 13.088 9.48562C12.3303 9.20182 11.5149 9.10675 10.7122 9.20863C10.1197 9.28026 9.55606 9.505 9.07681 9.86072C8.59757 10.2164 8.21926 10.6909 7.97915 11.2373C7.60693 12.1376 7.47764 13.1199 7.60423 14.0859C7.73082 15.052 8.10884 15.9678 8.70049 16.7418L9.90231 18.5947H1.33331V26.667C1.33337 27.7278 1.75481 28.7452 2.50494 29.4953C3.25508 30.2455 4.27246 30.6669 5.33331 30.667H26.6666C27.7275 30.6669 28.7449 30.2455 29.495 29.4953C30.2451 28.7452 30.6666 27.7278 30.6666 26.667V18.5947H24.8984ZM16.0717 23.1104C14.7267 21.9482 14.0639 20.9209 14.1004 20.0505C14.1212 19.5413 14.1603 18.5934 16.4194 18.5934H21.7345C20.0336 20.3193 18.1325 21.8357 16.0717 23.1104Z" fill="#28C387"/>
</svg>
