<svg width="284" height="28" viewBox="0 0 284 28" fill="none" xmlns="http://www.w3.org/2000/svg">
    <path d="M281.057 0.061264H227.765C226.14 0.061264 224.822 1.3789 224.822 3.00429V23.1478C224.822 24.7732 226.14 26.0909 227.765 26.0909H281.057C282.682 26.0909 284 24.7732 284 23.1478V3.00429C284 1.3789 282.682 0.061264 281.057 0.061264Z" fill="url(#paint0_linear)"/>
    <path d="M231.691 6.62839H234.801L238.683 14.656H239.34L243.225 6.62839H246.334V19.5786H244.26V9.21886L244.287 8.95828H244.236L240.369 16.9881H237.649L233.789 8.95828H233.739L233.763 9.21886V19.5786H231.691V6.62839Z" fill="white"/>
    <path d="M256.07 6.36781C259.827 6.36781 262.676 9.21449 262.676 12.9743V13.7495H251.537C251.822 16.1582 253.687 17.8947 256.07 17.8947C257.271 17.9236 258.44 17.5088 259.354 16.7297C259.743 16.3958 260.074 16.0018 260.338 15.5626H262.409C262.109 16.3559 261.664 17.086 261.095 17.7151C260.456 18.4056 259.678 18.9521 258.811 19.3184C257.945 19.6846 257.01 19.8621 256.07 19.8392C252.312 19.8392 249.463 16.9925 249.463 13.1035C249.463 9.21449 252.312 6.36781 256.07 6.36781ZM260.473 11.9364C260.189 9.99404 258.557 8.31231 256.07 8.31231C253.582 8.31231 251.927 9.99404 251.589 11.9364H260.473Z" fill="white"/>
    <path d="M263.99 17.6363H265.413C265.692 17.5032 265.922 17.2856 266.07 17.0144C266.381 16.5239 266.727 15.6414 266.727 14.1152V6.62839H276.441V17.6363H278.386V22.4844H276.312V19.5786H266.055V22.4844H263.981L263.99 17.6363ZM274.352 17.6363V8.5707H268.783V14.1152C268.783 15.429 268.549 16.2896 268.264 16.8326C268.126 17.113 267.951 17.3743 267.745 17.61V17.6363H274.352Z" fill="white"/>
    <path d="M0 4.58095H4.41892L9.7225 19.1559H9.97433L15.3458 4.58095H19.7078V21.3961H17.0144V7.94441L17.0472 7.60938H16.8085L11.8006 21.4048H7.91158L2.9058 7.60938H2.65398L2.68902 7.94441V21.3961H0V4.58095Z" fill="black"/>
    <path d="M42.3937 4.58095H45.0827V18.0917L45.0367 18.4399H45.2863L53.8395 4.58314H57.63V21.4026H54.941V7.95098L54.976 7.60719H54.7286L46.2236 21.4026H42.3937V4.58095Z" fill="black"/>
    <path d="M183.164 4.57004H185.853V18.0808L185.807 18.4268H186.057L194.61 4.57004H198.4V21.3917H195.711V7.94007L195.746 7.59409H195.499L187.005 21.3852H183.164V4.57004Z" fill="black"/>
    <path d="M31.0485 4.30948C36.085 4.30948 39.7856 8.00797 39.7856 13.0532C39.7856 18.0984 36.0893 21.7968 31.0485 21.7968C26.0077 21.7968 22.3136 18.0984 22.3136 13.0532C22.3136 8.00797 26.0099 4.30948 31.0485 4.30948ZM31.0485 19.2743C34.5521 19.2743 37.0966 16.7188 37.0966 13.0532C37.0966 9.38752 34.5434 6.83207 31.0485 6.83207C27.5537 6.83207 25.0004 9.38752 25.0004 13.0532C25.0004 16.7188 27.5559 19.2699 31.0485 19.2699V19.2743Z" fill="black"/>
    <path d="M115.952 4.30948C119.311 4.30948 121.328 5.8226 122.504 7.26783C123.202 8.12968 123.716 9.12529 124.014 10.1933H121.328C121.061 9.57177 120.685 9.00296 120.217 8.5138C119.409 7.67294 118.067 6.83207 115.95 6.83207C112.724 6.83207 110.239 9.38752 110.239 13.0532C110.239 16.7757 112.89 19.2743 115.95 19.2743C118.139 19.2743 119.51 18.3677 120.351 17.4261C120.851 16.8915 121.239 16.2624 121.492 15.5758H124.181C123.888 16.714 123.361 17.7788 122.635 18.7027C121.393 20.2158 119.409 21.7968 115.95 21.7968C111.246 21.7968 107.55 18.0984 107.55 13.0532C107.55 8.00797 111.239 4.30948 115.952 4.30948Z" fill="black"/>
    <path d="M134.755 4.30948C139.627 4.30948 143.321 8.00797 143.321 12.8846V13.894H128.869C129.244 17.021 131.663 19.2699 134.755 19.2699C136.315 19.3103 137.835 18.7712 139.021 17.7568C139.527 17.3261 139.958 16.8149 140.297 16.2436H142.991C142.599 17.2791 142.016 18.2315 141.272 19.0509C139.958 20.4283 137.946 21.8078 134.755 21.8078C129.883 21.8078 126.187 18.1093 126.187 13.0641C126.187 8.01892 129.883 4.30948 134.755 4.30948ZM140.466 11.5357C140.096 9.01307 137.981 6.82769 134.755 6.82769C131.53 6.82769 129.379 9.01745 128.941 11.5357H140.466Z" fill="black"/>
    <path d="M145.932 4.64451H148.621V7.18681H148.855L149.162 6.6766C149.698 5.83574 151.726 4.30948 154.951 4.30948C159.353 4.30948 163.551 7.54374 163.551 13.0532C163.551 18.0896 159.609 21.7968 154.951 21.7968C151.761 21.7968 149.729 20.4173 149.192 19.5107L148.855 19.0509H148.621V27.8625H145.932V4.64451ZM154.8 19.2699C158.17 19.2699 160.872 16.7144 160.872 13.0488C160.872 9.38314 158.17 6.83207 154.8 6.83207C151.43 6.83207 148.621 9.38752 148.621 13.0532C148.621 16.7188 151.432 19.2699 154.8 19.2699Z" fill="black"/>
    <path d="M166.161 4.64445H174.78C178.005 4.64445 179.816 6.46195 179.816 8.84878C179.816 11.875 177.407 12.4575 177.129 12.4575V12.7006C177.296 12.7006 180.488 13.1823 180.488 16.5808C180.488 19.4384 178.474 21.4552 174.81 21.4552H166.161V4.64445ZM174.611 11.54C176.325 11.54 177.131 10.6991 177.131 9.35023C177.131 8.00135 176.325 7.16048 174.611 7.16048H168.847V11.54H174.611ZM174.78 18.937C176.794 18.937 177.801 17.9297 177.801 16.4166C177.801 14.9034 176.794 13.894 174.78 13.894H168.847V18.9304L174.78 18.937Z" fill="black"/>
    <path d="M209.41 4.3795C212.77 4.3795 214.786 5.89262 215.962 7.34005C216.66 8.20087 217.175 9.19583 217.473 10.2634H214.786C214.52 9.64141 214.144 9.07248 213.676 8.58383C212.87 7.74296 211.526 6.9021 209.41 6.9021C206.183 6.9021 203.697 9.45754 203.697 13.1232C203.697 16.8567 206.351 19.3465 209.41 19.3465C211.6 19.3465 212.971 18.4377 213.812 17.4961C214.312 16.9616 214.7 16.3324 214.953 15.6458H217.642C217.347 16.7834 216.821 17.8479 216.096 18.7727C214.852 20.2881 212.87 21.8669 209.41 21.8669C204.705 21.8603 201.019 18.1618 201.019 13.1166C201.019 8.07143 204.705 4.3795 209.41 4.3795Z" fill="black"/>
    <path d="M106.205 19.4648H61.2233V21.4027H106.205V19.4648Z" fill="black"/>
    <path d="M54.1044 0H45.9213V2.06932H54.1044V0Z" fill="black"/>
    <defs>
        <linearGradient id="paint0_linear" x1="224.822" y1="13.0772" x2="284" y2="13.0772" gradientUnits="userSpaceOnUse">
            <stop stop-color="#12ABBF"/>
            <stop offset="0.48" stop-color="#27C39B"/>
            <stop offset="0.95" stop-color="#40D094"/>
        </linearGradient>
    </defs>
</svg>
