<svg width="284" height="28" viewBox="0 0 284 28" fill="none" xmlns="http://www.w3.org/2000/svg">
    <path d="M281.057 0.0610352H227.765C226.14 0.0610352 224.822 1.37867 224.822 3.00406V23.1476C224.822 24.773 226.14 26.0906 227.765 26.0906H281.057C282.682 26.0906 284 24.773 284 23.1476V3.00406C284 1.37867 282.682 0.0610352 281.057 0.0610352Z" fill="url(#paint0_linear)"/>
    <path d="M231.691 6.62842H234.801L238.683 14.6561H239.34L243.225 6.62842H246.334V19.5786H244.26V9.2189L244.287 8.95832H244.236L240.369 16.9881H237.649L233.789 8.95832H233.739L233.763 9.2189V19.5786H231.691V6.62842Z" fill="white"/>
    <path d="M256.07 6.36768C259.827 6.36768 262.676 9.21435 262.676 12.9742V13.7493H251.537C251.822 16.1581 253.687 17.8945 256.07 17.8945C257.271 17.9234 258.44 17.5087 259.354 16.7296C259.743 16.3957 260.074 16.0016 260.338 15.5624H262.409C262.109 16.3557 261.664 17.0858 261.095 17.715C260.456 18.4055 259.678 18.952 258.811 19.3182C257.945 19.6845 257.01 19.862 256.07 19.839C252.312 19.839 249.463 16.9924 249.463 13.1034C249.463 9.21435 252.312 6.36768 256.07 6.36768ZM260.473 11.9362C260.189 9.99391 258.557 8.31218 256.07 8.31218C253.582 8.31218 251.927 9.99391 251.589 11.9362H260.473Z" fill="white"/>
    <path d="M263.99 17.6363H265.413C265.692 17.5033 265.922 17.2856 266.07 17.0144C266.381 16.5239 266.727 15.6414 266.727 14.1152V6.62842H276.441V17.6363H278.386V22.4844H276.312V19.5786H266.055V22.4844H263.981L263.99 17.6363ZM274.352 17.6363V8.57073H268.783V14.1152C268.783 15.429 268.549 16.2896 268.264 16.8327C268.126 17.1131 267.951 17.3743 267.745 17.61V17.6363H274.352Z" fill="white"/>
    <path d="M0 4.58105H4.41892L9.7225 19.1561H9.97433L15.3458 4.58105H19.7078V21.3962H17.0144V7.94451L17.0472 7.60948H16.8085L11.8006 21.4049H7.91158L2.9058 7.60948H2.65398L2.68902 7.94451V21.3962H0V4.58105Z" fill="black"/>
    <path d="M42.3937 4.58105H45.0827V18.0918L45.0367 18.44H45.2863L53.8395 4.58324H57.63V21.4027H54.941V7.95108L54.976 7.60729H54.7286L46.2236 21.4027H42.3937V4.58105Z" fill="black"/>
    <path d="M183.164 4.56982H185.853V18.0806L185.807 18.4266H186.057L194.61 4.56982H198.4V21.3915H195.711V7.93985L195.746 7.59387H195.499L187.005 21.3849H183.164V4.56982Z" fill="black"/>
    <path d="M31.0485 4.30957C36.085 4.30957 39.7856 8.00806 39.7856 13.0533C39.7856 18.0984 36.0893 21.7969 31.0485 21.7969C26.0077 21.7969 22.3136 18.0984 22.3136 13.0533C22.3136 8.00806 26.0099 4.30957 31.0485 4.30957ZM31.0485 19.2743C34.5521 19.2743 37.0966 16.7189 37.0966 13.0533C37.0966 9.38761 34.5434 6.83217 31.0485 6.83217C27.5537 6.83217 25.0004 9.38761 25.0004 13.0533C25.0004 16.7189 27.5559 19.27 31.0485 19.27V19.2743Z" fill="black"/>
    <path d="M115.952 4.30957C119.311 4.30957 121.328 5.82269 122.504 7.26793C123.202 8.12977 123.716 9.12538 124.014 10.1934H121.328C121.061 9.57186 120.685 9.00305 120.217 8.5139C119.409 7.67303 118.067 6.83217 115.95 6.83217C112.724 6.83217 110.239 9.38761 110.239 13.0533C110.239 16.7758 112.89 19.2743 115.95 19.2743C118.139 19.2743 119.51 18.3678 120.351 17.4262C120.851 16.8916 121.239 16.2625 121.492 15.5758H124.181C123.888 16.7141 123.361 17.7789 122.635 18.7028C121.393 20.2159 119.409 21.7969 115.95 21.7969C111.246 21.7969 107.55 18.0984 107.55 13.0533C107.55 8.00806 111.239 4.30957 115.952 4.30957Z" fill="black"/>
    <path d="M134.755 4.30957C139.627 4.30957 143.321 8.00806 143.321 12.8846V13.8941H128.869C129.244 17.0211 131.663 19.27 134.755 19.27C136.315 19.3104 137.835 18.7713 139.021 17.7568C139.527 17.3262 139.958 16.815 140.297 16.2437H142.991C142.599 17.2792 142.016 18.2316 141.272 19.051C139.958 20.4283 137.946 21.8079 134.755 21.8079C129.883 21.8079 126.187 18.1094 126.187 13.0642C126.187 8.01901 129.883 4.30957 134.755 4.30957ZM140.466 11.5358C140.096 9.01316 137.981 6.82779 134.755 6.82779C131.53 6.82779 129.379 9.01754 128.941 11.5358H140.466Z" fill="black"/>
    <path d="M145.932 4.6446H148.621V7.18691H148.855L149.162 6.67669C149.698 5.83583 151.726 4.30957 154.951 4.30957C159.353 4.30957 163.551 7.54384 163.551 13.0533C163.551 18.0897 159.609 21.7969 154.951 21.7969C151.761 21.7969 149.729 20.4174 149.192 19.5108L148.855 19.051H148.621V27.8626H145.932V4.6446ZM154.8 19.27C158.17 19.27 160.872 16.7145 160.872 13.0489C160.872 9.38323 158.17 6.83217 154.8 6.83217C151.43 6.83217 148.621 9.38761 148.621 13.0533C148.621 16.7189 151.432 19.27 154.8 19.27Z" fill="black"/>
    <path d="M166.161 4.64453H174.78C178.005 4.64453 179.816 6.46203 179.816 8.84886C179.816 11.8751 177.407 12.4576 177.129 12.4576V12.7006C177.296 12.7006 180.488 13.1824 180.488 16.5809C180.488 19.4385 178.474 21.4553 174.81 21.4553H166.161V4.64453ZM174.611 11.5401C176.325 11.5401 177.131 10.6992 177.131 9.35031C177.131 8.00142 176.325 7.16056 174.611 7.16056H168.847V11.5401H174.611ZM174.78 18.937C176.794 18.937 177.801 17.9298 177.801 16.4166C177.801 14.9035 176.794 13.894 174.78 13.894H168.847V18.9305L174.78 18.937Z" fill="black"/>
    <path d="M209.41 4.37939C212.77 4.37939 214.786 5.89251 215.962 7.33994C216.66 8.20077 217.175 9.19572 217.473 10.2633H214.786C214.52 9.6413 214.144 9.07237 213.676 8.58372C212.87 7.74286 211.526 6.90199 209.41 6.90199C206.183 6.90199 203.697 9.45743 203.697 13.1231C203.697 16.8566 206.351 19.3464 209.41 19.3464C211.6 19.3464 212.971 18.4376 213.812 17.496C214.312 16.9614 214.7 16.3323 214.953 15.6457H217.642C217.347 16.7833 216.821 17.8478 216.096 18.7726C214.852 20.288 212.87 21.8668 209.41 21.8668C204.705 21.8602 201.019 18.1617 201.019 13.1165C201.019 8.07132 204.705 4.37939 209.41 4.37939Z" fill="black"/>
    <path d="M106.205 19.4648H61.2233V21.4028H106.205V19.4648Z" fill="url(#paint1_linear)"/>
    <path d="M54.1044 0H45.9213V2.06932H54.1044V0Z" fill="black"/>
    <defs>
        <linearGradient id="paint0_linear" x1="224.822" y1="13.0769" x2="284" y2="13.0769" gradientUnits="userSpaceOnUse">
            <stop stop-color="#12ABBF"/>
            <stop offset="0.48" stop-color="#27C39B"/>
            <stop offset="0.95" stop-color="#40D094"/>
        </linearGradient>
        <linearGradient id="paint1_linear" x1="12637.7" y1="200.313" x2="21877.9" y2="200.313" gradientUnits="userSpaceOnUse">
            <stop stop-color="#12ABBF"/>
            <stop offset="0.48" stop-color="#27C39B"/>
            <stop offset="0.95" stop-color="#40D094"/>
        </linearGradient>
    </defs>
</svg>
