<svg width="22" height="28" viewBox="0 0 22 28" fill="none" xmlns="http://www.w3.org/2000/svg">
<path d="M19.5334 0.133789H2.46671C1.28804 0.133789 0.333374 1.08846 0.333374 2.26712V25.7338C0.333374 26.9125 1.28804 27.8671 2.46671 27.8671H19.5334C20.712 27.8671 21.6667 26.9125 21.6667 25.7338V2.26712C21.6667 1.08846 20.712 0.133789 19.5334 0.133789ZM6.77177 7.45752C6.26191 7.16312 6.08697 6.51139 6.38137 6.00046C6.67577 5.48952 7.32751 5.31352 7.83844 5.61006L9.93337 6.81965V4.40046C9.93337 3.81059 10.4112 3.33379 11 3.33379C11.5888 3.33379 12.0667 3.81059 12.0667 4.40046V6.81965L14.1616 5.61006C14.6704 5.31459 15.3232 5.48952 15.6187 6.00046C15.9131 6.51139 15.7382 7.16312 15.2283 7.45752L13.1334 8.66712L15.2283 9.87672C15.7392 10.1711 15.9131 10.8239 15.6187 11.3338C15.4203 11.6762 15.063 11.8671 14.6939 11.8671C14.5136 11.8671 14.3291 11.8213 14.1616 11.7242L12.0667 10.5146V12.9338C12.0667 13.5237 11.5888 14.0005 11 14.0005C10.4112 14.0005 9.93337 13.5237 9.93337 12.9338V10.5146L7.83844 11.7242C7.67097 11.8213 7.48751 11.8671 7.30617 11.8671C6.93711 11.8671 6.57871 11.6762 6.38137 11.3338C6.08697 10.8229 6.26191 10.1711 6.77177 9.87672L8.86671 8.66712L6.77177 7.45752ZM13.1334 23.6005H4.60004C4.01124 23.6005 3.53337 23.1226 3.53337 22.5338C3.53337 21.945 4.01124 21.4671 4.60004 21.4671H13.1334C13.7222 21.4671 14.2 21.945 14.2 22.5338C14.2 23.1226 13.7222 23.6005 13.1334 23.6005ZM17.4 19.3338H4.60004C4.01124 19.3338 3.53337 18.8559 3.53337 18.2671C3.53337 17.6783 4.01124 17.2005 4.60004 17.2005H17.4C17.9888 17.2005 18.4667 17.6783 18.4667 18.2671C18.4667 18.8559 17.9888 19.3338 17.4 19.3338Z" fill="black"/>
</svg>
