<svg width="118" height="12" viewBox="0 0 118 12" fill="none" xmlns="http://www.w3.org/2000/svg">
    <path fill-rule="evenodd" clip-rule="evenodd" d="M117.825 0H115.104L113.711 4.66216H113.031L111.63 0H108.903L110.931 5.94595L108.733 11.9955H111.473L113.04 7.22973H113.711L115.278 11.9955H118.004L115.802 5.94595L117.825 0ZM103.5 12L103.244 9.17568H100.281L100.026 12H97.4738L98.6154 0H104.883L106.042 11.991L103.5 12ZM100.863 2.57658L100.491 6.6036H103.025L102.653 2.57658H100.863ZM94.9086 8.4009H89.4558V12.0045H86.8995V0H94.9086V8.4009ZM92.3478 2.57658H89.4558V5.85586H92.3478V2.57658ZM83.9538 2.57658H81.2319V12H78.6756V2.57658H75.9537V0H83.9538V2.56757V2.57658ZM73.3303 3.74324H70.774V2.57658H68.3566V9.43243H70.774V8.26577H73.3303V12H65.8092V0H73.3303V3.74324ZM62.2278 3.74324H59.6715V2.57658H57.254V9.43243H59.6715V8.26577H62.2278V12H54.7157V0H62.2278V3.74324ZM51.4476 12H43.4475V0H51.4476V12ZM48.8958 2.57658H45.9993V9.43243H48.8958V2.57658ZM40.9987 2.57658H36.8442V12H34.2924V0H41.0077V2.56757L40.9987 2.57658ZM30.7334 3.74324H28.1771V2.57658H25.7596V9.43243H28.1771V8.26577H30.7334V12H23.2078V0H30.7334V3.74324ZM19.3802 12H11.3756V0H19.3802V12ZM16.8284 2.57658H13.9319V9.43243H16.8284V2.57658ZM8.00455 8.4009H2.55179V12.0045H0V0H8.00455V8.4009ZM5.44829 2.57658H2.55179V5.85586H5.44829V2.57658Z" fill="#707070"/>
</svg>